%TF.GenerationSoftware,KiCad,Pcbnew,10.0.3-10.0.3~ubuntu24.04.1*%
%TF.CreationDate,2026-06-16T10:47:17+02:00*%
%TF.ProjectId,easy-bee-counter-2026,65617379-2d62-4656-952d-636f756e7465,rev?*%
%TF.SameCoordinates,Original*%
%TF.FileFunction,Legend,Bot*%
%TF.FilePolarity,Positive*%
%FSLAX46Y46*%
G04 Gerber Fmt 4.6, Leading zero omitted, Abs format (unit mm)*
G04 Created by KiCad (PCBNEW 10.0.3-10.0.3~ubuntu24.04.1) date 2026-06-16 10:47:17*
%MOMM*%
%LPD*%
G01*
G04 APERTURE LIST*
%ADD10C,0.100000*%
%ADD11C,0.150000*%
%ADD12C,0.120000*%
G04 APERTURE END LIST*
D10*
X143632782Y-208348609D02*
X143489925Y-208396228D01*
X143489925Y-208396228D02*
X143442306Y-208443847D01*
X143442306Y-208443847D02*
X143394687Y-208539085D01*
X143394687Y-208539085D02*
X143394687Y-208681942D01*
X143394687Y-208681942D02*
X143442306Y-208777180D01*
X143442306Y-208777180D02*
X143489925Y-208824800D01*
X143489925Y-208824800D02*
X143585163Y-208872419D01*
X143585163Y-208872419D02*
X143966115Y-208872419D01*
X143966115Y-208872419D02*
X143966115Y-207872419D01*
X143966115Y-207872419D02*
X143632782Y-207872419D01*
X143632782Y-207872419D02*
X143537544Y-207920038D01*
X143537544Y-207920038D02*
X143489925Y-207967657D01*
X143489925Y-207967657D02*
X143442306Y-208062895D01*
X143442306Y-208062895D02*
X143442306Y-208158133D01*
X143442306Y-208158133D02*
X143489925Y-208253371D01*
X143489925Y-208253371D02*
X143537544Y-208300990D01*
X143537544Y-208300990D02*
X143632782Y-208348609D01*
X143632782Y-208348609D02*
X143966115Y-208348609D01*
X142585163Y-208824800D02*
X142680401Y-208872419D01*
X142680401Y-208872419D02*
X142870877Y-208872419D01*
X142870877Y-208872419D02*
X142966115Y-208824800D01*
X142966115Y-208824800D02*
X143013734Y-208729561D01*
X143013734Y-208729561D02*
X143013734Y-208348609D01*
X143013734Y-208348609D02*
X142966115Y-208253371D01*
X142966115Y-208253371D02*
X142870877Y-208205752D01*
X142870877Y-208205752D02*
X142680401Y-208205752D01*
X142680401Y-208205752D02*
X142585163Y-208253371D01*
X142585163Y-208253371D02*
X142537544Y-208348609D01*
X142537544Y-208348609D02*
X142537544Y-208443847D01*
X142537544Y-208443847D02*
X143013734Y-208539085D01*
X141728020Y-208824800D02*
X141823258Y-208872419D01*
X141823258Y-208872419D02*
X142013734Y-208872419D01*
X142013734Y-208872419D02*
X142108972Y-208824800D01*
X142108972Y-208824800D02*
X142156591Y-208729561D01*
X142156591Y-208729561D02*
X142156591Y-208348609D01*
X142156591Y-208348609D02*
X142108972Y-208253371D01*
X142108972Y-208253371D02*
X142013734Y-208205752D01*
X142013734Y-208205752D02*
X141823258Y-208205752D01*
X141823258Y-208205752D02*
X141728020Y-208253371D01*
X141728020Y-208253371D02*
X141680401Y-208348609D01*
X141680401Y-208348609D02*
X141680401Y-208443847D01*
X141680401Y-208443847D02*
X142156591Y-208539085D01*
X140680401Y-208777180D02*
X140728020Y-208824800D01*
X140728020Y-208824800D02*
X140870877Y-208872419D01*
X140870877Y-208872419D02*
X140966115Y-208872419D01*
X140966115Y-208872419D02*
X141108972Y-208824800D01*
X141108972Y-208824800D02*
X141204210Y-208729561D01*
X141204210Y-208729561D02*
X141251829Y-208634323D01*
X141251829Y-208634323D02*
X141299448Y-208443847D01*
X141299448Y-208443847D02*
X141299448Y-208300990D01*
X141299448Y-208300990D02*
X141251829Y-208110514D01*
X141251829Y-208110514D02*
X141204210Y-208015276D01*
X141204210Y-208015276D02*
X141108972Y-207920038D01*
X141108972Y-207920038D02*
X140966115Y-207872419D01*
X140966115Y-207872419D02*
X140870877Y-207872419D01*
X140870877Y-207872419D02*
X140728020Y-207920038D01*
X140728020Y-207920038D02*
X140680401Y-207967657D01*
X140108972Y-208872419D02*
X140204210Y-208824800D01*
X140204210Y-208824800D02*
X140251829Y-208777180D01*
X140251829Y-208777180D02*
X140299448Y-208681942D01*
X140299448Y-208681942D02*
X140299448Y-208396228D01*
X140299448Y-208396228D02*
X140251829Y-208300990D01*
X140251829Y-208300990D02*
X140204210Y-208253371D01*
X140204210Y-208253371D02*
X140108972Y-208205752D01*
X140108972Y-208205752D02*
X139966115Y-208205752D01*
X139966115Y-208205752D02*
X139870877Y-208253371D01*
X139870877Y-208253371D02*
X139823258Y-208300990D01*
X139823258Y-208300990D02*
X139775639Y-208396228D01*
X139775639Y-208396228D02*
X139775639Y-208681942D01*
X139775639Y-208681942D02*
X139823258Y-208777180D01*
X139823258Y-208777180D02*
X139870877Y-208824800D01*
X139870877Y-208824800D02*
X139966115Y-208872419D01*
X139966115Y-208872419D02*
X140108972Y-208872419D01*
X138918496Y-208205752D02*
X138918496Y-208872419D01*
X139347067Y-208205752D02*
X139347067Y-208729561D01*
X139347067Y-208729561D02*
X139299448Y-208824800D01*
X139299448Y-208824800D02*
X139204210Y-208872419D01*
X139204210Y-208872419D02*
X139061353Y-208872419D01*
X139061353Y-208872419D02*
X138966115Y-208824800D01*
X138966115Y-208824800D02*
X138918496Y-208777180D01*
X138442305Y-208205752D02*
X138442305Y-208872419D01*
X138442305Y-208300990D02*
X138394686Y-208253371D01*
X138394686Y-208253371D02*
X138299448Y-208205752D01*
X138299448Y-208205752D02*
X138156591Y-208205752D01*
X138156591Y-208205752D02*
X138061353Y-208253371D01*
X138061353Y-208253371D02*
X138013734Y-208348609D01*
X138013734Y-208348609D02*
X138013734Y-208872419D01*
X137680400Y-208205752D02*
X137299448Y-208205752D01*
X137537543Y-207872419D02*
X137537543Y-208729561D01*
X137537543Y-208729561D02*
X137489924Y-208824800D01*
X137489924Y-208824800D02*
X137394686Y-208872419D01*
X137394686Y-208872419D02*
X137299448Y-208872419D01*
X136585162Y-208824800D02*
X136680400Y-208872419D01*
X136680400Y-208872419D02*
X136870876Y-208872419D01*
X136870876Y-208872419D02*
X136966114Y-208824800D01*
X136966114Y-208824800D02*
X137013733Y-208729561D01*
X137013733Y-208729561D02*
X137013733Y-208348609D01*
X137013733Y-208348609D02*
X136966114Y-208253371D01*
X136966114Y-208253371D02*
X136870876Y-208205752D01*
X136870876Y-208205752D02*
X136680400Y-208205752D01*
X136680400Y-208205752D02*
X136585162Y-208253371D01*
X136585162Y-208253371D02*
X136537543Y-208348609D01*
X136537543Y-208348609D02*
X136537543Y-208443847D01*
X136537543Y-208443847D02*
X137013733Y-208539085D01*
X136108971Y-208872419D02*
X136108971Y-208205752D01*
X136108971Y-208396228D02*
X136061352Y-208300990D01*
X136061352Y-208300990D02*
X136013733Y-208253371D01*
X136013733Y-208253371D02*
X135918495Y-208205752D01*
X135918495Y-208205752D02*
X135823257Y-208205752D01*
X135537542Y-207967657D02*
X135489923Y-207920038D01*
X135489923Y-207920038D02*
X135394685Y-207872419D01*
X135394685Y-207872419D02*
X135156590Y-207872419D01*
X135156590Y-207872419D02*
X135061352Y-207920038D01*
X135061352Y-207920038D02*
X135013733Y-207967657D01*
X135013733Y-207967657D02*
X134966114Y-208062895D01*
X134966114Y-208062895D02*
X134966114Y-208158133D01*
X134966114Y-208158133D02*
X135013733Y-208300990D01*
X135013733Y-208300990D02*
X135585161Y-208872419D01*
X135585161Y-208872419D02*
X134966114Y-208872419D01*
X134347066Y-207872419D02*
X134251828Y-207872419D01*
X134251828Y-207872419D02*
X134156590Y-207920038D01*
X134156590Y-207920038D02*
X134108971Y-207967657D01*
X134108971Y-207967657D02*
X134061352Y-208062895D01*
X134061352Y-208062895D02*
X134013733Y-208253371D01*
X134013733Y-208253371D02*
X134013733Y-208491466D01*
X134013733Y-208491466D02*
X134061352Y-208681942D01*
X134061352Y-208681942D02*
X134108971Y-208777180D01*
X134108971Y-208777180D02*
X134156590Y-208824800D01*
X134156590Y-208824800D02*
X134251828Y-208872419D01*
X134251828Y-208872419D02*
X134347066Y-208872419D01*
X134347066Y-208872419D02*
X134442304Y-208824800D01*
X134442304Y-208824800D02*
X134489923Y-208777180D01*
X134489923Y-208777180D02*
X134537542Y-208681942D01*
X134537542Y-208681942D02*
X134585161Y-208491466D01*
X134585161Y-208491466D02*
X134585161Y-208253371D01*
X134585161Y-208253371D02*
X134537542Y-208062895D01*
X134537542Y-208062895D02*
X134489923Y-207967657D01*
X134489923Y-207967657D02*
X134442304Y-207920038D01*
X134442304Y-207920038D02*
X134347066Y-207872419D01*
X133632780Y-207967657D02*
X133585161Y-207920038D01*
X133585161Y-207920038D02*
X133489923Y-207872419D01*
X133489923Y-207872419D02*
X133251828Y-207872419D01*
X133251828Y-207872419D02*
X133156590Y-207920038D01*
X133156590Y-207920038D02*
X133108971Y-207967657D01*
X133108971Y-207967657D02*
X133061352Y-208062895D01*
X133061352Y-208062895D02*
X133061352Y-208158133D01*
X133061352Y-208158133D02*
X133108971Y-208300990D01*
X133108971Y-208300990D02*
X133680399Y-208872419D01*
X133680399Y-208872419D02*
X133061352Y-208872419D01*
X132204209Y-207872419D02*
X132394685Y-207872419D01*
X132394685Y-207872419D02*
X132489923Y-207920038D01*
X132489923Y-207920038D02*
X132537542Y-207967657D01*
X132537542Y-207967657D02*
X132632780Y-208110514D01*
X132632780Y-208110514D02*
X132680399Y-208300990D01*
X132680399Y-208300990D02*
X132680399Y-208681942D01*
X132680399Y-208681942D02*
X132632780Y-208777180D01*
X132632780Y-208777180D02*
X132585161Y-208824800D01*
X132585161Y-208824800D02*
X132489923Y-208872419D01*
X132489923Y-208872419D02*
X132299447Y-208872419D01*
X132299447Y-208872419D02*
X132204209Y-208824800D01*
X132204209Y-208824800D02*
X132156590Y-208777180D01*
X132156590Y-208777180D02*
X132108971Y-208681942D01*
X132108971Y-208681942D02*
X132108971Y-208443847D01*
X132108971Y-208443847D02*
X132156590Y-208348609D01*
X132156590Y-208348609D02*
X132204209Y-208300990D01*
X132204209Y-208300990D02*
X132299447Y-208253371D01*
X132299447Y-208253371D02*
X132489923Y-208253371D01*
X132489923Y-208253371D02*
X132585161Y-208300990D01*
X132585161Y-208300990D02*
X132632780Y-208348609D01*
X132632780Y-208348609D02*
X132680399Y-208443847D01*
X131680399Y-208491466D02*
X130918495Y-208491466D01*
X130537542Y-208205752D02*
X130299447Y-208872419D01*
X130299447Y-208872419D02*
X130061352Y-208205752D01*
X129489923Y-207872419D02*
X129394685Y-207872419D01*
X129394685Y-207872419D02*
X129299447Y-207920038D01*
X129299447Y-207920038D02*
X129251828Y-207967657D01*
X129251828Y-207967657D02*
X129204209Y-208062895D01*
X129204209Y-208062895D02*
X129156590Y-208253371D01*
X129156590Y-208253371D02*
X129156590Y-208491466D01*
X129156590Y-208491466D02*
X129204209Y-208681942D01*
X129204209Y-208681942D02*
X129251828Y-208777180D01*
X129251828Y-208777180D02*
X129299447Y-208824800D01*
X129299447Y-208824800D02*
X129394685Y-208872419D01*
X129394685Y-208872419D02*
X129489923Y-208872419D01*
X129489923Y-208872419D02*
X129585161Y-208824800D01*
X129585161Y-208824800D02*
X129632780Y-208777180D01*
X129632780Y-208777180D02*
X129680399Y-208681942D01*
X129680399Y-208681942D02*
X129728018Y-208491466D01*
X129728018Y-208491466D02*
X129728018Y-208253371D01*
X129728018Y-208253371D02*
X129680399Y-208062895D01*
X129680399Y-208062895D02*
X129632780Y-207967657D01*
X129632780Y-207967657D02*
X129585161Y-207920038D01*
X129585161Y-207920038D02*
X129489923Y-207872419D01*
X128728018Y-208777180D02*
X128680399Y-208824800D01*
X128680399Y-208824800D02*
X128728018Y-208872419D01*
X128728018Y-208872419D02*
X128775637Y-208824800D01*
X128775637Y-208824800D02*
X128728018Y-208777180D01*
X128728018Y-208777180D02*
X128728018Y-208872419D01*
X128299447Y-207967657D02*
X128251828Y-207920038D01*
X128251828Y-207920038D02*
X128156590Y-207872419D01*
X128156590Y-207872419D02*
X127918495Y-207872419D01*
X127918495Y-207872419D02*
X127823257Y-207920038D01*
X127823257Y-207920038D02*
X127775638Y-207967657D01*
X127775638Y-207967657D02*
X127728019Y-208062895D01*
X127728019Y-208062895D02*
X127728019Y-208158133D01*
X127728019Y-208158133D02*
X127775638Y-208300990D01*
X127775638Y-208300990D02*
X128347066Y-208872419D01*
X128347066Y-208872419D02*
X127728019Y-208872419D01*
X109499999Y-207000000D02*
X126900058Y-207000000D01*
X126900058Y-210000000D01*
X109499999Y-210000000D01*
X109499999Y-207000000D01*
G36*
X109499999Y-207000000D02*
G01*
X126900058Y-207000000D01*
X126900058Y-210000000D01*
X109499999Y-210000000D01*
X109499999Y-207000000D01*
G37*
D11*
X425523809Y-238554819D02*
X425333333Y-238554819D01*
X425333333Y-238554819D02*
X425238095Y-238602438D01*
X425238095Y-238602438D02*
X425142857Y-238697676D01*
X425142857Y-238697676D02*
X425095238Y-238888152D01*
X425095238Y-238888152D02*
X425095238Y-239221485D01*
X425095238Y-239221485D02*
X425142857Y-239411961D01*
X425142857Y-239411961D02*
X425238095Y-239507200D01*
X425238095Y-239507200D02*
X425333333Y-239554819D01*
X425333333Y-239554819D02*
X425523809Y-239554819D01*
X425523809Y-239554819D02*
X425619047Y-239507200D01*
X425619047Y-239507200D02*
X425714285Y-239411961D01*
X425714285Y-239411961D02*
X425761904Y-239221485D01*
X425761904Y-239221485D02*
X425761904Y-238888152D01*
X425761904Y-238888152D02*
X425714285Y-238697676D01*
X425714285Y-238697676D02*
X425619047Y-238602438D01*
X425619047Y-238602438D02*
X425523809Y-238554819D01*
X424238095Y-238888152D02*
X424238095Y-239554819D01*
X424666666Y-238888152D02*
X424666666Y-239411961D01*
X424666666Y-239411961D02*
X424619047Y-239507200D01*
X424619047Y-239507200D02*
X424523809Y-239554819D01*
X424523809Y-239554819D02*
X424380952Y-239554819D01*
X424380952Y-239554819D02*
X424285714Y-239507200D01*
X424285714Y-239507200D02*
X424238095Y-239459580D01*
X423904761Y-238888152D02*
X423523809Y-238888152D01*
X423761904Y-238554819D02*
X423761904Y-239411961D01*
X423761904Y-239411961D02*
X423714285Y-239507200D01*
X423714285Y-239507200D02*
X423619047Y-239554819D01*
X423619047Y-239554819D02*
X423523809Y-239554819D01*
X422809523Y-239507200D02*
X422904761Y-239554819D01*
X422904761Y-239554819D02*
X423095237Y-239554819D01*
X423095237Y-239554819D02*
X423190475Y-239507200D01*
X423190475Y-239507200D02*
X423238094Y-239411961D01*
X423238094Y-239411961D02*
X423238094Y-239031009D01*
X423238094Y-239031009D02*
X423190475Y-238935771D01*
X423190475Y-238935771D02*
X423095237Y-238888152D01*
X423095237Y-238888152D02*
X422904761Y-238888152D01*
X422904761Y-238888152D02*
X422809523Y-238935771D01*
X422809523Y-238935771D02*
X422761904Y-239031009D01*
X422761904Y-239031009D02*
X422761904Y-239126247D01*
X422761904Y-239126247D02*
X423238094Y-239221485D01*
X422333332Y-239554819D02*
X422333332Y-238888152D01*
X422333332Y-239078628D02*
X422285713Y-238983390D01*
X422285713Y-238983390D02*
X422238094Y-238935771D01*
X422238094Y-238935771D02*
X422142856Y-238888152D01*
X422142856Y-238888152D02*
X422047618Y-238888152D01*
X421761903Y-238650057D02*
X421714284Y-238602438D01*
X421714284Y-238602438D02*
X421619046Y-238554819D01*
X421619046Y-238554819D02*
X421380951Y-238554819D01*
X421380951Y-238554819D02*
X421285713Y-238602438D01*
X421285713Y-238602438D02*
X421238094Y-238650057D01*
X421238094Y-238650057D02*
X421190475Y-238745295D01*
X421190475Y-238745295D02*
X421190475Y-238840533D01*
X421190475Y-238840533D02*
X421238094Y-238983390D01*
X421238094Y-238983390D02*
X421809522Y-239554819D01*
X421809522Y-239554819D02*
X421190475Y-239554819D01*
X420333332Y-238554819D02*
X420523808Y-238554819D01*
X420523808Y-238554819D02*
X420619046Y-238602438D01*
X420619046Y-238602438D02*
X420666665Y-238650057D01*
X420666665Y-238650057D02*
X420761903Y-238792914D01*
X420761903Y-238792914D02*
X420809522Y-238983390D01*
X420809522Y-238983390D02*
X420809522Y-239364342D01*
X420809522Y-239364342D02*
X420761903Y-239459580D01*
X420761903Y-239459580D02*
X420714284Y-239507200D01*
X420714284Y-239507200D02*
X420619046Y-239554819D01*
X420619046Y-239554819D02*
X420428570Y-239554819D01*
X420428570Y-239554819D02*
X420333332Y-239507200D01*
X420333332Y-239507200D02*
X420285713Y-239459580D01*
X420285713Y-239459580D02*
X420238094Y-239364342D01*
X420238094Y-239364342D02*
X420238094Y-239126247D01*
X420238094Y-239126247D02*
X420285713Y-239031009D01*
X420285713Y-239031009D02*
X420333332Y-238983390D01*
X420333332Y-238983390D02*
X420428570Y-238935771D01*
X420428570Y-238935771D02*
X420619046Y-238935771D01*
X420619046Y-238935771D02*
X420714284Y-238983390D01*
X420714284Y-238983390D02*
X420761903Y-239031009D01*
X420761903Y-239031009D02*
X420809522Y-239126247D01*
X338023809Y-238554819D02*
X337833333Y-238554819D01*
X337833333Y-238554819D02*
X337738095Y-238602438D01*
X337738095Y-238602438D02*
X337642857Y-238697676D01*
X337642857Y-238697676D02*
X337595238Y-238888152D01*
X337595238Y-238888152D02*
X337595238Y-239221485D01*
X337595238Y-239221485D02*
X337642857Y-239411961D01*
X337642857Y-239411961D02*
X337738095Y-239507200D01*
X337738095Y-239507200D02*
X337833333Y-239554819D01*
X337833333Y-239554819D02*
X338023809Y-239554819D01*
X338023809Y-239554819D02*
X338119047Y-239507200D01*
X338119047Y-239507200D02*
X338214285Y-239411961D01*
X338214285Y-239411961D02*
X338261904Y-239221485D01*
X338261904Y-239221485D02*
X338261904Y-238888152D01*
X338261904Y-238888152D02*
X338214285Y-238697676D01*
X338214285Y-238697676D02*
X338119047Y-238602438D01*
X338119047Y-238602438D02*
X338023809Y-238554819D01*
X336738095Y-238888152D02*
X336738095Y-239554819D01*
X337166666Y-238888152D02*
X337166666Y-239411961D01*
X337166666Y-239411961D02*
X337119047Y-239507200D01*
X337119047Y-239507200D02*
X337023809Y-239554819D01*
X337023809Y-239554819D02*
X336880952Y-239554819D01*
X336880952Y-239554819D02*
X336785714Y-239507200D01*
X336785714Y-239507200D02*
X336738095Y-239459580D01*
X336404761Y-238888152D02*
X336023809Y-238888152D01*
X336261904Y-238554819D02*
X336261904Y-239411961D01*
X336261904Y-239411961D02*
X336214285Y-239507200D01*
X336214285Y-239507200D02*
X336119047Y-239554819D01*
X336119047Y-239554819D02*
X336023809Y-239554819D01*
X335309523Y-239507200D02*
X335404761Y-239554819D01*
X335404761Y-239554819D02*
X335595237Y-239554819D01*
X335595237Y-239554819D02*
X335690475Y-239507200D01*
X335690475Y-239507200D02*
X335738094Y-239411961D01*
X335738094Y-239411961D02*
X335738094Y-239031009D01*
X335738094Y-239031009D02*
X335690475Y-238935771D01*
X335690475Y-238935771D02*
X335595237Y-238888152D01*
X335595237Y-238888152D02*
X335404761Y-238888152D01*
X335404761Y-238888152D02*
X335309523Y-238935771D01*
X335309523Y-238935771D02*
X335261904Y-239031009D01*
X335261904Y-239031009D02*
X335261904Y-239126247D01*
X335261904Y-239126247D02*
X335738094Y-239221485D01*
X334833332Y-239554819D02*
X334833332Y-238888152D01*
X334833332Y-239078628D02*
X334785713Y-238983390D01*
X334785713Y-238983390D02*
X334738094Y-238935771D01*
X334738094Y-238935771D02*
X334642856Y-238888152D01*
X334642856Y-238888152D02*
X334547618Y-238888152D01*
X333690475Y-239554819D02*
X334261903Y-239554819D01*
X333976189Y-239554819D02*
X333976189Y-238554819D01*
X333976189Y-238554819D02*
X334071427Y-238697676D01*
X334071427Y-238697676D02*
X334166665Y-238792914D01*
X334166665Y-238792914D02*
X334261903Y-238840533D01*
X333357141Y-238554819D02*
X332690475Y-238554819D01*
X332690475Y-238554819D02*
X333119046Y-239554819D01*
X275523809Y-238554819D02*
X275333333Y-238554819D01*
X275333333Y-238554819D02*
X275238095Y-238602438D01*
X275238095Y-238602438D02*
X275142857Y-238697676D01*
X275142857Y-238697676D02*
X275095238Y-238888152D01*
X275095238Y-238888152D02*
X275095238Y-239221485D01*
X275095238Y-239221485D02*
X275142857Y-239411961D01*
X275142857Y-239411961D02*
X275238095Y-239507200D01*
X275238095Y-239507200D02*
X275333333Y-239554819D01*
X275333333Y-239554819D02*
X275523809Y-239554819D01*
X275523809Y-239554819D02*
X275619047Y-239507200D01*
X275619047Y-239507200D02*
X275714285Y-239411961D01*
X275714285Y-239411961D02*
X275761904Y-239221485D01*
X275761904Y-239221485D02*
X275761904Y-238888152D01*
X275761904Y-238888152D02*
X275714285Y-238697676D01*
X275714285Y-238697676D02*
X275619047Y-238602438D01*
X275619047Y-238602438D02*
X275523809Y-238554819D01*
X274238095Y-238888152D02*
X274238095Y-239554819D01*
X274666666Y-238888152D02*
X274666666Y-239411961D01*
X274666666Y-239411961D02*
X274619047Y-239507200D01*
X274619047Y-239507200D02*
X274523809Y-239554819D01*
X274523809Y-239554819D02*
X274380952Y-239554819D01*
X274380952Y-239554819D02*
X274285714Y-239507200D01*
X274285714Y-239507200D02*
X274238095Y-239459580D01*
X273904761Y-238888152D02*
X273523809Y-238888152D01*
X273761904Y-238554819D02*
X273761904Y-239411961D01*
X273761904Y-239411961D02*
X273714285Y-239507200D01*
X273714285Y-239507200D02*
X273619047Y-239554819D01*
X273619047Y-239554819D02*
X273523809Y-239554819D01*
X272809523Y-239507200D02*
X272904761Y-239554819D01*
X272904761Y-239554819D02*
X273095237Y-239554819D01*
X273095237Y-239554819D02*
X273190475Y-239507200D01*
X273190475Y-239507200D02*
X273238094Y-239411961D01*
X273238094Y-239411961D02*
X273238094Y-239031009D01*
X273238094Y-239031009D02*
X273190475Y-238935771D01*
X273190475Y-238935771D02*
X273095237Y-238888152D01*
X273095237Y-238888152D02*
X272904761Y-238888152D01*
X272904761Y-238888152D02*
X272809523Y-238935771D01*
X272809523Y-238935771D02*
X272761904Y-239031009D01*
X272761904Y-239031009D02*
X272761904Y-239126247D01*
X272761904Y-239126247D02*
X273238094Y-239221485D01*
X272333332Y-239554819D02*
X272333332Y-238888152D01*
X272333332Y-239078628D02*
X272285713Y-238983390D01*
X272285713Y-238983390D02*
X272238094Y-238935771D01*
X272238094Y-238935771D02*
X272142856Y-238888152D01*
X272142856Y-238888152D02*
X272047618Y-238888152D01*
X271190475Y-239554819D02*
X271761903Y-239554819D01*
X271476189Y-239554819D02*
X271476189Y-238554819D01*
X271476189Y-238554819D02*
X271571427Y-238697676D01*
X271571427Y-238697676D02*
X271666665Y-238792914D01*
X271666665Y-238792914D02*
X271761903Y-238840533D01*
X270809522Y-238650057D02*
X270761903Y-238602438D01*
X270761903Y-238602438D02*
X270666665Y-238554819D01*
X270666665Y-238554819D02*
X270428570Y-238554819D01*
X270428570Y-238554819D02*
X270333332Y-238602438D01*
X270333332Y-238602438D02*
X270285713Y-238650057D01*
X270285713Y-238650057D02*
X270238094Y-238745295D01*
X270238094Y-238745295D02*
X270238094Y-238840533D01*
X270238094Y-238840533D02*
X270285713Y-238983390D01*
X270285713Y-238983390D02*
X270857141Y-239554819D01*
X270857141Y-239554819D02*
X270238094Y-239554819D01*
X375595237Y-232554819D02*
X375595237Y-231554819D01*
X375119047Y-231888152D02*
X375119047Y-232554819D01*
X375119047Y-231983390D02*
X375071428Y-231935771D01*
X375071428Y-231935771D02*
X374976190Y-231888152D01*
X374976190Y-231888152D02*
X374833333Y-231888152D01*
X374833333Y-231888152D02*
X374738095Y-231935771D01*
X374738095Y-231935771D02*
X374690476Y-232031009D01*
X374690476Y-232031009D02*
X374690476Y-232554819D01*
X374214285Y-231888152D02*
X374214285Y-232554819D01*
X374214285Y-231983390D02*
X374166666Y-231935771D01*
X374166666Y-231935771D02*
X374071428Y-231888152D01*
X374071428Y-231888152D02*
X373928571Y-231888152D01*
X373928571Y-231888152D02*
X373833333Y-231935771D01*
X373833333Y-231935771D02*
X373785714Y-232031009D01*
X373785714Y-232031009D02*
X373785714Y-232554819D01*
X372928571Y-232507200D02*
X373023809Y-232554819D01*
X373023809Y-232554819D02*
X373214285Y-232554819D01*
X373214285Y-232554819D02*
X373309523Y-232507200D01*
X373309523Y-232507200D02*
X373357142Y-232411961D01*
X373357142Y-232411961D02*
X373357142Y-232031009D01*
X373357142Y-232031009D02*
X373309523Y-231935771D01*
X373309523Y-231935771D02*
X373214285Y-231888152D01*
X373214285Y-231888152D02*
X373023809Y-231888152D01*
X373023809Y-231888152D02*
X372928571Y-231935771D01*
X372928571Y-231935771D02*
X372880952Y-232031009D01*
X372880952Y-232031009D02*
X372880952Y-232126247D01*
X372880952Y-232126247D02*
X373357142Y-232221485D01*
X372452380Y-232554819D02*
X372452380Y-231888152D01*
X372452380Y-232078628D02*
X372404761Y-231983390D01*
X372404761Y-231983390D02*
X372357142Y-231935771D01*
X372357142Y-231935771D02*
X372261904Y-231888152D01*
X372261904Y-231888152D02*
X372166666Y-231888152D01*
X371880951Y-231650057D02*
X371833332Y-231602438D01*
X371833332Y-231602438D02*
X371738094Y-231554819D01*
X371738094Y-231554819D02*
X371499999Y-231554819D01*
X371499999Y-231554819D02*
X371404761Y-231602438D01*
X371404761Y-231602438D02*
X371357142Y-231650057D01*
X371357142Y-231650057D02*
X371309523Y-231745295D01*
X371309523Y-231745295D02*
X371309523Y-231840533D01*
X371309523Y-231840533D02*
X371357142Y-231983390D01*
X371357142Y-231983390D02*
X371928570Y-232554819D01*
X371928570Y-232554819D02*
X371309523Y-232554819D01*
X370928570Y-231650057D02*
X370880951Y-231602438D01*
X370880951Y-231602438D02*
X370785713Y-231554819D01*
X370785713Y-231554819D02*
X370547618Y-231554819D01*
X370547618Y-231554819D02*
X370452380Y-231602438D01*
X370452380Y-231602438D02*
X370404761Y-231650057D01*
X370404761Y-231650057D02*
X370357142Y-231745295D01*
X370357142Y-231745295D02*
X370357142Y-231840533D01*
X370357142Y-231840533D02*
X370404761Y-231983390D01*
X370404761Y-231983390D02*
X370976189Y-232554819D01*
X370976189Y-232554819D02*
X370357142Y-232554819D01*
X200595237Y-232554819D02*
X200595237Y-231554819D01*
X200119047Y-231888152D02*
X200119047Y-232554819D01*
X200119047Y-231983390D02*
X200071428Y-231935771D01*
X200071428Y-231935771D02*
X199976190Y-231888152D01*
X199976190Y-231888152D02*
X199833333Y-231888152D01*
X199833333Y-231888152D02*
X199738095Y-231935771D01*
X199738095Y-231935771D02*
X199690476Y-232031009D01*
X199690476Y-232031009D02*
X199690476Y-232554819D01*
X199214285Y-231888152D02*
X199214285Y-232554819D01*
X199214285Y-231983390D02*
X199166666Y-231935771D01*
X199166666Y-231935771D02*
X199071428Y-231888152D01*
X199071428Y-231888152D02*
X198928571Y-231888152D01*
X198928571Y-231888152D02*
X198833333Y-231935771D01*
X198833333Y-231935771D02*
X198785714Y-232031009D01*
X198785714Y-232031009D02*
X198785714Y-232554819D01*
X197928571Y-232507200D02*
X198023809Y-232554819D01*
X198023809Y-232554819D02*
X198214285Y-232554819D01*
X198214285Y-232554819D02*
X198309523Y-232507200D01*
X198309523Y-232507200D02*
X198357142Y-232411961D01*
X198357142Y-232411961D02*
X198357142Y-232031009D01*
X198357142Y-232031009D02*
X198309523Y-231935771D01*
X198309523Y-231935771D02*
X198214285Y-231888152D01*
X198214285Y-231888152D02*
X198023809Y-231888152D01*
X198023809Y-231888152D02*
X197928571Y-231935771D01*
X197928571Y-231935771D02*
X197880952Y-232031009D01*
X197880952Y-232031009D02*
X197880952Y-232126247D01*
X197880952Y-232126247D02*
X198357142Y-232221485D01*
X197452380Y-232554819D02*
X197452380Y-231888152D01*
X197452380Y-232078628D02*
X197404761Y-231983390D01*
X197404761Y-231983390D02*
X197357142Y-231935771D01*
X197357142Y-231935771D02*
X197261904Y-231888152D01*
X197261904Y-231888152D02*
X197166666Y-231888152D01*
X196642856Y-231554819D02*
X196547618Y-231554819D01*
X196547618Y-231554819D02*
X196452380Y-231602438D01*
X196452380Y-231602438D02*
X196404761Y-231650057D01*
X196404761Y-231650057D02*
X196357142Y-231745295D01*
X196357142Y-231745295D02*
X196309523Y-231935771D01*
X196309523Y-231935771D02*
X196309523Y-232173866D01*
X196309523Y-232173866D02*
X196357142Y-232364342D01*
X196357142Y-232364342D02*
X196404761Y-232459580D01*
X196404761Y-232459580D02*
X196452380Y-232507200D01*
X196452380Y-232507200D02*
X196547618Y-232554819D01*
X196547618Y-232554819D02*
X196642856Y-232554819D01*
X196642856Y-232554819D02*
X196738094Y-232507200D01*
X196738094Y-232507200D02*
X196785713Y-232459580D01*
X196785713Y-232459580D02*
X196833332Y-232364342D01*
X196833332Y-232364342D02*
X196880951Y-232173866D01*
X196880951Y-232173866D02*
X196880951Y-231935771D01*
X196880951Y-231935771D02*
X196833332Y-231745295D01*
X196833332Y-231745295D02*
X196785713Y-231650057D01*
X196785713Y-231650057D02*
X196738094Y-231602438D01*
X196738094Y-231602438D02*
X196642856Y-231554819D01*
X195452380Y-231888152D02*
X195452380Y-232554819D01*
X195690475Y-231507200D02*
X195928570Y-232221485D01*
X195928570Y-232221485D02*
X195309523Y-232221485D01*
X275595237Y-232554819D02*
X275595237Y-231554819D01*
X275119047Y-231888152D02*
X275119047Y-232554819D01*
X275119047Y-231983390D02*
X275071428Y-231935771D01*
X275071428Y-231935771D02*
X274976190Y-231888152D01*
X274976190Y-231888152D02*
X274833333Y-231888152D01*
X274833333Y-231888152D02*
X274738095Y-231935771D01*
X274738095Y-231935771D02*
X274690476Y-232031009D01*
X274690476Y-232031009D02*
X274690476Y-232554819D01*
X274214285Y-231888152D02*
X274214285Y-232554819D01*
X274214285Y-231983390D02*
X274166666Y-231935771D01*
X274166666Y-231935771D02*
X274071428Y-231888152D01*
X274071428Y-231888152D02*
X273928571Y-231888152D01*
X273928571Y-231888152D02*
X273833333Y-231935771D01*
X273833333Y-231935771D02*
X273785714Y-232031009D01*
X273785714Y-232031009D02*
X273785714Y-232554819D01*
X272928571Y-232507200D02*
X273023809Y-232554819D01*
X273023809Y-232554819D02*
X273214285Y-232554819D01*
X273214285Y-232554819D02*
X273309523Y-232507200D01*
X273309523Y-232507200D02*
X273357142Y-232411961D01*
X273357142Y-232411961D02*
X273357142Y-232031009D01*
X273357142Y-232031009D02*
X273309523Y-231935771D01*
X273309523Y-231935771D02*
X273214285Y-231888152D01*
X273214285Y-231888152D02*
X273023809Y-231888152D01*
X273023809Y-231888152D02*
X272928571Y-231935771D01*
X272928571Y-231935771D02*
X272880952Y-232031009D01*
X272880952Y-232031009D02*
X272880952Y-232126247D01*
X272880952Y-232126247D02*
X273357142Y-232221485D01*
X272452380Y-232554819D02*
X272452380Y-231888152D01*
X272452380Y-232078628D02*
X272404761Y-231983390D01*
X272404761Y-231983390D02*
X272357142Y-231935771D01*
X272357142Y-231935771D02*
X272261904Y-231888152D01*
X272261904Y-231888152D02*
X272166666Y-231888152D01*
X271309523Y-232554819D02*
X271880951Y-232554819D01*
X271595237Y-232554819D02*
X271595237Y-231554819D01*
X271595237Y-231554819D02*
X271690475Y-231697676D01*
X271690475Y-231697676D02*
X271785713Y-231792914D01*
X271785713Y-231792914D02*
X271880951Y-231840533D01*
X270928570Y-231650057D02*
X270880951Y-231602438D01*
X270880951Y-231602438D02*
X270785713Y-231554819D01*
X270785713Y-231554819D02*
X270547618Y-231554819D01*
X270547618Y-231554819D02*
X270452380Y-231602438D01*
X270452380Y-231602438D02*
X270404761Y-231650057D01*
X270404761Y-231650057D02*
X270357142Y-231745295D01*
X270357142Y-231745295D02*
X270357142Y-231840533D01*
X270357142Y-231840533D02*
X270404761Y-231983390D01*
X270404761Y-231983390D02*
X270976189Y-232554819D01*
X270976189Y-232554819D02*
X270357142Y-232554819D01*
X438095237Y-232554819D02*
X438095237Y-231554819D01*
X437619047Y-231888152D02*
X437619047Y-232554819D01*
X437619047Y-231983390D02*
X437571428Y-231935771D01*
X437571428Y-231935771D02*
X437476190Y-231888152D01*
X437476190Y-231888152D02*
X437333333Y-231888152D01*
X437333333Y-231888152D02*
X437238095Y-231935771D01*
X437238095Y-231935771D02*
X437190476Y-232031009D01*
X437190476Y-232031009D02*
X437190476Y-232554819D01*
X436714285Y-231888152D02*
X436714285Y-232554819D01*
X436714285Y-231983390D02*
X436666666Y-231935771D01*
X436666666Y-231935771D02*
X436571428Y-231888152D01*
X436571428Y-231888152D02*
X436428571Y-231888152D01*
X436428571Y-231888152D02*
X436333333Y-231935771D01*
X436333333Y-231935771D02*
X436285714Y-232031009D01*
X436285714Y-232031009D02*
X436285714Y-232554819D01*
X435428571Y-232507200D02*
X435523809Y-232554819D01*
X435523809Y-232554819D02*
X435714285Y-232554819D01*
X435714285Y-232554819D02*
X435809523Y-232507200D01*
X435809523Y-232507200D02*
X435857142Y-232411961D01*
X435857142Y-232411961D02*
X435857142Y-232031009D01*
X435857142Y-232031009D02*
X435809523Y-231935771D01*
X435809523Y-231935771D02*
X435714285Y-231888152D01*
X435714285Y-231888152D02*
X435523809Y-231888152D01*
X435523809Y-231888152D02*
X435428571Y-231935771D01*
X435428571Y-231935771D02*
X435380952Y-232031009D01*
X435380952Y-232031009D02*
X435380952Y-232126247D01*
X435380952Y-232126247D02*
X435857142Y-232221485D01*
X434952380Y-232554819D02*
X434952380Y-231888152D01*
X434952380Y-232078628D02*
X434904761Y-231983390D01*
X434904761Y-231983390D02*
X434857142Y-231935771D01*
X434857142Y-231935771D02*
X434761904Y-231888152D01*
X434761904Y-231888152D02*
X434666666Y-231888152D01*
X434380951Y-231650057D02*
X434333332Y-231602438D01*
X434333332Y-231602438D02*
X434238094Y-231554819D01*
X434238094Y-231554819D02*
X433999999Y-231554819D01*
X433999999Y-231554819D02*
X433904761Y-231602438D01*
X433904761Y-231602438D02*
X433857142Y-231650057D01*
X433857142Y-231650057D02*
X433809523Y-231745295D01*
X433809523Y-231745295D02*
X433809523Y-231840533D01*
X433809523Y-231840533D02*
X433857142Y-231983390D01*
X433857142Y-231983390D02*
X434428570Y-232554819D01*
X434428570Y-232554819D02*
X433809523Y-232554819D01*
X433476189Y-231554819D02*
X432809523Y-231554819D01*
X432809523Y-231554819D02*
X433238094Y-232554819D01*
X150523809Y-238554819D02*
X150333333Y-238554819D01*
X150333333Y-238554819D02*
X150238095Y-238602438D01*
X150238095Y-238602438D02*
X150142857Y-238697676D01*
X150142857Y-238697676D02*
X150095238Y-238888152D01*
X150095238Y-238888152D02*
X150095238Y-239221485D01*
X150095238Y-239221485D02*
X150142857Y-239411961D01*
X150142857Y-239411961D02*
X150238095Y-239507200D01*
X150238095Y-239507200D02*
X150333333Y-239554819D01*
X150333333Y-239554819D02*
X150523809Y-239554819D01*
X150523809Y-239554819D02*
X150619047Y-239507200D01*
X150619047Y-239507200D02*
X150714285Y-239411961D01*
X150714285Y-239411961D02*
X150761904Y-239221485D01*
X150761904Y-239221485D02*
X150761904Y-238888152D01*
X150761904Y-238888152D02*
X150714285Y-238697676D01*
X150714285Y-238697676D02*
X150619047Y-238602438D01*
X150619047Y-238602438D02*
X150523809Y-238554819D01*
X149238095Y-238888152D02*
X149238095Y-239554819D01*
X149666666Y-238888152D02*
X149666666Y-239411961D01*
X149666666Y-239411961D02*
X149619047Y-239507200D01*
X149619047Y-239507200D02*
X149523809Y-239554819D01*
X149523809Y-239554819D02*
X149380952Y-239554819D01*
X149380952Y-239554819D02*
X149285714Y-239507200D01*
X149285714Y-239507200D02*
X149238095Y-239459580D01*
X148904761Y-238888152D02*
X148523809Y-238888152D01*
X148761904Y-238554819D02*
X148761904Y-239411961D01*
X148761904Y-239411961D02*
X148714285Y-239507200D01*
X148714285Y-239507200D02*
X148619047Y-239554819D01*
X148619047Y-239554819D02*
X148523809Y-239554819D01*
X147809523Y-239507200D02*
X147904761Y-239554819D01*
X147904761Y-239554819D02*
X148095237Y-239554819D01*
X148095237Y-239554819D02*
X148190475Y-239507200D01*
X148190475Y-239507200D02*
X148238094Y-239411961D01*
X148238094Y-239411961D02*
X148238094Y-239031009D01*
X148238094Y-239031009D02*
X148190475Y-238935771D01*
X148190475Y-238935771D02*
X148095237Y-238888152D01*
X148095237Y-238888152D02*
X147904761Y-238888152D01*
X147904761Y-238888152D02*
X147809523Y-238935771D01*
X147809523Y-238935771D02*
X147761904Y-239031009D01*
X147761904Y-239031009D02*
X147761904Y-239126247D01*
X147761904Y-239126247D02*
X148238094Y-239221485D01*
X147333332Y-239554819D02*
X147333332Y-238888152D01*
X147333332Y-239078628D02*
X147285713Y-238983390D01*
X147285713Y-238983390D02*
X147238094Y-238935771D01*
X147238094Y-238935771D02*
X147142856Y-238888152D01*
X147142856Y-238888152D02*
X147047618Y-238888152D01*
X146523808Y-238554819D02*
X146428570Y-238554819D01*
X146428570Y-238554819D02*
X146333332Y-238602438D01*
X146333332Y-238602438D02*
X146285713Y-238650057D01*
X146285713Y-238650057D02*
X146238094Y-238745295D01*
X146238094Y-238745295D02*
X146190475Y-238935771D01*
X146190475Y-238935771D02*
X146190475Y-239173866D01*
X146190475Y-239173866D02*
X146238094Y-239364342D01*
X146238094Y-239364342D02*
X146285713Y-239459580D01*
X146285713Y-239459580D02*
X146333332Y-239507200D01*
X146333332Y-239507200D02*
X146428570Y-239554819D01*
X146428570Y-239554819D02*
X146523808Y-239554819D01*
X146523808Y-239554819D02*
X146619046Y-239507200D01*
X146619046Y-239507200D02*
X146666665Y-239459580D01*
X146666665Y-239459580D02*
X146714284Y-239364342D01*
X146714284Y-239364342D02*
X146761903Y-239173866D01*
X146761903Y-239173866D02*
X146761903Y-238935771D01*
X146761903Y-238935771D02*
X146714284Y-238745295D01*
X146714284Y-238745295D02*
X146666665Y-238650057D01*
X146666665Y-238650057D02*
X146619046Y-238602438D01*
X146619046Y-238602438D02*
X146523808Y-238554819D01*
X145571427Y-238554819D02*
X145476189Y-238554819D01*
X145476189Y-238554819D02*
X145380951Y-238602438D01*
X145380951Y-238602438D02*
X145333332Y-238650057D01*
X145333332Y-238650057D02*
X145285713Y-238745295D01*
X145285713Y-238745295D02*
X145238094Y-238935771D01*
X145238094Y-238935771D02*
X145238094Y-239173866D01*
X145238094Y-239173866D02*
X145285713Y-239364342D01*
X145285713Y-239364342D02*
X145333332Y-239459580D01*
X145333332Y-239459580D02*
X145380951Y-239507200D01*
X145380951Y-239507200D02*
X145476189Y-239554819D01*
X145476189Y-239554819D02*
X145571427Y-239554819D01*
X145571427Y-239554819D02*
X145666665Y-239507200D01*
X145666665Y-239507200D02*
X145714284Y-239459580D01*
X145714284Y-239459580D02*
X145761903Y-239364342D01*
X145761903Y-239364342D02*
X145809522Y-239173866D01*
X145809522Y-239173866D02*
X145809522Y-238935771D01*
X145809522Y-238935771D02*
X145761903Y-238745295D01*
X145761903Y-238745295D02*
X145714284Y-238650057D01*
X145714284Y-238650057D02*
X145666665Y-238602438D01*
X145666665Y-238602438D02*
X145571427Y-238554819D01*
X200523809Y-238554819D02*
X200333333Y-238554819D01*
X200333333Y-238554819D02*
X200238095Y-238602438D01*
X200238095Y-238602438D02*
X200142857Y-238697676D01*
X200142857Y-238697676D02*
X200095238Y-238888152D01*
X200095238Y-238888152D02*
X200095238Y-239221485D01*
X200095238Y-239221485D02*
X200142857Y-239411961D01*
X200142857Y-239411961D02*
X200238095Y-239507200D01*
X200238095Y-239507200D02*
X200333333Y-239554819D01*
X200333333Y-239554819D02*
X200523809Y-239554819D01*
X200523809Y-239554819D02*
X200619047Y-239507200D01*
X200619047Y-239507200D02*
X200714285Y-239411961D01*
X200714285Y-239411961D02*
X200761904Y-239221485D01*
X200761904Y-239221485D02*
X200761904Y-238888152D01*
X200761904Y-238888152D02*
X200714285Y-238697676D01*
X200714285Y-238697676D02*
X200619047Y-238602438D01*
X200619047Y-238602438D02*
X200523809Y-238554819D01*
X199238095Y-238888152D02*
X199238095Y-239554819D01*
X199666666Y-238888152D02*
X199666666Y-239411961D01*
X199666666Y-239411961D02*
X199619047Y-239507200D01*
X199619047Y-239507200D02*
X199523809Y-239554819D01*
X199523809Y-239554819D02*
X199380952Y-239554819D01*
X199380952Y-239554819D02*
X199285714Y-239507200D01*
X199285714Y-239507200D02*
X199238095Y-239459580D01*
X198904761Y-238888152D02*
X198523809Y-238888152D01*
X198761904Y-238554819D02*
X198761904Y-239411961D01*
X198761904Y-239411961D02*
X198714285Y-239507200D01*
X198714285Y-239507200D02*
X198619047Y-239554819D01*
X198619047Y-239554819D02*
X198523809Y-239554819D01*
X197809523Y-239507200D02*
X197904761Y-239554819D01*
X197904761Y-239554819D02*
X198095237Y-239554819D01*
X198095237Y-239554819D02*
X198190475Y-239507200D01*
X198190475Y-239507200D02*
X198238094Y-239411961D01*
X198238094Y-239411961D02*
X198238094Y-239031009D01*
X198238094Y-239031009D02*
X198190475Y-238935771D01*
X198190475Y-238935771D02*
X198095237Y-238888152D01*
X198095237Y-238888152D02*
X197904761Y-238888152D01*
X197904761Y-238888152D02*
X197809523Y-238935771D01*
X197809523Y-238935771D02*
X197761904Y-239031009D01*
X197761904Y-239031009D02*
X197761904Y-239126247D01*
X197761904Y-239126247D02*
X198238094Y-239221485D01*
X197333332Y-239554819D02*
X197333332Y-238888152D01*
X197333332Y-239078628D02*
X197285713Y-238983390D01*
X197285713Y-238983390D02*
X197238094Y-238935771D01*
X197238094Y-238935771D02*
X197142856Y-238888152D01*
X197142856Y-238888152D02*
X197047618Y-238888152D01*
X196523808Y-238554819D02*
X196428570Y-238554819D01*
X196428570Y-238554819D02*
X196333332Y-238602438D01*
X196333332Y-238602438D02*
X196285713Y-238650057D01*
X196285713Y-238650057D02*
X196238094Y-238745295D01*
X196238094Y-238745295D02*
X196190475Y-238935771D01*
X196190475Y-238935771D02*
X196190475Y-239173866D01*
X196190475Y-239173866D02*
X196238094Y-239364342D01*
X196238094Y-239364342D02*
X196285713Y-239459580D01*
X196285713Y-239459580D02*
X196333332Y-239507200D01*
X196333332Y-239507200D02*
X196428570Y-239554819D01*
X196428570Y-239554819D02*
X196523808Y-239554819D01*
X196523808Y-239554819D02*
X196619046Y-239507200D01*
X196619046Y-239507200D02*
X196666665Y-239459580D01*
X196666665Y-239459580D02*
X196714284Y-239364342D01*
X196714284Y-239364342D02*
X196761903Y-239173866D01*
X196761903Y-239173866D02*
X196761903Y-238935771D01*
X196761903Y-238935771D02*
X196714284Y-238745295D01*
X196714284Y-238745295D02*
X196666665Y-238650057D01*
X196666665Y-238650057D02*
X196619046Y-238602438D01*
X196619046Y-238602438D02*
X196523808Y-238554819D01*
X195333332Y-238888152D02*
X195333332Y-239554819D01*
X195571427Y-238507200D02*
X195809522Y-239221485D01*
X195809522Y-239221485D02*
X195190475Y-239221485D01*
X188095237Y-232554819D02*
X188095237Y-231554819D01*
X187619047Y-231888152D02*
X187619047Y-232554819D01*
X187619047Y-231983390D02*
X187571428Y-231935771D01*
X187571428Y-231935771D02*
X187476190Y-231888152D01*
X187476190Y-231888152D02*
X187333333Y-231888152D01*
X187333333Y-231888152D02*
X187238095Y-231935771D01*
X187238095Y-231935771D02*
X187190476Y-232031009D01*
X187190476Y-232031009D02*
X187190476Y-232554819D01*
X186714285Y-231888152D02*
X186714285Y-232554819D01*
X186714285Y-231983390D02*
X186666666Y-231935771D01*
X186666666Y-231935771D02*
X186571428Y-231888152D01*
X186571428Y-231888152D02*
X186428571Y-231888152D01*
X186428571Y-231888152D02*
X186333333Y-231935771D01*
X186333333Y-231935771D02*
X186285714Y-232031009D01*
X186285714Y-232031009D02*
X186285714Y-232554819D01*
X185428571Y-232507200D02*
X185523809Y-232554819D01*
X185523809Y-232554819D02*
X185714285Y-232554819D01*
X185714285Y-232554819D02*
X185809523Y-232507200D01*
X185809523Y-232507200D02*
X185857142Y-232411961D01*
X185857142Y-232411961D02*
X185857142Y-232031009D01*
X185857142Y-232031009D02*
X185809523Y-231935771D01*
X185809523Y-231935771D02*
X185714285Y-231888152D01*
X185714285Y-231888152D02*
X185523809Y-231888152D01*
X185523809Y-231888152D02*
X185428571Y-231935771D01*
X185428571Y-231935771D02*
X185380952Y-232031009D01*
X185380952Y-232031009D02*
X185380952Y-232126247D01*
X185380952Y-232126247D02*
X185857142Y-232221485D01*
X184952380Y-232554819D02*
X184952380Y-231888152D01*
X184952380Y-232078628D02*
X184904761Y-231983390D01*
X184904761Y-231983390D02*
X184857142Y-231935771D01*
X184857142Y-231935771D02*
X184761904Y-231888152D01*
X184761904Y-231888152D02*
X184666666Y-231888152D01*
X184142856Y-231554819D02*
X184047618Y-231554819D01*
X184047618Y-231554819D02*
X183952380Y-231602438D01*
X183952380Y-231602438D02*
X183904761Y-231650057D01*
X183904761Y-231650057D02*
X183857142Y-231745295D01*
X183857142Y-231745295D02*
X183809523Y-231935771D01*
X183809523Y-231935771D02*
X183809523Y-232173866D01*
X183809523Y-232173866D02*
X183857142Y-232364342D01*
X183857142Y-232364342D02*
X183904761Y-232459580D01*
X183904761Y-232459580D02*
X183952380Y-232507200D01*
X183952380Y-232507200D02*
X184047618Y-232554819D01*
X184047618Y-232554819D02*
X184142856Y-232554819D01*
X184142856Y-232554819D02*
X184238094Y-232507200D01*
X184238094Y-232507200D02*
X184285713Y-232459580D01*
X184285713Y-232459580D02*
X184333332Y-232364342D01*
X184333332Y-232364342D02*
X184380951Y-232173866D01*
X184380951Y-232173866D02*
X184380951Y-231935771D01*
X184380951Y-231935771D02*
X184333332Y-231745295D01*
X184333332Y-231745295D02*
X184285713Y-231650057D01*
X184285713Y-231650057D02*
X184238094Y-231602438D01*
X184238094Y-231602438D02*
X184142856Y-231554819D01*
X183476189Y-231554819D02*
X182857142Y-231554819D01*
X182857142Y-231554819D02*
X183190475Y-231935771D01*
X183190475Y-231935771D02*
X183047618Y-231935771D01*
X183047618Y-231935771D02*
X182952380Y-231983390D01*
X182952380Y-231983390D02*
X182904761Y-232031009D01*
X182904761Y-232031009D02*
X182857142Y-232126247D01*
X182857142Y-232126247D02*
X182857142Y-232364342D01*
X182857142Y-232364342D02*
X182904761Y-232459580D01*
X182904761Y-232459580D02*
X182952380Y-232507200D01*
X182952380Y-232507200D02*
X183047618Y-232554819D01*
X183047618Y-232554819D02*
X183333332Y-232554819D01*
X183333332Y-232554819D02*
X183428570Y-232507200D01*
X183428570Y-232507200D02*
X183476189Y-232459580D01*
X175523809Y-238554819D02*
X175333333Y-238554819D01*
X175333333Y-238554819D02*
X175238095Y-238602438D01*
X175238095Y-238602438D02*
X175142857Y-238697676D01*
X175142857Y-238697676D02*
X175095238Y-238888152D01*
X175095238Y-238888152D02*
X175095238Y-239221485D01*
X175095238Y-239221485D02*
X175142857Y-239411961D01*
X175142857Y-239411961D02*
X175238095Y-239507200D01*
X175238095Y-239507200D02*
X175333333Y-239554819D01*
X175333333Y-239554819D02*
X175523809Y-239554819D01*
X175523809Y-239554819D02*
X175619047Y-239507200D01*
X175619047Y-239507200D02*
X175714285Y-239411961D01*
X175714285Y-239411961D02*
X175761904Y-239221485D01*
X175761904Y-239221485D02*
X175761904Y-238888152D01*
X175761904Y-238888152D02*
X175714285Y-238697676D01*
X175714285Y-238697676D02*
X175619047Y-238602438D01*
X175619047Y-238602438D02*
X175523809Y-238554819D01*
X174238095Y-238888152D02*
X174238095Y-239554819D01*
X174666666Y-238888152D02*
X174666666Y-239411961D01*
X174666666Y-239411961D02*
X174619047Y-239507200D01*
X174619047Y-239507200D02*
X174523809Y-239554819D01*
X174523809Y-239554819D02*
X174380952Y-239554819D01*
X174380952Y-239554819D02*
X174285714Y-239507200D01*
X174285714Y-239507200D02*
X174238095Y-239459580D01*
X173904761Y-238888152D02*
X173523809Y-238888152D01*
X173761904Y-238554819D02*
X173761904Y-239411961D01*
X173761904Y-239411961D02*
X173714285Y-239507200D01*
X173714285Y-239507200D02*
X173619047Y-239554819D01*
X173619047Y-239554819D02*
X173523809Y-239554819D01*
X172809523Y-239507200D02*
X172904761Y-239554819D01*
X172904761Y-239554819D02*
X173095237Y-239554819D01*
X173095237Y-239554819D02*
X173190475Y-239507200D01*
X173190475Y-239507200D02*
X173238094Y-239411961D01*
X173238094Y-239411961D02*
X173238094Y-239031009D01*
X173238094Y-239031009D02*
X173190475Y-238935771D01*
X173190475Y-238935771D02*
X173095237Y-238888152D01*
X173095237Y-238888152D02*
X172904761Y-238888152D01*
X172904761Y-238888152D02*
X172809523Y-238935771D01*
X172809523Y-238935771D02*
X172761904Y-239031009D01*
X172761904Y-239031009D02*
X172761904Y-239126247D01*
X172761904Y-239126247D02*
X173238094Y-239221485D01*
X172333332Y-239554819D02*
X172333332Y-238888152D01*
X172333332Y-239078628D02*
X172285713Y-238983390D01*
X172285713Y-238983390D02*
X172238094Y-238935771D01*
X172238094Y-238935771D02*
X172142856Y-238888152D01*
X172142856Y-238888152D02*
X172047618Y-238888152D01*
X171523808Y-238554819D02*
X171428570Y-238554819D01*
X171428570Y-238554819D02*
X171333332Y-238602438D01*
X171333332Y-238602438D02*
X171285713Y-238650057D01*
X171285713Y-238650057D02*
X171238094Y-238745295D01*
X171238094Y-238745295D02*
X171190475Y-238935771D01*
X171190475Y-238935771D02*
X171190475Y-239173866D01*
X171190475Y-239173866D02*
X171238094Y-239364342D01*
X171238094Y-239364342D02*
X171285713Y-239459580D01*
X171285713Y-239459580D02*
X171333332Y-239507200D01*
X171333332Y-239507200D02*
X171428570Y-239554819D01*
X171428570Y-239554819D02*
X171523808Y-239554819D01*
X171523808Y-239554819D02*
X171619046Y-239507200D01*
X171619046Y-239507200D02*
X171666665Y-239459580D01*
X171666665Y-239459580D02*
X171714284Y-239364342D01*
X171714284Y-239364342D02*
X171761903Y-239173866D01*
X171761903Y-239173866D02*
X171761903Y-238935771D01*
X171761903Y-238935771D02*
X171714284Y-238745295D01*
X171714284Y-238745295D02*
X171666665Y-238650057D01*
X171666665Y-238650057D02*
X171619046Y-238602438D01*
X171619046Y-238602438D02*
X171523808Y-238554819D01*
X170809522Y-238650057D02*
X170761903Y-238602438D01*
X170761903Y-238602438D02*
X170666665Y-238554819D01*
X170666665Y-238554819D02*
X170428570Y-238554819D01*
X170428570Y-238554819D02*
X170333332Y-238602438D01*
X170333332Y-238602438D02*
X170285713Y-238650057D01*
X170285713Y-238650057D02*
X170238094Y-238745295D01*
X170238094Y-238745295D02*
X170238094Y-238840533D01*
X170238094Y-238840533D02*
X170285713Y-238983390D01*
X170285713Y-238983390D02*
X170857141Y-239554819D01*
X170857141Y-239554819D02*
X170238094Y-239554819D01*
X163095237Y-232554819D02*
X163095237Y-231554819D01*
X162619047Y-231888152D02*
X162619047Y-232554819D01*
X162619047Y-231983390D02*
X162571428Y-231935771D01*
X162571428Y-231935771D02*
X162476190Y-231888152D01*
X162476190Y-231888152D02*
X162333333Y-231888152D01*
X162333333Y-231888152D02*
X162238095Y-231935771D01*
X162238095Y-231935771D02*
X162190476Y-232031009D01*
X162190476Y-232031009D02*
X162190476Y-232554819D01*
X161714285Y-231888152D02*
X161714285Y-232554819D01*
X161714285Y-231983390D02*
X161666666Y-231935771D01*
X161666666Y-231935771D02*
X161571428Y-231888152D01*
X161571428Y-231888152D02*
X161428571Y-231888152D01*
X161428571Y-231888152D02*
X161333333Y-231935771D01*
X161333333Y-231935771D02*
X161285714Y-232031009D01*
X161285714Y-232031009D02*
X161285714Y-232554819D01*
X160428571Y-232507200D02*
X160523809Y-232554819D01*
X160523809Y-232554819D02*
X160714285Y-232554819D01*
X160714285Y-232554819D02*
X160809523Y-232507200D01*
X160809523Y-232507200D02*
X160857142Y-232411961D01*
X160857142Y-232411961D02*
X160857142Y-232031009D01*
X160857142Y-232031009D02*
X160809523Y-231935771D01*
X160809523Y-231935771D02*
X160714285Y-231888152D01*
X160714285Y-231888152D02*
X160523809Y-231888152D01*
X160523809Y-231888152D02*
X160428571Y-231935771D01*
X160428571Y-231935771D02*
X160380952Y-232031009D01*
X160380952Y-232031009D02*
X160380952Y-232126247D01*
X160380952Y-232126247D02*
X160857142Y-232221485D01*
X159952380Y-232554819D02*
X159952380Y-231888152D01*
X159952380Y-232078628D02*
X159904761Y-231983390D01*
X159904761Y-231983390D02*
X159857142Y-231935771D01*
X159857142Y-231935771D02*
X159761904Y-231888152D01*
X159761904Y-231888152D02*
X159666666Y-231888152D01*
X159142856Y-231554819D02*
X159047618Y-231554819D01*
X159047618Y-231554819D02*
X158952380Y-231602438D01*
X158952380Y-231602438D02*
X158904761Y-231650057D01*
X158904761Y-231650057D02*
X158857142Y-231745295D01*
X158857142Y-231745295D02*
X158809523Y-231935771D01*
X158809523Y-231935771D02*
X158809523Y-232173866D01*
X158809523Y-232173866D02*
X158857142Y-232364342D01*
X158857142Y-232364342D02*
X158904761Y-232459580D01*
X158904761Y-232459580D02*
X158952380Y-232507200D01*
X158952380Y-232507200D02*
X159047618Y-232554819D01*
X159047618Y-232554819D02*
X159142856Y-232554819D01*
X159142856Y-232554819D02*
X159238094Y-232507200D01*
X159238094Y-232507200D02*
X159285713Y-232459580D01*
X159285713Y-232459580D02*
X159333332Y-232364342D01*
X159333332Y-232364342D02*
X159380951Y-232173866D01*
X159380951Y-232173866D02*
X159380951Y-231935771D01*
X159380951Y-231935771D02*
X159333332Y-231745295D01*
X159333332Y-231745295D02*
X159285713Y-231650057D01*
X159285713Y-231650057D02*
X159238094Y-231602438D01*
X159238094Y-231602438D02*
X159142856Y-231554819D01*
X157857142Y-232554819D02*
X158428570Y-232554819D01*
X158142856Y-232554819D02*
X158142856Y-231554819D01*
X158142856Y-231554819D02*
X158238094Y-231697676D01*
X158238094Y-231697676D02*
X158333332Y-231792914D01*
X158333332Y-231792914D02*
X158428570Y-231840533D01*
X388023809Y-238554819D02*
X387833333Y-238554819D01*
X387833333Y-238554819D02*
X387738095Y-238602438D01*
X387738095Y-238602438D02*
X387642857Y-238697676D01*
X387642857Y-238697676D02*
X387595238Y-238888152D01*
X387595238Y-238888152D02*
X387595238Y-239221485D01*
X387595238Y-239221485D02*
X387642857Y-239411961D01*
X387642857Y-239411961D02*
X387738095Y-239507200D01*
X387738095Y-239507200D02*
X387833333Y-239554819D01*
X387833333Y-239554819D02*
X388023809Y-239554819D01*
X388023809Y-239554819D02*
X388119047Y-239507200D01*
X388119047Y-239507200D02*
X388214285Y-239411961D01*
X388214285Y-239411961D02*
X388261904Y-239221485D01*
X388261904Y-239221485D02*
X388261904Y-238888152D01*
X388261904Y-238888152D02*
X388214285Y-238697676D01*
X388214285Y-238697676D02*
X388119047Y-238602438D01*
X388119047Y-238602438D02*
X388023809Y-238554819D01*
X386738095Y-238888152D02*
X386738095Y-239554819D01*
X387166666Y-238888152D02*
X387166666Y-239411961D01*
X387166666Y-239411961D02*
X387119047Y-239507200D01*
X387119047Y-239507200D02*
X387023809Y-239554819D01*
X387023809Y-239554819D02*
X386880952Y-239554819D01*
X386880952Y-239554819D02*
X386785714Y-239507200D01*
X386785714Y-239507200D02*
X386738095Y-239459580D01*
X386404761Y-238888152D02*
X386023809Y-238888152D01*
X386261904Y-238554819D02*
X386261904Y-239411961D01*
X386261904Y-239411961D02*
X386214285Y-239507200D01*
X386214285Y-239507200D02*
X386119047Y-239554819D01*
X386119047Y-239554819D02*
X386023809Y-239554819D01*
X385309523Y-239507200D02*
X385404761Y-239554819D01*
X385404761Y-239554819D02*
X385595237Y-239554819D01*
X385595237Y-239554819D02*
X385690475Y-239507200D01*
X385690475Y-239507200D02*
X385738094Y-239411961D01*
X385738094Y-239411961D02*
X385738094Y-239031009D01*
X385738094Y-239031009D02*
X385690475Y-238935771D01*
X385690475Y-238935771D02*
X385595237Y-238888152D01*
X385595237Y-238888152D02*
X385404761Y-238888152D01*
X385404761Y-238888152D02*
X385309523Y-238935771D01*
X385309523Y-238935771D02*
X385261904Y-239031009D01*
X385261904Y-239031009D02*
X385261904Y-239126247D01*
X385261904Y-239126247D02*
X385738094Y-239221485D01*
X384833332Y-239554819D02*
X384833332Y-238888152D01*
X384833332Y-239078628D02*
X384785713Y-238983390D01*
X384785713Y-238983390D02*
X384738094Y-238935771D01*
X384738094Y-238935771D02*
X384642856Y-238888152D01*
X384642856Y-238888152D02*
X384547618Y-238888152D01*
X384261903Y-238650057D02*
X384214284Y-238602438D01*
X384214284Y-238602438D02*
X384119046Y-238554819D01*
X384119046Y-238554819D02*
X383880951Y-238554819D01*
X383880951Y-238554819D02*
X383785713Y-238602438D01*
X383785713Y-238602438D02*
X383738094Y-238650057D01*
X383738094Y-238650057D02*
X383690475Y-238745295D01*
X383690475Y-238745295D02*
X383690475Y-238840533D01*
X383690475Y-238840533D02*
X383738094Y-238983390D01*
X383738094Y-238983390D02*
X384309522Y-239554819D01*
X384309522Y-239554819D02*
X383690475Y-239554819D01*
X383357141Y-238554819D02*
X382738094Y-238554819D01*
X382738094Y-238554819D02*
X383071427Y-238935771D01*
X383071427Y-238935771D02*
X382928570Y-238935771D01*
X382928570Y-238935771D02*
X382833332Y-238983390D01*
X382833332Y-238983390D02*
X382785713Y-239031009D01*
X382785713Y-239031009D02*
X382738094Y-239126247D01*
X382738094Y-239126247D02*
X382738094Y-239364342D01*
X382738094Y-239364342D02*
X382785713Y-239459580D01*
X382785713Y-239459580D02*
X382833332Y-239507200D01*
X382833332Y-239507200D02*
X382928570Y-239554819D01*
X382928570Y-239554819D02*
X383214284Y-239554819D01*
X383214284Y-239554819D02*
X383309522Y-239507200D01*
X383309522Y-239507200D02*
X383357141Y-239459580D01*
X413023809Y-238554819D02*
X412833333Y-238554819D01*
X412833333Y-238554819D02*
X412738095Y-238602438D01*
X412738095Y-238602438D02*
X412642857Y-238697676D01*
X412642857Y-238697676D02*
X412595238Y-238888152D01*
X412595238Y-238888152D02*
X412595238Y-239221485D01*
X412595238Y-239221485D02*
X412642857Y-239411961D01*
X412642857Y-239411961D02*
X412738095Y-239507200D01*
X412738095Y-239507200D02*
X412833333Y-239554819D01*
X412833333Y-239554819D02*
X413023809Y-239554819D01*
X413023809Y-239554819D02*
X413119047Y-239507200D01*
X413119047Y-239507200D02*
X413214285Y-239411961D01*
X413214285Y-239411961D02*
X413261904Y-239221485D01*
X413261904Y-239221485D02*
X413261904Y-238888152D01*
X413261904Y-238888152D02*
X413214285Y-238697676D01*
X413214285Y-238697676D02*
X413119047Y-238602438D01*
X413119047Y-238602438D02*
X413023809Y-238554819D01*
X411738095Y-238888152D02*
X411738095Y-239554819D01*
X412166666Y-238888152D02*
X412166666Y-239411961D01*
X412166666Y-239411961D02*
X412119047Y-239507200D01*
X412119047Y-239507200D02*
X412023809Y-239554819D01*
X412023809Y-239554819D02*
X411880952Y-239554819D01*
X411880952Y-239554819D02*
X411785714Y-239507200D01*
X411785714Y-239507200D02*
X411738095Y-239459580D01*
X411404761Y-238888152D02*
X411023809Y-238888152D01*
X411261904Y-238554819D02*
X411261904Y-239411961D01*
X411261904Y-239411961D02*
X411214285Y-239507200D01*
X411214285Y-239507200D02*
X411119047Y-239554819D01*
X411119047Y-239554819D02*
X411023809Y-239554819D01*
X410309523Y-239507200D02*
X410404761Y-239554819D01*
X410404761Y-239554819D02*
X410595237Y-239554819D01*
X410595237Y-239554819D02*
X410690475Y-239507200D01*
X410690475Y-239507200D02*
X410738094Y-239411961D01*
X410738094Y-239411961D02*
X410738094Y-239031009D01*
X410738094Y-239031009D02*
X410690475Y-238935771D01*
X410690475Y-238935771D02*
X410595237Y-238888152D01*
X410595237Y-238888152D02*
X410404761Y-238888152D01*
X410404761Y-238888152D02*
X410309523Y-238935771D01*
X410309523Y-238935771D02*
X410261904Y-239031009D01*
X410261904Y-239031009D02*
X410261904Y-239126247D01*
X410261904Y-239126247D02*
X410738094Y-239221485D01*
X409833332Y-239554819D02*
X409833332Y-238888152D01*
X409833332Y-239078628D02*
X409785713Y-238983390D01*
X409785713Y-238983390D02*
X409738094Y-238935771D01*
X409738094Y-238935771D02*
X409642856Y-238888152D01*
X409642856Y-238888152D02*
X409547618Y-238888152D01*
X409261903Y-238650057D02*
X409214284Y-238602438D01*
X409214284Y-238602438D02*
X409119046Y-238554819D01*
X409119046Y-238554819D02*
X408880951Y-238554819D01*
X408880951Y-238554819D02*
X408785713Y-238602438D01*
X408785713Y-238602438D02*
X408738094Y-238650057D01*
X408738094Y-238650057D02*
X408690475Y-238745295D01*
X408690475Y-238745295D02*
X408690475Y-238840533D01*
X408690475Y-238840533D02*
X408738094Y-238983390D01*
X408738094Y-238983390D02*
X409309522Y-239554819D01*
X409309522Y-239554819D02*
X408690475Y-239554819D01*
X407785713Y-238554819D02*
X408261903Y-238554819D01*
X408261903Y-238554819D02*
X408309522Y-239031009D01*
X408309522Y-239031009D02*
X408261903Y-238983390D01*
X408261903Y-238983390D02*
X408166665Y-238935771D01*
X408166665Y-238935771D02*
X407928570Y-238935771D01*
X407928570Y-238935771D02*
X407833332Y-238983390D01*
X407833332Y-238983390D02*
X407785713Y-239031009D01*
X407785713Y-239031009D02*
X407738094Y-239126247D01*
X407738094Y-239126247D02*
X407738094Y-239364342D01*
X407738094Y-239364342D02*
X407785713Y-239459580D01*
X407785713Y-239459580D02*
X407833332Y-239507200D01*
X407833332Y-239507200D02*
X407928570Y-239554819D01*
X407928570Y-239554819D02*
X408166665Y-239554819D01*
X408166665Y-239554819D02*
X408261903Y-239507200D01*
X408261903Y-239507200D02*
X408309522Y-239459580D01*
X400595237Y-232554819D02*
X400595237Y-231554819D01*
X400119047Y-231888152D02*
X400119047Y-232554819D01*
X400119047Y-231983390D02*
X400071428Y-231935771D01*
X400071428Y-231935771D02*
X399976190Y-231888152D01*
X399976190Y-231888152D02*
X399833333Y-231888152D01*
X399833333Y-231888152D02*
X399738095Y-231935771D01*
X399738095Y-231935771D02*
X399690476Y-232031009D01*
X399690476Y-232031009D02*
X399690476Y-232554819D01*
X399214285Y-231888152D02*
X399214285Y-232554819D01*
X399214285Y-231983390D02*
X399166666Y-231935771D01*
X399166666Y-231935771D02*
X399071428Y-231888152D01*
X399071428Y-231888152D02*
X398928571Y-231888152D01*
X398928571Y-231888152D02*
X398833333Y-231935771D01*
X398833333Y-231935771D02*
X398785714Y-232031009D01*
X398785714Y-232031009D02*
X398785714Y-232554819D01*
X397928571Y-232507200D02*
X398023809Y-232554819D01*
X398023809Y-232554819D02*
X398214285Y-232554819D01*
X398214285Y-232554819D02*
X398309523Y-232507200D01*
X398309523Y-232507200D02*
X398357142Y-232411961D01*
X398357142Y-232411961D02*
X398357142Y-232031009D01*
X398357142Y-232031009D02*
X398309523Y-231935771D01*
X398309523Y-231935771D02*
X398214285Y-231888152D01*
X398214285Y-231888152D02*
X398023809Y-231888152D01*
X398023809Y-231888152D02*
X397928571Y-231935771D01*
X397928571Y-231935771D02*
X397880952Y-232031009D01*
X397880952Y-232031009D02*
X397880952Y-232126247D01*
X397880952Y-232126247D02*
X398357142Y-232221485D01*
X397452380Y-232554819D02*
X397452380Y-231888152D01*
X397452380Y-232078628D02*
X397404761Y-231983390D01*
X397404761Y-231983390D02*
X397357142Y-231935771D01*
X397357142Y-231935771D02*
X397261904Y-231888152D01*
X397261904Y-231888152D02*
X397166666Y-231888152D01*
X396880951Y-231650057D02*
X396833332Y-231602438D01*
X396833332Y-231602438D02*
X396738094Y-231554819D01*
X396738094Y-231554819D02*
X396499999Y-231554819D01*
X396499999Y-231554819D02*
X396404761Y-231602438D01*
X396404761Y-231602438D02*
X396357142Y-231650057D01*
X396357142Y-231650057D02*
X396309523Y-231745295D01*
X396309523Y-231745295D02*
X396309523Y-231840533D01*
X396309523Y-231840533D02*
X396357142Y-231983390D01*
X396357142Y-231983390D02*
X396928570Y-232554819D01*
X396928570Y-232554819D02*
X396309523Y-232554819D01*
X395452380Y-231888152D02*
X395452380Y-232554819D01*
X395690475Y-231507200D02*
X395928570Y-232221485D01*
X395928570Y-232221485D02*
X395309523Y-232221485D01*
X250595237Y-232554819D02*
X250595237Y-231554819D01*
X250119047Y-231888152D02*
X250119047Y-232554819D01*
X250119047Y-231983390D02*
X250071428Y-231935771D01*
X250071428Y-231935771D02*
X249976190Y-231888152D01*
X249976190Y-231888152D02*
X249833333Y-231888152D01*
X249833333Y-231888152D02*
X249738095Y-231935771D01*
X249738095Y-231935771D02*
X249690476Y-232031009D01*
X249690476Y-232031009D02*
X249690476Y-232554819D01*
X249214285Y-231888152D02*
X249214285Y-232554819D01*
X249214285Y-231983390D02*
X249166666Y-231935771D01*
X249166666Y-231935771D02*
X249071428Y-231888152D01*
X249071428Y-231888152D02*
X248928571Y-231888152D01*
X248928571Y-231888152D02*
X248833333Y-231935771D01*
X248833333Y-231935771D02*
X248785714Y-232031009D01*
X248785714Y-232031009D02*
X248785714Y-232554819D01*
X247928571Y-232507200D02*
X248023809Y-232554819D01*
X248023809Y-232554819D02*
X248214285Y-232554819D01*
X248214285Y-232554819D02*
X248309523Y-232507200D01*
X248309523Y-232507200D02*
X248357142Y-232411961D01*
X248357142Y-232411961D02*
X248357142Y-232031009D01*
X248357142Y-232031009D02*
X248309523Y-231935771D01*
X248309523Y-231935771D02*
X248214285Y-231888152D01*
X248214285Y-231888152D02*
X248023809Y-231888152D01*
X248023809Y-231888152D02*
X247928571Y-231935771D01*
X247928571Y-231935771D02*
X247880952Y-232031009D01*
X247880952Y-232031009D02*
X247880952Y-232126247D01*
X247880952Y-232126247D02*
X248357142Y-232221485D01*
X247452380Y-232554819D02*
X247452380Y-231888152D01*
X247452380Y-232078628D02*
X247404761Y-231983390D01*
X247404761Y-231983390D02*
X247357142Y-231935771D01*
X247357142Y-231935771D02*
X247261904Y-231888152D01*
X247261904Y-231888152D02*
X247166666Y-231888152D01*
X246309523Y-232554819D02*
X246880951Y-232554819D01*
X246595237Y-232554819D02*
X246595237Y-231554819D01*
X246595237Y-231554819D02*
X246690475Y-231697676D01*
X246690475Y-231697676D02*
X246785713Y-231792914D01*
X246785713Y-231792914D02*
X246880951Y-231840533D01*
X245690475Y-231554819D02*
X245595237Y-231554819D01*
X245595237Y-231554819D02*
X245499999Y-231602438D01*
X245499999Y-231602438D02*
X245452380Y-231650057D01*
X245452380Y-231650057D02*
X245404761Y-231745295D01*
X245404761Y-231745295D02*
X245357142Y-231935771D01*
X245357142Y-231935771D02*
X245357142Y-232173866D01*
X245357142Y-232173866D02*
X245404761Y-232364342D01*
X245404761Y-232364342D02*
X245452380Y-232459580D01*
X245452380Y-232459580D02*
X245499999Y-232507200D01*
X245499999Y-232507200D02*
X245595237Y-232554819D01*
X245595237Y-232554819D02*
X245690475Y-232554819D01*
X245690475Y-232554819D02*
X245785713Y-232507200D01*
X245785713Y-232507200D02*
X245833332Y-232459580D01*
X245833332Y-232459580D02*
X245880951Y-232364342D01*
X245880951Y-232364342D02*
X245928570Y-232173866D01*
X245928570Y-232173866D02*
X245928570Y-231935771D01*
X245928570Y-231935771D02*
X245880951Y-231745295D01*
X245880951Y-231745295D02*
X245833332Y-231650057D01*
X245833332Y-231650057D02*
X245785713Y-231602438D01*
X245785713Y-231602438D02*
X245690475Y-231554819D01*
X288023809Y-238554819D02*
X287833333Y-238554819D01*
X287833333Y-238554819D02*
X287738095Y-238602438D01*
X287738095Y-238602438D02*
X287642857Y-238697676D01*
X287642857Y-238697676D02*
X287595238Y-238888152D01*
X287595238Y-238888152D02*
X287595238Y-239221485D01*
X287595238Y-239221485D02*
X287642857Y-239411961D01*
X287642857Y-239411961D02*
X287738095Y-239507200D01*
X287738095Y-239507200D02*
X287833333Y-239554819D01*
X287833333Y-239554819D02*
X288023809Y-239554819D01*
X288023809Y-239554819D02*
X288119047Y-239507200D01*
X288119047Y-239507200D02*
X288214285Y-239411961D01*
X288214285Y-239411961D02*
X288261904Y-239221485D01*
X288261904Y-239221485D02*
X288261904Y-238888152D01*
X288261904Y-238888152D02*
X288214285Y-238697676D01*
X288214285Y-238697676D02*
X288119047Y-238602438D01*
X288119047Y-238602438D02*
X288023809Y-238554819D01*
X286738095Y-238888152D02*
X286738095Y-239554819D01*
X287166666Y-238888152D02*
X287166666Y-239411961D01*
X287166666Y-239411961D02*
X287119047Y-239507200D01*
X287119047Y-239507200D02*
X287023809Y-239554819D01*
X287023809Y-239554819D02*
X286880952Y-239554819D01*
X286880952Y-239554819D02*
X286785714Y-239507200D01*
X286785714Y-239507200D02*
X286738095Y-239459580D01*
X286404761Y-238888152D02*
X286023809Y-238888152D01*
X286261904Y-238554819D02*
X286261904Y-239411961D01*
X286261904Y-239411961D02*
X286214285Y-239507200D01*
X286214285Y-239507200D02*
X286119047Y-239554819D01*
X286119047Y-239554819D02*
X286023809Y-239554819D01*
X285309523Y-239507200D02*
X285404761Y-239554819D01*
X285404761Y-239554819D02*
X285595237Y-239554819D01*
X285595237Y-239554819D02*
X285690475Y-239507200D01*
X285690475Y-239507200D02*
X285738094Y-239411961D01*
X285738094Y-239411961D02*
X285738094Y-239031009D01*
X285738094Y-239031009D02*
X285690475Y-238935771D01*
X285690475Y-238935771D02*
X285595237Y-238888152D01*
X285595237Y-238888152D02*
X285404761Y-238888152D01*
X285404761Y-238888152D02*
X285309523Y-238935771D01*
X285309523Y-238935771D02*
X285261904Y-239031009D01*
X285261904Y-239031009D02*
X285261904Y-239126247D01*
X285261904Y-239126247D02*
X285738094Y-239221485D01*
X284833332Y-239554819D02*
X284833332Y-238888152D01*
X284833332Y-239078628D02*
X284785713Y-238983390D01*
X284785713Y-238983390D02*
X284738094Y-238935771D01*
X284738094Y-238935771D02*
X284642856Y-238888152D01*
X284642856Y-238888152D02*
X284547618Y-238888152D01*
X283690475Y-239554819D02*
X284261903Y-239554819D01*
X283976189Y-239554819D02*
X283976189Y-238554819D01*
X283976189Y-238554819D02*
X284071427Y-238697676D01*
X284071427Y-238697676D02*
X284166665Y-238792914D01*
X284166665Y-238792914D02*
X284261903Y-238840533D01*
X283357141Y-238554819D02*
X282738094Y-238554819D01*
X282738094Y-238554819D02*
X283071427Y-238935771D01*
X283071427Y-238935771D02*
X282928570Y-238935771D01*
X282928570Y-238935771D02*
X282833332Y-238983390D01*
X282833332Y-238983390D02*
X282785713Y-239031009D01*
X282785713Y-239031009D02*
X282738094Y-239126247D01*
X282738094Y-239126247D02*
X282738094Y-239364342D01*
X282738094Y-239364342D02*
X282785713Y-239459580D01*
X282785713Y-239459580D02*
X282833332Y-239507200D01*
X282833332Y-239507200D02*
X282928570Y-239554819D01*
X282928570Y-239554819D02*
X283214284Y-239554819D01*
X283214284Y-239554819D02*
X283309522Y-239507200D01*
X283309522Y-239507200D02*
X283357141Y-239459580D01*
X213023809Y-238554819D02*
X212833333Y-238554819D01*
X212833333Y-238554819D02*
X212738095Y-238602438D01*
X212738095Y-238602438D02*
X212642857Y-238697676D01*
X212642857Y-238697676D02*
X212595238Y-238888152D01*
X212595238Y-238888152D02*
X212595238Y-239221485D01*
X212595238Y-239221485D02*
X212642857Y-239411961D01*
X212642857Y-239411961D02*
X212738095Y-239507200D01*
X212738095Y-239507200D02*
X212833333Y-239554819D01*
X212833333Y-239554819D02*
X213023809Y-239554819D01*
X213023809Y-239554819D02*
X213119047Y-239507200D01*
X213119047Y-239507200D02*
X213214285Y-239411961D01*
X213214285Y-239411961D02*
X213261904Y-239221485D01*
X213261904Y-239221485D02*
X213261904Y-238888152D01*
X213261904Y-238888152D02*
X213214285Y-238697676D01*
X213214285Y-238697676D02*
X213119047Y-238602438D01*
X213119047Y-238602438D02*
X213023809Y-238554819D01*
X211738095Y-238888152D02*
X211738095Y-239554819D01*
X212166666Y-238888152D02*
X212166666Y-239411961D01*
X212166666Y-239411961D02*
X212119047Y-239507200D01*
X212119047Y-239507200D02*
X212023809Y-239554819D01*
X212023809Y-239554819D02*
X211880952Y-239554819D01*
X211880952Y-239554819D02*
X211785714Y-239507200D01*
X211785714Y-239507200D02*
X211738095Y-239459580D01*
X211404761Y-238888152D02*
X211023809Y-238888152D01*
X211261904Y-238554819D02*
X211261904Y-239411961D01*
X211261904Y-239411961D02*
X211214285Y-239507200D01*
X211214285Y-239507200D02*
X211119047Y-239554819D01*
X211119047Y-239554819D02*
X211023809Y-239554819D01*
X210309523Y-239507200D02*
X210404761Y-239554819D01*
X210404761Y-239554819D02*
X210595237Y-239554819D01*
X210595237Y-239554819D02*
X210690475Y-239507200D01*
X210690475Y-239507200D02*
X210738094Y-239411961D01*
X210738094Y-239411961D02*
X210738094Y-239031009D01*
X210738094Y-239031009D02*
X210690475Y-238935771D01*
X210690475Y-238935771D02*
X210595237Y-238888152D01*
X210595237Y-238888152D02*
X210404761Y-238888152D01*
X210404761Y-238888152D02*
X210309523Y-238935771D01*
X210309523Y-238935771D02*
X210261904Y-239031009D01*
X210261904Y-239031009D02*
X210261904Y-239126247D01*
X210261904Y-239126247D02*
X210738094Y-239221485D01*
X209833332Y-239554819D02*
X209833332Y-238888152D01*
X209833332Y-239078628D02*
X209785713Y-238983390D01*
X209785713Y-238983390D02*
X209738094Y-238935771D01*
X209738094Y-238935771D02*
X209642856Y-238888152D01*
X209642856Y-238888152D02*
X209547618Y-238888152D01*
X209023808Y-238554819D02*
X208928570Y-238554819D01*
X208928570Y-238554819D02*
X208833332Y-238602438D01*
X208833332Y-238602438D02*
X208785713Y-238650057D01*
X208785713Y-238650057D02*
X208738094Y-238745295D01*
X208738094Y-238745295D02*
X208690475Y-238935771D01*
X208690475Y-238935771D02*
X208690475Y-239173866D01*
X208690475Y-239173866D02*
X208738094Y-239364342D01*
X208738094Y-239364342D02*
X208785713Y-239459580D01*
X208785713Y-239459580D02*
X208833332Y-239507200D01*
X208833332Y-239507200D02*
X208928570Y-239554819D01*
X208928570Y-239554819D02*
X209023808Y-239554819D01*
X209023808Y-239554819D02*
X209119046Y-239507200D01*
X209119046Y-239507200D02*
X209166665Y-239459580D01*
X209166665Y-239459580D02*
X209214284Y-239364342D01*
X209214284Y-239364342D02*
X209261903Y-239173866D01*
X209261903Y-239173866D02*
X209261903Y-238935771D01*
X209261903Y-238935771D02*
X209214284Y-238745295D01*
X209214284Y-238745295D02*
X209166665Y-238650057D01*
X209166665Y-238650057D02*
X209119046Y-238602438D01*
X209119046Y-238602438D02*
X209023808Y-238554819D01*
X207785713Y-238554819D02*
X208261903Y-238554819D01*
X208261903Y-238554819D02*
X208309522Y-239031009D01*
X208309522Y-239031009D02*
X208261903Y-238983390D01*
X208261903Y-238983390D02*
X208166665Y-238935771D01*
X208166665Y-238935771D02*
X207928570Y-238935771D01*
X207928570Y-238935771D02*
X207833332Y-238983390D01*
X207833332Y-238983390D02*
X207785713Y-239031009D01*
X207785713Y-239031009D02*
X207738094Y-239126247D01*
X207738094Y-239126247D02*
X207738094Y-239364342D01*
X207738094Y-239364342D02*
X207785713Y-239459580D01*
X207785713Y-239459580D02*
X207833332Y-239507200D01*
X207833332Y-239507200D02*
X207928570Y-239554819D01*
X207928570Y-239554819D02*
X208166665Y-239554819D01*
X208166665Y-239554819D02*
X208261903Y-239507200D01*
X208261903Y-239507200D02*
X208309522Y-239459580D01*
X263095237Y-232554819D02*
X263095237Y-231554819D01*
X262619047Y-231888152D02*
X262619047Y-232554819D01*
X262619047Y-231983390D02*
X262571428Y-231935771D01*
X262571428Y-231935771D02*
X262476190Y-231888152D01*
X262476190Y-231888152D02*
X262333333Y-231888152D01*
X262333333Y-231888152D02*
X262238095Y-231935771D01*
X262238095Y-231935771D02*
X262190476Y-232031009D01*
X262190476Y-232031009D02*
X262190476Y-232554819D01*
X261714285Y-231888152D02*
X261714285Y-232554819D01*
X261714285Y-231983390D02*
X261666666Y-231935771D01*
X261666666Y-231935771D02*
X261571428Y-231888152D01*
X261571428Y-231888152D02*
X261428571Y-231888152D01*
X261428571Y-231888152D02*
X261333333Y-231935771D01*
X261333333Y-231935771D02*
X261285714Y-232031009D01*
X261285714Y-232031009D02*
X261285714Y-232554819D01*
X260428571Y-232507200D02*
X260523809Y-232554819D01*
X260523809Y-232554819D02*
X260714285Y-232554819D01*
X260714285Y-232554819D02*
X260809523Y-232507200D01*
X260809523Y-232507200D02*
X260857142Y-232411961D01*
X260857142Y-232411961D02*
X260857142Y-232031009D01*
X260857142Y-232031009D02*
X260809523Y-231935771D01*
X260809523Y-231935771D02*
X260714285Y-231888152D01*
X260714285Y-231888152D02*
X260523809Y-231888152D01*
X260523809Y-231888152D02*
X260428571Y-231935771D01*
X260428571Y-231935771D02*
X260380952Y-232031009D01*
X260380952Y-232031009D02*
X260380952Y-232126247D01*
X260380952Y-232126247D02*
X260857142Y-232221485D01*
X259952380Y-232554819D02*
X259952380Y-231888152D01*
X259952380Y-232078628D02*
X259904761Y-231983390D01*
X259904761Y-231983390D02*
X259857142Y-231935771D01*
X259857142Y-231935771D02*
X259761904Y-231888152D01*
X259761904Y-231888152D02*
X259666666Y-231888152D01*
X258809523Y-232554819D02*
X259380951Y-232554819D01*
X259095237Y-232554819D02*
X259095237Y-231554819D01*
X259095237Y-231554819D02*
X259190475Y-231697676D01*
X259190475Y-231697676D02*
X259285713Y-231792914D01*
X259285713Y-231792914D02*
X259380951Y-231840533D01*
X257857142Y-232554819D02*
X258428570Y-232554819D01*
X258142856Y-232554819D02*
X258142856Y-231554819D01*
X258142856Y-231554819D02*
X258238094Y-231697676D01*
X258238094Y-231697676D02*
X258333332Y-231792914D01*
X258333332Y-231792914D02*
X258428570Y-231840533D01*
X175595237Y-232554819D02*
X175595237Y-231554819D01*
X175119047Y-231888152D02*
X175119047Y-232554819D01*
X175119047Y-231983390D02*
X175071428Y-231935771D01*
X175071428Y-231935771D02*
X174976190Y-231888152D01*
X174976190Y-231888152D02*
X174833333Y-231888152D01*
X174833333Y-231888152D02*
X174738095Y-231935771D01*
X174738095Y-231935771D02*
X174690476Y-232031009D01*
X174690476Y-232031009D02*
X174690476Y-232554819D01*
X174214285Y-231888152D02*
X174214285Y-232554819D01*
X174214285Y-231983390D02*
X174166666Y-231935771D01*
X174166666Y-231935771D02*
X174071428Y-231888152D01*
X174071428Y-231888152D02*
X173928571Y-231888152D01*
X173928571Y-231888152D02*
X173833333Y-231935771D01*
X173833333Y-231935771D02*
X173785714Y-232031009D01*
X173785714Y-232031009D02*
X173785714Y-232554819D01*
X172928571Y-232507200D02*
X173023809Y-232554819D01*
X173023809Y-232554819D02*
X173214285Y-232554819D01*
X173214285Y-232554819D02*
X173309523Y-232507200D01*
X173309523Y-232507200D02*
X173357142Y-232411961D01*
X173357142Y-232411961D02*
X173357142Y-232031009D01*
X173357142Y-232031009D02*
X173309523Y-231935771D01*
X173309523Y-231935771D02*
X173214285Y-231888152D01*
X173214285Y-231888152D02*
X173023809Y-231888152D01*
X173023809Y-231888152D02*
X172928571Y-231935771D01*
X172928571Y-231935771D02*
X172880952Y-232031009D01*
X172880952Y-232031009D02*
X172880952Y-232126247D01*
X172880952Y-232126247D02*
X173357142Y-232221485D01*
X172452380Y-232554819D02*
X172452380Y-231888152D01*
X172452380Y-232078628D02*
X172404761Y-231983390D01*
X172404761Y-231983390D02*
X172357142Y-231935771D01*
X172357142Y-231935771D02*
X172261904Y-231888152D01*
X172261904Y-231888152D02*
X172166666Y-231888152D01*
X171642856Y-231554819D02*
X171547618Y-231554819D01*
X171547618Y-231554819D02*
X171452380Y-231602438D01*
X171452380Y-231602438D02*
X171404761Y-231650057D01*
X171404761Y-231650057D02*
X171357142Y-231745295D01*
X171357142Y-231745295D02*
X171309523Y-231935771D01*
X171309523Y-231935771D02*
X171309523Y-232173866D01*
X171309523Y-232173866D02*
X171357142Y-232364342D01*
X171357142Y-232364342D02*
X171404761Y-232459580D01*
X171404761Y-232459580D02*
X171452380Y-232507200D01*
X171452380Y-232507200D02*
X171547618Y-232554819D01*
X171547618Y-232554819D02*
X171642856Y-232554819D01*
X171642856Y-232554819D02*
X171738094Y-232507200D01*
X171738094Y-232507200D02*
X171785713Y-232459580D01*
X171785713Y-232459580D02*
X171833332Y-232364342D01*
X171833332Y-232364342D02*
X171880951Y-232173866D01*
X171880951Y-232173866D02*
X171880951Y-231935771D01*
X171880951Y-231935771D02*
X171833332Y-231745295D01*
X171833332Y-231745295D02*
X171785713Y-231650057D01*
X171785713Y-231650057D02*
X171738094Y-231602438D01*
X171738094Y-231602438D02*
X171642856Y-231554819D01*
X170928570Y-231650057D02*
X170880951Y-231602438D01*
X170880951Y-231602438D02*
X170785713Y-231554819D01*
X170785713Y-231554819D02*
X170547618Y-231554819D01*
X170547618Y-231554819D02*
X170452380Y-231602438D01*
X170452380Y-231602438D02*
X170404761Y-231650057D01*
X170404761Y-231650057D02*
X170357142Y-231745295D01*
X170357142Y-231745295D02*
X170357142Y-231840533D01*
X170357142Y-231840533D02*
X170404761Y-231983390D01*
X170404761Y-231983390D02*
X170976189Y-232554819D01*
X170976189Y-232554819D02*
X170357142Y-232554819D01*
X400523809Y-238554819D02*
X400333333Y-238554819D01*
X400333333Y-238554819D02*
X400238095Y-238602438D01*
X400238095Y-238602438D02*
X400142857Y-238697676D01*
X400142857Y-238697676D02*
X400095238Y-238888152D01*
X400095238Y-238888152D02*
X400095238Y-239221485D01*
X400095238Y-239221485D02*
X400142857Y-239411961D01*
X400142857Y-239411961D02*
X400238095Y-239507200D01*
X400238095Y-239507200D02*
X400333333Y-239554819D01*
X400333333Y-239554819D02*
X400523809Y-239554819D01*
X400523809Y-239554819D02*
X400619047Y-239507200D01*
X400619047Y-239507200D02*
X400714285Y-239411961D01*
X400714285Y-239411961D02*
X400761904Y-239221485D01*
X400761904Y-239221485D02*
X400761904Y-238888152D01*
X400761904Y-238888152D02*
X400714285Y-238697676D01*
X400714285Y-238697676D02*
X400619047Y-238602438D01*
X400619047Y-238602438D02*
X400523809Y-238554819D01*
X399238095Y-238888152D02*
X399238095Y-239554819D01*
X399666666Y-238888152D02*
X399666666Y-239411961D01*
X399666666Y-239411961D02*
X399619047Y-239507200D01*
X399619047Y-239507200D02*
X399523809Y-239554819D01*
X399523809Y-239554819D02*
X399380952Y-239554819D01*
X399380952Y-239554819D02*
X399285714Y-239507200D01*
X399285714Y-239507200D02*
X399238095Y-239459580D01*
X398904761Y-238888152D02*
X398523809Y-238888152D01*
X398761904Y-238554819D02*
X398761904Y-239411961D01*
X398761904Y-239411961D02*
X398714285Y-239507200D01*
X398714285Y-239507200D02*
X398619047Y-239554819D01*
X398619047Y-239554819D02*
X398523809Y-239554819D01*
X397809523Y-239507200D02*
X397904761Y-239554819D01*
X397904761Y-239554819D02*
X398095237Y-239554819D01*
X398095237Y-239554819D02*
X398190475Y-239507200D01*
X398190475Y-239507200D02*
X398238094Y-239411961D01*
X398238094Y-239411961D02*
X398238094Y-239031009D01*
X398238094Y-239031009D02*
X398190475Y-238935771D01*
X398190475Y-238935771D02*
X398095237Y-238888152D01*
X398095237Y-238888152D02*
X397904761Y-238888152D01*
X397904761Y-238888152D02*
X397809523Y-238935771D01*
X397809523Y-238935771D02*
X397761904Y-239031009D01*
X397761904Y-239031009D02*
X397761904Y-239126247D01*
X397761904Y-239126247D02*
X398238094Y-239221485D01*
X397333332Y-239554819D02*
X397333332Y-238888152D01*
X397333332Y-239078628D02*
X397285713Y-238983390D01*
X397285713Y-238983390D02*
X397238094Y-238935771D01*
X397238094Y-238935771D02*
X397142856Y-238888152D01*
X397142856Y-238888152D02*
X397047618Y-238888152D01*
X396761903Y-238650057D02*
X396714284Y-238602438D01*
X396714284Y-238602438D02*
X396619046Y-238554819D01*
X396619046Y-238554819D02*
X396380951Y-238554819D01*
X396380951Y-238554819D02*
X396285713Y-238602438D01*
X396285713Y-238602438D02*
X396238094Y-238650057D01*
X396238094Y-238650057D02*
X396190475Y-238745295D01*
X396190475Y-238745295D02*
X396190475Y-238840533D01*
X396190475Y-238840533D02*
X396238094Y-238983390D01*
X396238094Y-238983390D02*
X396809522Y-239554819D01*
X396809522Y-239554819D02*
X396190475Y-239554819D01*
X395333332Y-238888152D02*
X395333332Y-239554819D01*
X395571427Y-238507200D02*
X395809522Y-239221485D01*
X395809522Y-239221485D02*
X395190475Y-239221485D01*
X188023809Y-238554819D02*
X187833333Y-238554819D01*
X187833333Y-238554819D02*
X187738095Y-238602438D01*
X187738095Y-238602438D02*
X187642857Y-238697676D01*
X187642857Y-238697676D02*
X187595238Y-238888152D01*
X187595238Y-238888152D02*
X187595238Y-239221485D01*
X187595238Y-239221485D02*
X187642857Y-239411961D01*
X187642857Y-239411961D02*
X187738095Y-239507200D01*
X187738095Y-239507200D02*
X187833333Y-239554819D01*
X187833333Y-239554819D02*
X188023809Y-239554819D01*
X188023809Y-239554819D02*
X188119047Y-239507200D01*
X188119047Y-239507200D02*
X188214285Y-239411961D01*
X188214285Y-239411961D02*
X188261904Y-239221485D01*
X188261904Y-239221485D02*
X188261904Y-238888152D01*
X188261904Y-238888152D02*
X188214285Y-238697676D01*
X188214285Y-238697676D02*
X188119047Y-238602438D01*
X188119047Y-238602438D02*
X188023809Y-238554819D01*
X186738095Y-238888152D02*
X186738095Y-239554819D01*
X187166666Y-238888152D02*
X187166666Y-239411961D01*
X187166666Y-239411961D02*
X187119047Y-239507200D01*
X187119047Y-239507200D02*
X187023809Y-239554819D01*
X187023809Y-239554819D02*
X186880952Y-239554819D01*
X186880952Y-239554819D02*
X186785714Y-239507200D01*
X186785714Y-239507200D02*
X186738095Y-239459580D01*
X186404761Y-238888152D02*
X186023809Y-238888152D01*
X186261904Y-238554819D02*
X186261904Y-239411961D01*
X186261904Y-239411961D02*
X186214285Y-239507200D01*
X186214285Y-239507200D02*
X186119047Y-239554819D01*
X186119047Y-239554819D02*
X186023809Y-239554819D01*
X185309523Y-239507200D02*
X185404761Y-239554819D01*
X185404761Y-239554819D02*
X185595237Y-239554819D01*
X185595237Y-239554819D02*
X185690475Y-239507200D01*
X185690475Y-239507200D02*
X185738094Y-239411961D01*
X185738094Y-239411961D02*
X185738094Y-239031009D01*
X185738094Y-239031009D02*
X185690475Y-238935771D01*
X185690475Y-238935771D02*
X185595237Y-238888152D01*
X185595237Y-238888152D02*
X185404761Y-238888152D01*
X185404761Y-238888152D02*
X185309523Y-238935771D01*
X185309523Y-238935771D02*
X185261904Y-239031009D01*
X185261904Y-239031009D02*
X185261904Y-239126247D01*
X185261904Y-239126247D02*
X185738094Y-239221485D01*
X184833332Y-239554819D02*
X184833332Y-238888152D01*
X184833332Y-239078628D02*
X184785713Y-238983390D01*
X184785713Y-238983390D02*
X184738094Y-238935771D01*
X184738094Y-238935771D02*
X184642856Y-238888152D01*
X184642856Y-238888152D02*
X184547618Y-238888152D01*
X184023808Y-238554819D02*
X183928570Y-238554819D01*
X183928570Y-238554819D02*
X183833332Y-238602438D01*
X183833332Y-238602438D02*
X183785713Y-238650057D01*
X183785713Y-238650057D02*
X183738094Y-238745295D01*
X183738094Y-238745295D02*
X183690475Y-238935771D01*
X183690475Y-238935771D02*
X183690475Y-239173866D01*
X183690475Y-239173866D02*
X183738094Y-239364342D01*
X183738094Y-239364342D02*
X183785713Y-239459580D01*
X183785713Y-239459580D02*
X183833332Y-239507200D01*
X183833332Y-239507200D02*
X183928570Y-239554819D01*
X183928570Y-239554819D02*
X184023808Y-239554819D01*
X184023808Y-239554819D02*
X184119046Y-239507200D01*
X184119046Y-239507200D02*
X184166665Y-239459580D01*
X184166665Y-239459580D02*
X184214284Y-239364342D01*
X184214284Y-239364342D02*
X184261903Y-239173866D01*
X184261903Y-239173866D02*
X184261903Y-238935771D01*
X184261903Y-238935771D02*
X184214284Y-238745295D01*
X184214284Y-238745295D02*
X184166665Y-238650057D01*
X184166665Y-238650057D02*
X184119046Y-238602438D01*
X184119046Y-238602438D02*
X184023808Y-238554819D01*
X183357141Y-238554819D02*
X182738094Y-238554819D01*
X182738094Y-238554819D02*
X183071427Y-238935771D01*
X183071427Y-238935771D02*
X182928570Y-238935771D01*
X182928570Y-238935771D02*
X182833332Y-238983390D01*
X182833332Y-238983390D02*
X182785713Y-239031009D01*
X182785713Y-239031009D02*
X182738094Y-239126247D01*
X182738094Y-239126247D02*
X182738094Y-239364342D01*
X182738094Y-239364342D02*
X182785713Y-239459580D01*
X182785713Y-239459580D02*
X182833332Y-239507200D01*
X182833332Y-239507200D02*
X182928570Y-239554819D01*
X182928570Y-239554819D02*
X183214284Y-239554819D01*
X183214284Y-239554819D02*
X183309522Y-239507200D01*
X183309522Y-239507200D02*
X183357141Y-239459580D01*
X375523809Y-238554819D02*
X375333333Y-238554819D01*
X375333333Y-238554819D02*
X375238095Y-238602438D01*
X375238095Y-238602438D02*
X375142857Y-238697676D01*
X375142857Y-238697676D02*
X375095238Y-238888152D01*
X375095238Y-238888152D02*
X375095238Y-239221485D01*
X375095238Y-239221485D02*
X375142857Y-239411961D01*
X375142857Y-239411961D02*
X375238095Y-239507200D01*
X375238095Y-239507200D02*
X375333333Y-239554819D01*
X375333333Y-239554819D02*
X375523809Y-239554819D01*
X375523809Y-239554819D02*
X375619047Y-239507200D01*
X375619047Y-239507200D02*
X375714285Y-239411961D01*
X375714285Y-239411961D02*
X375761904Y-239221485D01*
X375761904Y-239221485D02*
X375761904Y-238888152D01*
X375761904Y-238888152D02*
X375714285Y-238697676D01*
X375714285Y-238697676D02*
X375619047Y-238602438D01*
X375619047Y-238602438D02*
X375523809Y-238554819D01*
X374238095Y-238888152D02*
X374238095Y-239554819D01*
X374666666Y-238888152D02*
X374666666Y-239411961D01*
X374666666Y-239411961D02*
X374619047Y-239507200D01*
X374619047Y-239507200D02*
X374523809Y-239554819D01*
X374523809Y-239554819D02*
X374380952Y-239554819D01*
X374380952Y-239554819D02*
X374285714Y-239507200D01*
X374285714Y-239507200D02*
X374238095Y-239459580D01*
X373904761Y-238888152D02*
X373523809Y-238888152D01*
X373761904Y-238554819D02*
X373761904Y-239411961D01*
X373761904Y-239411961D02*
X373714285Y-239507200D01*
X373714285Y-239507200D02*
X373619047Y-239554819D01*
X373619047Y-239554819D02*
X373523809Y-239554819D01*
X372809523Y-239507200D02*
X372904761Y-239554819D01*
X372904761Y-239554819D02*
X373095237Y-239554819D01*
X373095237Y-239554819D02*
X373190475Y-239507200D01*
X373190475Y-239507200D02*
X373238094Y-239411961D01*
X373238094Y-239411961D02*
X373238094Y-239031009D01*
X373238094Y-239031009D02*
X373190475Y-238935771D01*
X373190475Y-238935771D02*
X373095237Y-238888152D01*
X373095237Y-238888152D02*
X372904761Y-238888152D01*
X372904761Y-238888152D02*
X372809523Y-238935771D01*
X372809523Y-238935771D02*
X372761904Y-239031009D01*
X372761904Y-239031009D02*
X372761904Y-239126247D01*
X372761904Y-239126247D02*
X373238094Y-239221485D01*
X372333332Y-239554819D02*
X372333332Y-238888152D01*
X372333332Y-239078628D02*
X372285713Y-238983390D01*
X372285713Y-238983390D02*
X372238094Y-238935771D01*
X372238094Y-238935771D02*
X372142856Y-238888152D01*
X372142856Y-238888152D02*
X372047618Y-238888152D01*
X371761903Y-238650057D02*
X371714284Y-238602438D01*
X371714284Y-238602438D02*
X371619046Y-238554819D01*
X371619046Y-238554819D02*
X371380951Y-238554819D01*
X371380951Y-238554819D02*
X371285713Y-238602438D01*
X371285713Y-238602438D02*
X371238094Y-238650057D01*
X371238094Y-238650057D02*
X371190475Y-238745295D01*
X371190475Y-238745295D02*
X371190475Y-238840533D01*
X371190475Y-238840533D02*
X371238094Y-238983390D01*
X371238094Y-238983390D02*
X371809522Y-239554819D01*
X371809522Y-239554819D02*
X371190475Y-239554819D01*
X370809522Y-238650057D02*
X370761903Y-238602438D01*
X370761903Y-238602438D02*
X370666665Y-238554819D01*
X370666665Y-238554819D02*
X370428570Y-238554819D01*
X370428570Y-238554819D02*
X370333332Y-238602438D01*
X370333332Y-238602438D02*
X370285713Y-238650057D01*
X370285713Y-238650057D02*
X370238094Y-238745295D01*
X370238094Y-238745295D02*
X370238094Y-238840533D01*
X370238094Y-238840533D02*
X370285713Y-238983390D01*
X370285713Y-238983390D02*
X370857141Y-239554819D01*
X370857141Y-239554819D02*
X370238094Y-239554819D01*
X150595237Y-232554819D02*
X150595237Y-231554819D01*
X150119047Y-231888152D02*
X150119047Y-232554819D01*
X150119047Y-231983390D02*
X150071428Y-231935771D01*
X150071428Y-231935771D02*
X149976190Y-231888152D01*
X149976190Y-231888152D02*
X149833333Y-231888152D01*
X149833333Y-231888152D02*
X149738095Y-231935771D01*
X149738095Y-231935771D02*
X149690476Y-232031009D01*
X149690476Y-232031009D02*
X149690476Y-232554819D01*
X149214285Y-231888152D02*
X149214285Y-232554819D01*
X149214285Y-231983390D02*
X149166666Y-231935771D01*
X149166666Y-231935771D02*
X149071428Y-231888152D01*
X149071428Y-231888152D02*
X148928571Y-231888152D01*
X148928571Y-231888152D02*
X148833333Y-231935771D01*
X148833333Y-231935771D02*
X148785714Y-232031009D01*
X148785714Y-232031009D02*
X148785714Y-232554819D01*
X147928571Y-232507200D02*
X148023809Y-232554819D01*
X148023809Y-232554819D02*
X148214285Y-232554819D01*
X148214285Y-232554819D02*
X148309523Y-232507200D01*
X148309523Y-232507200D02*
X148357142Y-232411961D01*
X148357142Y-232411961D02*
X148357142Y-232031009D01*
X148357142Y-232031009D02*
X148309523Y-231935771D01*
X148309523Y-231935771D02*
X148214285Y-231888152D01*
X148214285Y-231888152D02*
X148023809Y-231888152D01*
X148023809Y-231888152D02*
X147928571Y-231935771D01*
X147928571Y-231935771D02*
X147880952Y-232031009D01*
X147880952Y-232031009D02*
X147880952Y-232126247D01*
X147880952Y-232126247D02*
X148357142Y-232221485D01*
X147452380Y-232554819D02*
X147452380Y-231888152D01*
X147452380Y-232078628D02*
X147404761Y-231983390D01*
X147404761Y-231983390D02*
X147357142Y-231935771D01*
X147357142Y-231935771D02*
X147261904Y-231888152D01*
X147261904Y-231888152D02*
X147166666Y-231888152D01*
X146642856Y-231554819D02*
X146547618Y-231554819D01*
X146547618Y-231554819D02*
X146452380Y-231602438D01*
X146452380Y-231602438D02*
X146404761Y-231650057D01*
X146404761Y-231650057D02*
X146357142Y-231745295D01*
X146357142Y-231745295D02*
X146309523Y-231935771D01*
X146309523Y-231935771D02*
X146309523Y-232173866D01*
X146309523Y-232173866D02*
X146357142Y-232364342D01*
X146357142Y-232364342D02*
X146404761Y-232459580D01*
X146404761Y-232459580D02*
X146452380Y-232507200D01*
X146452380Y-232507200D02*
X146547618Y-232554819D01*
X146547618Y-232554819D02*
X146642856Y-232554819D01*
X146642856Y-232554819D02*
X146738094Y-232507200D01*
X146738094Y-232507200D02*
X146785713Y-232459580D01*
X146785713Y-232459580D02*
X146833332Y-232364342D01*
X146833332Y-232364342D02*
X146880951Y-232173866D01*
X146880951Y-232173866D02*
X146880951Y-231935771D01*
X146880951Y-231935771D02*
X146833332Y-231745295D01*
X146833332Y-231745295D02*
X146785713Y-231650057D01*
X146785713Y-231650057D02*
X146738094Y-231602438D01*
X146738094Y-231602438D02*
X146642856Y-231554819D01*
X145690475Y-231554819D02*
X145595237Y-231554819D01*
X145595237Y-231554819D02*
X145499999Y-231602438D01*
X145499999Y-231602438D02*
X145452380Y-231650057D01*
X145452380Y-231650057D02*
X145404761Y-231745295D01*
X145404761Y-231745295D02*
X145357142Y-231935771D01*
X145357142Y-231935771D02*
X145357142Y-232173866D01*
X145357142Y-232173866D02*
X145404761Y-232364342D01*
X145404761Y-232364342D02*
X145452380Y-232459580D01*
X145452380Y-232459580D02*
X145499999Y-232507200D01*
X145499999Y-232507200D02*
X145595237Y-232554819D01*
X145595237Y-232554819D02*
X145690475Y-232554819D01*
X145690475Y-232554819D02*
X145785713Y-232507200D01*
X145785713Y-232507200D02*
X145833332Y-232459580D01*
X145833332Y-232459580D02*
X145880951Y-232364342D01*
X145880951Y-232364342D02*
X145928570Y-232173866D01*
X145928570Y-232173866D02*
X145928570Y-231935771D01*
X145928570Y-231935771D02*
X145880951Y-231745295D01*
X145880951Y-231745295D02*
X145833332Y-231650057D01*
X145833332Y-231650057D02*
X145785713Y-231602438D01*
X145785713Y-231602438D02*
X145690475Y-231554819D01*
X413095237Y-232554819D02*
X413095237Y-231554819D01*
X412619047Y-231888152D02*
X412619047Y-232554819D01*
X412619047Y-231983390D02*
X412571428Y-231935771D01*
X412571428Y-231935771D02*
X412476190Y-231888152D01*
X412476190Y-231888152D02*
X412333333Y-231888152D01*
X412333333Y-231888152D02*
X412238095Y-231935771D01*
X412238095Y-231935771D02*
X412190476Y-232031009D01*
X412190476Y-232031009D02*
X412190476Y-232554819D01*
X411714285Y-231888152D02*
X411714285Y-232554819D01*
X411714285Y-231983390D02*
X411666666Y-231935771D01*
X411666666Y-231935771D02*
X411571428Y-231888152D01*
X411571428Y-231888152D02*
X411428571Y-231888152D01*
X411428571Y-231888152D02*
X411333333Y-231935771D01*
X411333333Y-231935771D02*
X411285714Y-232031009D01*
X411285714Y-232031009D02*
X411285714Y-232554819D01*
X410428571Y-232507200D02*
X410523809Y-232554819D01*
X410523809Y-232554819D02*
X410714285Y-232554819D01*
X410714285Y-232554819D02*
X410809523Y-232507200D01*
X410809523Y-232507200D02*
X410857142Y-232411961D01*
X410857142Y-232411961D02*
X410857142Y-232031009D01*
X410857142Y-232031009D02*
X410809523Y-231935771D01*
X410809523Y-231935771D02*
X410714285Y-231888152D01*
X410714285Y-231888152D02*
X410523809Y-231888152D01*
X410523809Y-231888152D02*
X410428571Y-231935771D01*
X410428571Y-231935771D02*
X410380952Y-232031009D01*
X410380952Y-232031009D02*
X410380952Y-232126247D01*
X410380952Y-232126247D02*
X410857142Y-232221485D01*
X409952380Y-232554819D02*
X409952380Y-231888152D01*
X409952380Y-232078628D02*
X409904761Y-231983390D01*
X409904761Y-231983390D02*
X409857142Y-231935771D01*
X409857142Y-231935771D02*
X409761904Y-231888152D01*
X409761904Y-231888152D02*
X409666666Y-231888152D01*
X409380951Y-231650057D02*
X409333332Y-231602438D01*
X409333332Y-231602438D02*
X409238094Y-231554819D01*
X409238094Y-231554819D02*
X408999999Y-231554819D01*
X408999999Y-231554819D02*
X408904761Y-231602438D01*
X408904761Y-231602438D02*
X408857142Y-231650057D01*
X408857142Y-231650057D02*
X408809523Y-231745295D01*
X408809523Y-231745295D02*
X408809523Y-231840533D01*
X408809523Y-231840533D02*
X408857142Y-231983390D01*
X408857142Y-231983390D02*
X409428570Y-232554819D01*
X409428570Y-232554819D02*
X408809523Y-232554819D01*
X407904761Y-231554819D02*
X408380951Y-231554819D01*
X408380951Y-231554819D02*
X408428570Y-232031009D01*
X408428570Y-232031009D02*
X408380951Y-231983390D01*
X408380951Y-231983390D02*
X408285713Y-231935771D01*
X408285713Y-231935771D02*
X408047618Y-231935771D01*
X408047618Y-231935771D02*
X407952380Y-231983390D01*
X407952380Y-231983390D02*
X407904761Y-232031009D01*
X407904761Y-232031009D02*
X407857142Y-232126247D01*
X407857142Y-232126247D02*
X407857142Y-232364342D01*
X407857142Y-232364342D02*
X407904761Y-232459580D01*
X407904761Y-232459580D02*
X407952380Y-232507200D01*
X407952380Y-232507200D02*
X408047618Y-232554819D01*
X408047618Y-232554819D02*
X408285713Y-232554819D01*
X408285713Y-232554819D02*
X408380951Y-232507200D01*
X408380951Y-232507200D02*
X408428570Y-232459580D01*
X388095237Y-232554819D02*
X388095237Y-231554819D01*
X387619047Y-231888152D02*
X387619047Y-232554819D01*
X387619047Y-231983390D02*
X387571428Y-231935771D01*
X387571428Y-231935771D02*
X387476190Y-231888152D01*
X387476190Y-231888152D02*
X387333333Y-231888152D01*
X387333333Y-231888152D02*
X387238095Y-231935771D01*
X387238095Y-231935771D02*
X387190476Y-232031009D01*
X387190476Y-232031009D02*
X387190476Y-232554819D01*
X386714285Y-231888152D02*
X386714285Y-232554819D01*
X386714285Y-231983390D02*
X386666666Y-231935771D01*
X386666666Y-231935771D02*
X386571428Y-231888152D01*
X386571428Y-231888152D02*
X386428571Y-231888152D01*
X386428571Y-231888152D02*
X386333333Y-231935771D01*
X386333333Y-231935771D02*
X386285714Y-232031009D01*
X386285714Y-232031009D02*
X386285714Y-232554819D01*
X385428571Y-232507200D02*
X385523809Y-232554819D01*
X385523809Y-232554819D02*
X385714285Y-232554819D01*
X385714285Y-232554819D02*
X385809523Y-232507200D01*
X385809523Y-232507200D02*
X385857142Y-232411961D01*
X385857142Y-232411961D02*
X385857142Y-232031009D01*
X385857142Y-232031009D02*
X385809523Y-231935771D01*
X385809523Y-231935771D02*
X385714285Y-231888152D01*
X385714285Y-231888152D02*
X385523809Y-231888152D01*
X385523809Y-231888152D02*
X385428571Y-231935771D01*
X385428571Y-231935771D02*
X385380952Y-232031009D01*
X385380952Y-232031009D02*
X385380952Y-232126247D01*
X385380952Y-232126247D02*
X385857142Y-232221485D01*
X384952380Y-232554819D02*
X384952380Y-231888152D01*
X384952380Y-232078628D02*
X384904761Y-231983390D01*
X384904761Y-231983390D02*
X384857142Y-231935771D01*
X384857142Y-231935771D02*
X384761904Y-231888152D01*
X384761904Y-231888152D02*
X384666666Y-231888152D01*
X384380951Y-231650057D02*
X384333332Y-231602438D01*
X384333332Y-231602438D02*
X384238094Y-231554819D01*
X384238094Y-231554819D02*
X383999999Y-231554819D01*
X383999999Y-231554819D02*
X383904761Y-231602438D01*
X383904761Y-231602438D02*
X383857142Y-231650057D01*
X383857142Y-231650057D02*
X383809523Y-231745295D01*
X383809523Y-231745295D02*
X383809523Y-231840533D01*
X383809523Y-231840533D02*
X383857142Y-231983390D01*
X383857142Y-231983390D02*
X384428570Y-232554819D01*
X384428570Y-232554819D02*
X383809523Y-232554819D01*
X383476189Y-231554819D02*
X382857142Y-231554819D01*
X382857142Y-231554819D02*
X383190475Y-231935771D01*
X383190475Y-231935771D02*
X383047618Y-231935771D01*
X383047618Y-231935771D02*
X382952380Y-231983390D01*
X382952380Y-231983390D02*
X382904761Y-232031009D01*
X382904761Y-232031009D02*
X382857142Y-232126247D01*
X382857142Y-232126247D02*
X382857142Y-232364342D01*
X382857142Y-232364342D02*
X382904761Y-232459580D01*
X382904761Y-232459580D02*
X382952380Y-232507200D01*
X382952380Y-232507200D02*
X383047618Y-232554819D01*
X383047618Y-232554819D02*
X383333332Y-232554819D01*
X383333332Y-232554819D02*
X383428570Y-232507200D01*
X383428570Y-232507200D02*
X383476189Y-232459580D01*
X325523809Y-238554819D02*
X325333333Y-238554819D01*
X325333333Y-238554819D02*
X325238095Y-238602438D01*
X325238095Y-238602438D02*
X325142857Y-238697676D01*
X325142857Y-238697676D02*
X325095238Y-238888152D01*
X325095238Y-238888152D02*
X325095238Y-239221485D01*
X325095238Y-239221485D02*
X325142857Y-239411961D01*
X325142857Y-239411961D02*
X325238095Y-239507200D01*
X325238095Y-239507200D02*
X325333333Y-239554819D01*
X325333333Y-239554819D02*
X325523809Y-239554819D01*
X325523809Y-239554819D02*
X325619047Y-239507200D01*
X325619047Y-239507200D02*
X325714285Y-239411961D01*
X325714285Y-239411961D02*
X325761904Y-239221485D01*
X325761904Y-239221485D02*
X325761904Y-238888152D01*
X325761904Y-238888152D02*
X325714285Y-238697676D01*
X325714285Y-238697676D02*
X325619047Y-238602438D01*
X325619047Y-238602438D02*
X325523809Y-238554819D01*
X324238095Y-238888152D02*
X324238095Y-239554819D01*
X324666666Y-238888152D02*
X324666666Y-239411961D01*
X324666666Y-239411961D02*
X324619047Y-239507200D01*
X324619047Y-239507200D02*
X324523809Y-239554819D01*
X324523809Y-239554819D02*
X324380952Y-239554819D01*
X324380952Y-239554819D02*
X324285714Y-239507200D01*
X324285714Y-239507200D02*
X324238095Y-239459580D01*
X323904761Y-238888152D02*
X323523809Y-238888152D01*
X323761904Y-238554819D02*
X323761904Y-239411961D01*
X323761904Y-239411961D02*
X323714285Y-239507200D01*
X323714285Y-239507200D02*
X323619047Y-239554819D01*
X323619047Y-239554819D02*
X323523809Y-239554819D01*
X322809523Y-239507200D02*
X322904761Y-239554819D01*
X322904761Y-239554819D02*
X323095237Y-239554819D01*
X323095237Y-239554819D02*
X323190475Y-239507200D01*
X323190475Y-239507200D02*
X323238094Y-239411961D01*
X323238094Y-239411961D02*
X323238094Y-239031009D01*
X323238094Y-239031009D02*
X323190475Y-238935771D01*
X323190475Y-238935771D02*
X323095237Y-238888152D01*
X323095237Y-238888152D02*
X322904761Y-238888152D01*
X322904761Y-238888152D02*
X322809523Y-238935771D01*
X322809523Y-238935771D02*
X322761904Y-239031009D01*
X322761904Y-239031009D02*
X322761904Y-239126247D01*
X322761904Y-239126247D02*
X323238094Y-239221485D01*
X322333332Y-239554819D02*
X322333332Y-238888152D01*
X322333332Y-239078628D02*
X322285713Y-238983390D01*
X322285713Y-238983390D02*
X322238094Y-238935771D01*
X322238094Y-238935771D02*
X322142856Y-238888152D01*
X322142856Y-238888152D02*
X322047618Y-238888152D01*
X321190475Y-239554819D02*
X321761903Y-239554819D01*
X321476189Y-239554819D02*
X321476189Y-238554819D01*
X321476189Y-238554819D02*
X321571427Y-238697676D01*
X321571427Y-238697676D02*
X321666665Y-238792914D01*
X321666665Y-238792914D02*
X321761903Y-238840533D01*
X320333332Y-238554819D02*
X320523808Y-238554819D01*
X320523808Y-238554819D02*
X320619046Y-238602438D01*
X320619046Y-238602438D02*
X320666665Y-238650057D01*
X320666665Y-238650057D02*
X320761903Y-238792914D01*
X320761903Y-238792914D02*
X320809522Y-238983390D01*
X320809522Y-238983390D02*
X320809522Y-239364342D01*
X320809522Y-239364342D02*
X320761903Y-239459580D01*
X320761903Y-239459580D02*
X320714284Y-239507200D01*
X320714284Y-239507200D02*
X320619046Y-239554819D01*
X320619046Y-239554819D02*
X320428570Y-239554819D01*
X320428570Y-239554819D02*
X320333332Y-239507200D01*
X320333332Y-239507200D02*
X320285713Y-239459580D01*
X320285713Y-239459580D02*
X320238094Y-239364342D01*
X320238094Y-239364342D02*
X320238094Y-239126247D01*
X320238094Y-239126247D02*
X320285713Y-239031009D01*
X320285713Y-239031009D02*
X320333332Y-238983390D01*
X320333332Y-238983390D02*
X320428570Y-238935771D01*
X320428570Y-238935771D02*
X320619046Y-238935771D01*
X320619046Y-238935771D02*
X320714284Y-238983390D01*
X320714284Y-238983390D02*
X320761903Y-239031009D01*
X320761903Y-239031009D02*
X320809522Y-239126247D01*
X213095237Y-232554819D02*
X213095237Y-231554819D01*
X212619047Y-231888152D02*
X212619047Y-232554819D01*
X212619047Y-231983390D02*
X212571428Y-231935771D01*
X212571428Y-231935771D02*
X212476190Y-231888152D01*
X212476190Y-231888152D02*
X212333333Y-231888152D01*
X212333333Y-231888152D02*
X212238095Y-231935771D01*
X212238095Y-231935771D02*
X212190476Y-232031009D01*
X212190476Y-232031009D02*
X212190476Y-232554819D01*
X211714285Y-231888152D02*
X211714285Y-232554819D01*
X211714285Y-231983390D02*
X211666666Y-231935771D01*
X211666666Y-231935771D02*
X211571428Y-231888152D01*
X211571428Y-231888152D02*
X211428571Y-231888152D01*
X211428571Y-231888152D02*
X211333333Y-231935771D01*
X211333333Y-231935771D02*
X211285714Y-232031009D01*
X211285714Y-232031009D02*
X211285714Y-232554819D01*
X210428571Y-232507200D02*
X210523809Y-232554819D01*
X210523809Y-232554819D02*
X210714285Y-232554819D01*
X210714285Y-232554819D02*
X210809523Y-232507200D01*
X210809523Y-232507200D02*
X210857142Y-232411961D01*
X210857142Y-232411961D02*
X210857142Y-232031009D01*
X210857142Y-232031009D02*
X210809523Y-231935771D01*
X210809523Y-231935771D02*
X210714285Y-231888152D01*
X210714285Y-231888152D02*
X210523809Y-231888152D01*
X210523809Y-231888152D02*
X210428571Y-231935771D01*
X210428571Y-231935771D02*
X210380952Y-232031009D01*
X210380952Y-232031009D02*
X210380952Y-232126247D01*
X210380952Y-232126247D02*
X210857142Y-232221485D01*
X209952380Y-232554819D02*
X209952380Y-231888152D01*
X209952380Y-232078628D02*
X209904761Y-231983390D01*
X209904761Y-231983390D02*
X209857142Y-231935771D01*
X209857142Y-231935771D02*
X209761904Y-231888152D01*
X209761904Y-231888152D02*
X209666666Y-231888152D01*
X209142856Y-231554819D02*
X209047618Y-231554819D01*
X209047618Y-231554819D02*
X208952380Y-231602438D01*
X208952380Y-231602438D02*
X208904761Y-231650057D01*
X208904761Y-231650057D02*
X208857142Y-231745295D01*
X208857142Y-231745295D02*
X208809523Y-231935771D01*
X208809523Y-231935771D02*
X208809523Y-232173866D01*
X208809523Y-232173866D02*
X208857142Y-232364342D01*
X208857142Y-232364342D02*
X208904761Y-232459580D01*
X208904761Y-232459580D02*
X208952380Y-232507200D01*
X208952380Y-232507200D02*
X209047618Y-232554819D01*
X209047618Y-232554819D02*
X209142856Y-232554819D01*
X209142856Y-232554819D02*
X209238094Y-232507200D01*
X209238094Y-232507200D02*
X209285713Y-232459580D01*
X209285713Y-232459580D02*
X209333332Y-232364342D01*
X209333332Y-232364342D02*
X209380951Y-232173866D01*
X209380951Y-232173866D02*
X209380951Y-231935771D01*
X209380951Y-231935771D02*
X209333332Y-231745295D01*
X209333332Y-231745295D02*
X209285713Y-231650057D01*
X209285713Y-231650057D02*
X209238094Y-231602438D01*
X209238094Y-231602438D02*
X209142856Y-231554819D01*
X207904761Y-231554819D02*
X208380951Y-231554819D01*
X208380951Y-231554819D02*
X208428570Y-232031009D01*
X208428570Y-232031009D02*
X208380951Y-231983390D01*
X208380951Y-231983390D02*
X208285713Y-231935771D01*
X208285713Y-231935771D02*
X208047618Y-231935771D01*
X208047618Y-231935771D02*
X207952380Y-231983390D01*
X207952380Y-231983390D02*
X207904761Y-232031009D01*
X207904761Y-232031009D02*
X207857142Y-232126247D01*
X207857142Y-232126247D02*
X207857142Y-232364342D01*
X207857142Y-232364342D02*
X207904761Y-232459580D01*
X207904761Y-232459580D02*
X207952380Y-232507200D01*
X207952380Y-232507200D02*
X208047618Y-232554819D01*
X208047618Y-232554819D02*
X208285713Y-232554819D01*
X208285713Y-232554819D02*
X208380951Y-232507200D01*
X208380951Y-232507200D02*
X208428570Y-232459580D01*
X363023809Y-238554819D02*
X362833333Y-238554819D01*
X362833333Y-238554819D02*
X362738095Y-238602438D01*
X362738095Y-238602438D02*
X362642857Y-238697676D01*
X362642857Y-238697676D02*
X362595238Y-238888152D01*
X362595238Y-238888152D02*
X362595238Y-239221485D01*
X362595238Y-239221485D02*
X362642857Y-239411961D01*
X362642857Y-239411961D02*
X362738095Y-239507200D01*
X362738095Y-239507200D02*
X362833333Y-239554819D01*
X362833333Y-239554819D02*
X363023809Y-239554819D01*
X363023809Y-239554819D02*
X363119047Y-239507200D01*
X363119047Y-239507200D02*
X363214285Y-239411961D01*
X363214285Y-239411961D02*
X363261904Y-239221485D01*
X363261904Y-239221485D02*
X363261904Y-238888152D01*
X363261904Y-238888152D02*
X363214285Y-238697676D01*
X363214285Y-238697676D02*
X363119047Y-238602438D01*
X363119047Y-238602438D02*
X363023809Y-238554819D01*
X361738095Y-238888152D02*
X361738095Y-239554819D01*
X362166666Y-238888152D02*
X362166666Y-239411961D01*
X362166666Y-239411961D02*
X362119047Y-239507200D01*
X362119047Y-239507200D02*
X362023809Y-239554819D01*
X362023809Y-239554819D02*
X361880952Y-239554819D01*
X361880952Y-239554819D02*
X361785714Y-239507200D01*
X361785714Y-239507200D02*
X361738095Y-239459580D01*
X361404761Y-238888152D02*
X361023809Y-238888152D01*
X361261904Y-238554819D02*
X361261904Y-239411961D01*
X361261904Y-239411961D02*
X361214285Y-239507200D01*
X361214285Y-239507200D02*
X361119047Y-239554819D01*
X361119047Y-239554819D02*
X361023809Y-239554819D01*
X360309523Y-239507200D02*
X360404761Y-239554819D01*
X360404761Y-239554819D02*
X360595237Y-239554819D01*
X360595237Y-239554819D02*
X360690475Y-239507200D01*
X360690475Y-239507200D02*
X360738094Y-239411961D01*
X360738094Y-239411961D02*
X360738094Y-239031009D01*
X360738094Y-239031009D02*
X360690475Y-238935771D01*
X360690475Y-238935771D02*
X360595237Y-238888152D01*
X360595237Y-238888152D02*
X360404761Y-238888152D01*
X360404761Y-238888152D02*
X360309523Y-238935771D01*
X360309523Y-238935771D02*
X360261904Y-239031009D01*
X360261904Y-239031009D02*
X360261904Y-239126247D01*
X360261904Y-239126247D02*
X360738094Y-239221485D01*
X359833332Y-239554819D02*
X359833332Y-238888152D01*
X359833332Y-239078628D02*
X359785713Y-238983390D01*
X359785713Y-238983390D02*
X359738094Y-238935771D01*
X359738094Y-238935771D02*
X359642856Y-238888152D01*
X359642856Y-238888152D02*
X359547618Y-238888152D01*
X359261903Y-238650057D02*
X359214284Y-238602438D01*
X359214284Y-238602438D02*
X359119046Y-238554819D01*
X359119046Y-238554819D02*
X358880951Y-238554819D01*
X358880951Y-238554819D02*
X358785713Y-238602438D01*
X358785713Y-238602438D02*
X358738094Y-238650057D01*
X358738094Y-238650057D02*
X358690475Y-238745295D01*
X358690475Y-238745295D02*
X358690475Y-238840533D01*
X358690475Y-238840533D02*
X358738094Y-238983390D01*
X358738094Y-238983390D02*
X359309522Y-239554819D01*
X359309522Y-239554819D02*
X358690475Y-239554819D01*
X357738094Y-239554819D02*
X358309522Y-239554819D01*
X358023808Y-239554819D02*
X358023808Y-238554819D01*
X358023808Y-238554819D02*
X358119046Y-238697676D01*
X358119046Y-238697676D02*
X358214284Y-238792914D01*
X358214284Y-238792914D02*
X358309522Y-238840533D01*
X338095237Y-232554819D02*
X338095237Y-231554819D01*
X337619047Y-231888152D02*
X337619047Y-232554819D01*
X337619047Y-231983390D02*
X337571428Y-231935771D01*
X337571428Y-231935771D02*
X337476190Y-231888152D01*
X337476190Y-231888152D02*
X337333333Y-231888152D01*
X337333333Y-231888152D02*
X337238095Y-231935771D01*
X337238095Y-231935771D02*
X337190476Y-232031009D01*
X337190476Y-232031009D02*
X337190476Y-232554819D01*
X336714285Y-231888152D02*
X336714285Y-232554819D01*
X336714285Y-231983390D02*
X336666666Y-231935771D01*
X336666666Y-231935771D02*
X336571428Y-231888152D01*
X336571428Y-231888152D02*
X336428571Y-231888152D01*
X336428571Y-231888152D02*
X336333333Y-231935771D01*
X336333333Y-231935771D02*
X336285714Y-232031009D01*
X336285714Y-232031009D02*
X336285714Y-232554819D01*
X335428571Y-232507200D02*
X335523809Y-232554819D01*
X335523809Y-232554819D02*
X335714285Y-232554819D01*
X335714285Y-232554819D02*
X335809523Y-232507200D01*
X335809523Y-232507200D02*
X335857142Y-232411961D01*
X335857142Y-232411961D02*
X335857142Y-232031009D01*
X335857142Y-232031009D02*
X335809523Y-231935771D01*
X335809523Y-231935771D02*
X335714285Y-231888152D01*
X335714285Y-231888152D02*
X335523809Y-231888152D01*
X335523809Y-231888152D02*
X335428571Y-231935771D01*
X335428571Y-231935771D02*
X335380952Y-232031009D01*
X335380952Y-232031009D02*
X335380952Y-232126247D01*
X335380952Y-232126247D02*
X335857142Y-232221485D01*
X334952380Y-232554819D02*
X334952380Y-231888152D01*
X334952380Y-232078628D02*
X334904761Y-231983390D01*
X334904761Y-231983390D02*
X334857142Y-231935771D01*
X334857142Y-231935771D02*
X334761904Y-231888152D01*
X334761904Y-231888152D02*
X334666666Y-231888152D01*
X333809523Y-232554819D02*
X334380951Y-232554819D01*
X334095237Y-232554819D02*
X334095237Y-231554819D01*
X334095237Y-231554819D02*
X334190475Y-231697676D01*
X334190475Y-231697676D02*
X334285713Y-231792914D01*
X334285713Y-231792914D02*
X334380951Y-231840533D01*
X333476189Y-231554819D02*
X332809523Y-231554819D01*
X332809523Y-231554819D02*
X333238094Y-232554819D01*
X263023809Y-238554819D02*
X262833333Y-238554819D01*
X262833333Y-238554819D02*
X262738095Y-238602438D01*
X262738095Y-238602438D02*
X262642857Y-238697676D01*
X262642857Y-238697676D02*
X262595238Y-238888152D01*
X262595238Y-238888152D02*
X262595238Y-239221485D01*
X262595238Y-239221485D02*
X262642857Y-239411961D01*
X262642857Y-239411961D02*
X262738095Y-239507200D01*
X262738095Y-239507200D02*
X262833333Y-239554819D01*
X262833333Y-239554819D02*
X263023809Y-239554819D01*
X263023809Y-239554819D02*
X263119047Y-239507200D01*
X263119047Y-239507200D02*
X263214285Y-239411961D01*
X263214285Y-239411961D02*
X263261904Y-239221485D01*
X263261904Y-239221485D02*
X263261904Y-238888152D01*
X263261904Y-238888152D02*
X263214285Y-238697676D01*
X263214285Y-238697676D02*
X263119047Y-238602438D01*
X263119047Y-238602438D02*
X263023809Y-238554819D01*
X261738095Y-238888152D02*
X261738095Y-239554819D01*
X262166666Y-238888152D02*
X262166666Y-239411961D01*
X262166666Y-239411961D02*
X262119047Y-239507200D01*
X262119047Y-239507200D02*
X262023809Y-239554819D01*
X262023809Y-239554819D02*
X261880952Y-239554819D01*
X261880952Y-239554819D02*
X261785714Y-239507200D01*
X261785714Y-239507200D02*
X261738095Y-239459580D01*
X261404761Y-238888152D02*
X261023809Y-238888152D01*
X261261904Y-238554819D02*
X261261904Y-239411961D01*
X261261904Y-239411961D02*
X261214285Y-239507200D01*
X261214285Y-239507200D02*
X261119047Y-239554819D01*
X261119047Y-239554819D02*
X261023809Y-239554819D01*
X260309523Y-239507200D02*
X260404761Y-239554819D01*
X260404761Y-239554819D02*
X260595237Y-239554819D01*
X260595237Y-239554819D02*
X260690475Y-239507200D01*
X260690475Y-239507200D02*
X260738094Y-239411961D01*
X260738094Y-239411961D02*
X260738094Y-239031009D01*
X260738094Y-239031009D02*
X260690475Y-238935771D01*
X260690475Y-238935771D02*
X260595237Y-238888152D01*
X260595237Y-238888152D02*
X260404761Y-238888152D01*
X260404761Y-238888152D02*
X260309523Y-238935771D01*
X260309523Y-238935771D02*
X260261904Y-239031009D01*
X260261904Y-239031009D02*
X260261904Y-239126247D01*
X260261904Y-239126247D02*
X260738094Y-239221485D01*
X259833332Y-239554819D02*
X259833332Y-238888152D01*
X259833332Y-239078628D02*
X259785713Y-238983390D01*
X259785713Y-238983390D02*
X259738094Y-238935771D01*
X259738094Y-238935771D02*
X259642856Y-238888152D01*
X259642856Y-238888152D02*
X259547618Y-238888152D01*
X258690475Y-239554819D02*
X259261903Y-239554819D01*
X258976189Y-239554819D02*
X258976189Y-238554819D01*
X258976189Y-238554819D02*
X259071427Y-238697676D01*
X259071427Y-238697676D02*
X259166665Y-238792914D01*
X259166665Y-238792914D02*
X259261903Y-238840533D01*
X257738094Y-239554819D02*
X258309522Y-239554819D01*
X258023808Y-239554819D02*
X258023808Y-238554819D01*
X258023808Y-238554819D02*
X258119046Y-238697676D01*
X258119046Y-238697676D02*
X258214284Y-238792914D01*
X258214284Y-238792914D02*
X258309522Y-238840533D01*
X163023809Y-238554819D02*
X162833333Y-238554819D01*
X162833333Y-238554819D02*
X162738095Y-238602438D01*
X162738095Y-238602438D02*
X162642857Y-238697676D01*
X162642857Y-238697676D02*
X162595238Y-238888152D01*
X162595238Y-238888152D02*
X162595238Y-239221485D01*
X162595238Y-239221485D02*
X162642857Y-239411961D01*
X162642857Y-239411961D02*
X162738095Y-239507200D01*
X162738095Y-239507200D02*
X162833333Y-239554819D01*
X162833333Y-239554819D02*
X163023809Y-239554819D01*
X163023809Y-239554819D02*
X163119047Y-239507200D01*
X163119047Y-239507200D02*
X163214285Y-239411961D01*
X163214285Y-239411961D02*
X163261904Y-239221485D01*
X163261904Y-239221485D02*
X163261904Y-238888152D01*
X163261904Y-238888152D02*
X163214285Y-238697676D01*
X163214285Y-238697676D02*
X163119047Y-238602438D01*
X163119047Y-238602438D02*
X163023809Y-238554819D01*
X161738095Y-238888152D02*
X161738095Y-239554819D01*
X162166666Y-238888152D02*
X162166666Y-239411961D01*
X162166666Y-239411961D02*
X162119047Y-239507200D01*
X162119047Y-239507200D02*
X162023809Y-239554819D01*
X162023809Y-239554819D02*
X161880952Y-239554819D01*
X161880952Y-239554819D02*
X161785714Y-239507200D01*
X161785714Y-239507200D02*
X161738095Y-239459580D01*
X161404761Y-238888152D02*
X161023809Y-238888152D01*
X161261904Y-238554819D02*
X161261904Y-239411961D01*
X161261904Y-239411961D02*
X161214285Y-239507200D01*
X161214285Y-239507200D02*
X161119047Y-239554819D01*
X161119047Y-239554819D02*
X161023809Y-239554819D01*
X160309523Y-239507200D02*
X160404761Y-239554819D01*
X160404761Y-239554819D02*
X160595237Y-239554819D01*
X160595237Y-239554819D02*
X160690475Y-239507200D01*
X160690475Y-239507200D02*
X160738094Y-239411961D01*
X160738094Y-239411961D02*
X160738094Y-239031009D01*
X160738094Y-239031009D02*
X160690475Y-238935771D01*
X160690475Y-238935771D02*
X160595237Y-238888152D01*
X160595237Y-238888152D02*
X160404761Y-238888152D01*
X160404761Y-238888152D02*
X160309523Y-238935771D01*
X160309523Y-238935771D02*
X160261904Y-239031009D01*
X160261904Y-239031009D02*
X160261904Y-239126247D01*
X160261904Y-239126247D02*
X160738094Y-239221485D01*
X159833332Y-239554819D02*
X159833332Y-238888152D01*
X159833332Y-239078628D02*
X159785713Y-238983390D01*
X159785713Y-238983390D02*
X159738094Y-238935771D01*
X159738094Y-238935771D02*
X159642856Y-238888152D01*
X159642856Y-238888152D02*
X159547618Y-238888152D01*
X159023808Y-238554819D02*
X158928570Y-238554819D01*
X158928570Y-238554819D02*
X158833332Y-238602438D01*
X158833332Y-238602438D02*
X158785713Y-238650057D01*
X158785713Y-238650057D02*
X158738094Y-238745295D01*
X158738094Y-238745295D02*
X158690475Y-238935771D01*
X158690475Y-238935771D02*
X158690475Y-239173866D01*
X158690475Y-239173866D02*
X158738094Y-239364342D01*
X158738094Y-239364342D02*
X158785713Y-239459580D01*
X158785713Y-239459580D02*
X158833332Y-239507200D01*
X158833332Y-239507200D02*
X158928570Y-239554819D01*
X158928570Y-239554819D02*
X159023808Y-239554819D01*
X159023808Y-239554819D02*
X159119046Y-239507200D01*
X159119046Y-239507200D02*
X159166665Y-239459580D01*
X159166665Y-239459580D02*
X159214284Y-239364342D01*
X159214284Y-239364342D02*
X159261903Y-239173866D01*
X159261903Y-239173866D02*
X159261903Y-238935771D01*
X159261903Y-238935771D02*
X159214284Y-238745295D01*
X159214284Y-238745295D02*
X159166665Y-238650057D01*
X159166665Y-238650057D02*
X159119046Y-238602438D01*
X159119046Y-238602438D02*
X159023808Y-238554819D01*
X157738094Y-239554819D02*
X158309522Y-239554819D01*
X158023808Y-239554819D02*
X158023808Y-238554819D01*
X158023808Y-238554819D02*
X158119046Y-238697676D01*
X158119046Y-238697676D02*
X158214284Y-238792914D01*
X158214284Y-238792914D02*
X158309522Y-238840533D01*
X300523809Y-238554819D02*
X300333333Y-238554819D01*
X300333333Y-238554819D02*
X300238095Y-238602438D01*
X300238095Y-238602438D02*
X300142857Y-238697676D01*
X300142857Y-238697676D02*
X300095238Y-238888152D01*
X300095238Y-238888152D02*
X300095238Y-239221485D01*
X300095238Y-239221485D02*
X300142857Y-239411961D01*
X300142857Y-239411961D02*
X300238095Y-239507200D01*
X300238095Y-239507200D02*
X300333333Y-239554819D01*
X300333333Y-239554819D02*
X300523809Y-239554819D01*
X300523809Y-239554819D02*
X300619047Y-239507200D01*
X300619047Y-239507200D02*
X300714285Y-239411961D01*
X300714285Y-239411961D02*
X300761904Y-239221485D01*
X300761904Y-239221485D02*
X300761904Y-238888152D01*
X300761904Y-238888152D02*
X300714285Y-238697676D01*
X300714285Y-238697676D02*
X300619047Y-238602438D01*
X300619047Y-238602438D02*
X300523809Y-238554819D01*
X299238095Y-238888152D02*
X299238095Y-239554819D01*
X299666666Y-238888152D02*
X299666666Y-239411961D01*
X299666666Y-239411961D02*
X299619047Y-239507200D01*
X299619047Y-239507200D02*
X299523809Y-239554819D01*
X299523809Y-239554819D02*
X299380952Y-239554819D01*
X299380952Y-239554819D02*
X299285714Y-239507200D01*
X299285714Y-239507200D02*
X299238095Y-239459580D01*
X298904761Y-238888152D02*
X298523809Y-238888152D01*
X298761904Y-238554819D02*
X298761904Y-239411961D01*
X298761904Y-239411961D02*
X298714285Y-239507200D01*
X298714285Y-239507200D02*
X298619047Y-239554819D01*
X298619047Y-239554819D02*
X298523809Y-239554819D01*
X297809523Y-239507200D02*
X297904761Y-239554819D01*
X297904761Y-239554819D02*
X298095237Y-239554819D01*
X298095237Y-239554819D02*
X298190475Y-239507200D01*
X298190475Y-239507200D02*
X298238094Y-239411961D01*
X298238094Y-239411961D02*
X298238094Y-239031009D01*
X298238094Y-239031009D02*
X298190475Y-238935771D01*
X298190475Y-238935771D02*
X298095237Y-238888152D01*
X298095237Y-238888152D02*
X297904761Y-238888152D01*
X297904761Y-238888152D02*
X297809523Y-238935771D01*
X297809523Y-238935771D02*
X297761904Y-239031009D01*
X297761904Y-239031009D02*
X297761904Y-239126247D01*
X297761904Y-239126247D02*
X298238094Y-239221485D01*
X297333332Y-239554819D02*
X297333332Y-238888152D01*
X297333332Y-239078628D02*
X297285713Y-238983390D01*
X297285713Y-238983390D02*
X297238094Y-238935771D01*
X297238094Y-238935771D02*
X297142856Y-238888152D01*
X297142856Y-238888152D02*
X297047618Y-238888152D01*
X296190475Y-239554819D02*
X296761903Y-239554819D01*
X296476189Y-239554819D02*
X296476189Y-238554819D01*
X296476189Y-238554819D02*
X296571427Y-238697676D01*
X296571427Y-238697676D02*
X296666665Y-238792914D01*
X296666665Y-238792914D02*
X296761903Y-238840533D01*
X295333332Y-238888152D02*
X295333332Y-239554819D01*
X295571427Y-238507200D02*
X295809522Y-239221485D01*
X295809522Y-239221485D02*
X295190475Y-239221485D01*
X313023809Y-238554819D02*
X312833333Y-238554819D01*
X312833333Y-238554819D02*
X312738095Y-238602438D01*
X312738095Y-238602438D02*
X312642857Y-238697676D01*
X312642857Y-238697676D02*
X312595238Y-238888152D01*
X312595238Y-238888152D02*
X312595238Y-239221485D01*
X312595238Y-239221485D02*
X312642857Y-239411961D01*
X312642857Y-239411961D02*
X312738095Y-239507200D01*
X312738095Y-239507200D02*
X312833333Y-239554819D01*
X312833333Y-239554819D02*
X313023809Y-239554819D01*
X313023809Y-239554819D02*
X313119047Y-239507200D01*
X313119047Y-239507200D02*
X313214285Y-239411961D01*
X313214285Y-239411961D02*
X313261904Y-239221485D01*
X313261904Y-239221485D02*
X313261904Y-238888152D01*
X313261904Y-238888152D02*
X313214285Y-238697676D01*
X313214285Y-238697676D02*
X313119047Y-238602438D01*
X313119047Y-238602438D02*
X313023809Y-238554819D01*
X311738095Y-238888152D02*
X311738095Y-239554819D01*
X312166666Y-238888152D02*
X312166666Y-239411961D01*
X312166666Y-239411961D02*
X312119047Y-239507200D01*
X312119047Y-239507200D02*
X312023809Y-239554819D01*
X312023809Y-239554819D02*
X311880952Y-239554819D01*
X311880952Y-239554819D02*
X311785714Y-239507200D01*
X311785714Y-239507200D02*
X311738095Y-239459580D01*
X311404761Y-238888152D02*
X311023809Y-238888152D01*
X311261904Y-238554819D02*
X311261904Y-239411961D01*
X311261904Y-239411961D02*
X311214285Y-239507200D01*
X311214285Y-239507200D02*
X311119047Y-239554819D01*
X311119047Y-239554819D02*
X311023809Y-239554819D01*
X310309523Y-239507200D02*
X310404761Y-239554819D01*
X310404761Y-239554819D02*
X310595237Y-239554819D01*
X310595237Y-239554819D02*
X310690475Y-239507200D01*
X310690475Y-239507200D02*
X310738094Y-239411961D01*
X310738094Y-239411961D02*
X310738094Y-239031009D01*
X310738094Y-239031009D02*
X310690475Y-238935771D01*
X310690475Y-238935771D02*
X310595237Y-238888152D01*
X310595237Y-238888152D02*
X310404761Y-238888152D01*
X310404761Y-238888152D02*
X310309523Y-238935771D01*
X310309523Y-238935771D02*
X310261904Y-239031009D01*
X310261904Y-239031009D02*
X310261904Y-239126247D01*
X310261904Y-239126247D02*
X310738094Y-239221485D01*
X309833332Y-239554819D02*
X309833332Y-238888152D01*
X309833332Y-239078628D02*
X309785713Y-238983390D01*
X309785713Y-238983390D02*
X309738094Y-238935771D01*
X309738094Y-238935771D02*
X309642856Y-238888152D01*
X309642856Y-238888152D02*
X309547618Y-238888152D01*
X308690475Y-239554819D02*
X309261903Y-239554819D01*
X308976189Y-239554819D02*
X308976189Y-238554819D01*
X308976189Y-238554819D02*
X309071427Y-238697676D01*
X309071427Y-238697676D02*
X309166665Y-238792914D01*
X309166665Y-238792914D02*
X309261903Y-238840533D01*
X307785713Y-238554819D02*
X308261903Y-238554819D01*
X308261903Y-238554819D02*
X308309522Y-239031009D01*
X308309522Y-239031009D02*
X308261903Y-238983390D01*
X308261903Y-238983390D02*
X308166665Y-238935771D01*
X308166665Y-238935771D02*
X307928570Y-238935771D01*
X307928570Y-238935771D02*
X307833332Y-238983390D01*
X307833332Y-238983390D02*
X307785713Y-239031009D01*
X307785713Y-239031009D02*
X307738094Y-239126247D01*
X307738094Y-239126247D02*
X307738094Y-239364342D01*
X307738094Y-239364342D02*
X307785713Y-239459580D01*
X307785713Y-239459580D02*
X307833332Y-239507200D01*
X307833332Y-239507200D02*
X307928570Y-239554819D01*
X307928570Y-239554819D02*
X308166665Y-239554819D01*
X308166665Y-239554819D02*
X308261903Y-239507200D01*
X308261903Y-239507200D02*
X308309522Y-239459580D01*
X300595237Y-232554819D02*
X300595237Y-231554819D01*
X300119047Y-231888152D02*
X300119047Y-232554819D01*
X300119047Y-231983390D02*
X300071428Y-231935771D01*
X300071428Y-231935771D02*
X299976190Y-231888152D01*
X299976190Y-231888152D02*
X299833333Y-231888152D01*
X299833333Y-231888152D02*
X299738095Y-231935771D01*
X299738095Y-231935771D02*
X299690476Y-232031009D01*
X299690476Y-232031009D02*
X299690476Y-232554819D01*
X299214285Y-231888152D02*
X299214285Y-232554819D01*
X299214285Y-231983390D02*
X299166666Y-231935771D01*
X299166666Y-231935771D02*
X299071428Y-231888152D01*
X299071428Y-231888152D02*
X298928571Y-231888152D01*
X298928571Y-231888152D02*
X298833333Y-231935771D01*
X298833333Y-231935771D02*
X298785714Y-232031009D01*
X298785714Y-232031009D02*
X298785714Y-232554819D01*
X297928571Y-232507200D02*
X298023809Y-232554819D01*
X298023809Y-232554819D02*
X298214285Y-232554819D01*
X298214285Y-232554819D02*
X298309523Y-232507200D01*
X298309523Y-232507200D02*
X298357142Y-232411961D01*
X298357142Y-232411961D02*
X298357142Y-232031009D01*
X298357142Y-232031009D02*
X298309523Y-231935771D01*
X298309523Y-231935771D02*
X298214285Y-231888152D01*
X298214285Y-231888152D02*
X298023809Y-231888152D01*
X298023809Y-231888152D02*
X297928571Y-231935771D01*
X297928571Y-231935771D02*
X297880952Y-232031009D01*
X297880952Y-232031009D02*
X297880952Y-232126247D01*
X297880952Y-232126247D02*
X298357142Y-232221485D01*
X297452380Y-232554819D02*
X297452380Y-231888152D01*
X297452380Y-232078628D02*
X297404761Y-231983390D01*
X297404761Y-231983390D02*
X297357142Y-231935771D01*
X297357142Y-231935771D02*
X297261904Y-231888152D01*
X297261904Y-231888152D02*
X297166666Y-231888152D01*
X296309523Y-232554819D02*
X296880951Y-232554819D01*
X296595237Y-232554819D02*
X296595237Y-231554819D01*
X296595237Y-231554819D02*
X296690475Y-231697676D01*
X296690475Y-231697676D02*
X296785713Y-231792914D01*
X296785713Y-231792914D02*
X296880951Y-231840533D01*
X295452380Y-231888152D02*
X295452380Y-232554819D01*
X295690475Y-231507200D02*
X295928570Y-232221485D01*
X295928570Y-232221485D02*
X295309523Y-232221485D01*
X350595237Y-232554819D02*
X350595237Y-231554819D01*
X350119047Y-231888152D02*
X350119047Y-232554819D01*
X350119047Y-231983390D02*
X350071428Y-231935771D01*
X350071428Y-231935771D02*
X349976190Y-231888152D01*
X349976190Y-231888152D02*
X349833333Y-231888152D01*
X349833333Y-231888152D02*
X349738095Y-231935771D01*
X349738095Y-231935771D02*
X349690476Y-232031009D01*
X349690476Y-232031009D02*
X349690476Y-232554819D01*
X349214285Y-231888152D02*
X349214285Y-232554819D01*
X349214285Y-231983390D02*
X349166666Y-231935771D01*
X349166666Y-231935771D02*
X349071428Y-231888152D01*
X349071428Y-231888152D02*
X348928571Y-231888152D01*
X348928571Y-231888152D02*
X348833333Y-231935771D01*
X348833333Y-231935771D02*
X348785714Y-232031009D01*
X348785714Y-232031009D02*
X348785714Y-232554819D01*
X347928571Y-232507200D02*
X348023809Y-232554819D01*
X348023809Y-232554819D02*
X348214285Y-232554819D01*
X348214285Y-232554819D02*
X348309523Y-232507200D01*
X348309523Y-232507200D02*
X348357142Y-232411961D01*
X348357142Y-232411961D02*
X348357142Y-232031009D01*
X348357142Y-232031009D02*
X348309523Y-231935771D01*
X348309523Y-231935771D02*
X348214285Y-231888152D01*
X348214285Y-231888152D02*
X348023809Y-231888152D01*
X348023809Y-231888152D02*
X347928571Y-231935771D01*
X347928571Y-231935771D02*
X347880952Y-232031009D01*
X347880952Y-232031009D02*
X347880952Y-232126247D01*
X347880952Y-232126247D02*
X348357142Y-232221485D01*
X347452380Y-232554819D02*
X347452380Y-231888152D01*
X347452380Y-232078628D02*
X347404761Y-231983390D01*
X347404761Y-231983390D02*
X347357142Y-231935771D01*
X347357142Y-231935771D02*
X347261904Y-231888152D01*
X347261904Y-231888152D02*
X347166666Y-231888152D01*
X346880951Y-231650057D02*
X346833332Y-231602438D01*
X346833332Y-231602438D02*
X346738094Y-231554819D01*
X346738094Y-231554819D02*
X346499999Y-231554819D01*
X346499999Y-231554819D02*
X346404761Y-231602438D01*
X346404761Y-231602438D02*
X346357142Y-231650057D01*
X346357142Y-231650057D02*
X346309523Y-231745295D01*
X346309523Y-231745295D02*
X346309523Y-231840533D01*
X346309523Y-231840533D02*
X346357142Y-231983390D01*
X346357142Y-231983390D02*
X346928570Y-232554819D01*
X346928570Y-232554819D02*
X346309523Y-232554819D01*
X345690475Y-231554819D02*
X345595237Y-231554819D01*
X345595237Y-231554819D02*
X345499999Y-231602438D01*
X345499999Y-231602438D02*
X345452380Y-231650057D01*
X345452380Y-231650057D02*
X345404761Y-231745295D01*
X345404761Y-231745295D02*
X345357142Y-231935771D01*
X345357142Y-231935771D02*
X345357142Y-232173866D01*
X345357142Y-232173866D02*
X345404761Y-232364342D01*
X345404761Y-232364342D02*
X345452380Y-232459580D01*
X345452380Y-232459580D02*
X345499999Y-232507200D01*
X345499999Y-232507200D02*
X345595237Y-232554819D01*
X345595237Y-232554819D02*
X345690475Y-232554819D01*
X345690475Y-232554819D02*
X345785713Y-232507200D01*
X345785713Y-232507200D02*
X345833332Y-232459580D01*
X345833332Y-232459580D02*
X345880951Y-232364342D01*
X345880951Y-232364342D02*
X345928570Y-232173866D01*
X345928570Y-232173866D02*
X345928570Y-231935771D01*
X345928570Y-231935771D02*
X345880951Y-231745295D01*
X345880951Y-231745295D02*
X345833332Y-231650057D01*
X345833332Y-231650057D02*
X345785713Y-231602438D01*
X345785713Y-231602438D02*
X345690475Y-231554819D01*
X350523809Y-238554819D02*
X350333333Y-238554819D01*
X350333333Y-238554819D02*
X350238095Y-238602438D01*
X350238095Y-238602438D02*
X350142857Y-238697676D01*
X350142857Y-238697676D02*
X350095238Y-238888152D01*
X350095238Y-238888152D02*
X350095238Y-239221485D01*
X350095238Y-239221485D02*
X350142857Y-239411961D01*
X350142857Y-239411961D02*
X350238095Y-239507200D01*
X350238095Y-239507200D02*
X350333333Y-239554819D01*
X350333333Y-239554819D02*
X350523809Y-239554819D01*
X350523809Y-239554819D02*
X350619047Y-239507200D01*
X350619047Y-239507200D02*
X350714285Y-239411961D01*
X350714285Y-239411961D02*
X350761904Y-239221485D01*
X350761904Y-239221485D02*
X350761904Y-238888152D01*
X350761904Y-238888152D02*
X350714285Y-238697676D01*
X350714285Y-238697676D02*
X350619047Y-238602438D01*
X350619047Y-238602438D02*
X350523809Y-238554819D01*
X349238095Y-238888152D02*
X349238095Y-239554819D01*
X349666666Y-238888152D02*
X349666666Y-239411961D01*
X349666666Y-239411961D02*
X349619047Y-239507200D01*
X349619047Y-239507200D02*
X349523809Y-239554819D01*
X349523809Y-239554819D02*
X349380952Y-239554819D01*
X349380952Y-239554819D02*
X349285714Y-239507200D01*
X349285714Y-239507200D02*
X349238095Y-239459580D01*
X348904761Y-238888152D02*
X348523809Y-238888152D01*
X348761904Y-238554819D02*
X348761904Y-239411961D01*
X348761904Y-239411961D02*
X348714285Y-239507200D01*
X348714285Y-239507200D02*
X348619047Y-239554819D01*
X348619047Y-239554819D02*
X348523809Y-239554819D01*
X347809523Y-239507200D02*
X347904761Y-239554819D01*
X347904761Y-239554819D02*
X348095237Y-239554819D01*
X348095237Y-239554819D02*
X348190475Y-239507200D01*
X348190475Y-239507200D02*
X348238094Y-239411961D01*
X348238094Y-239411961D02*
X348238094Y-239031009D01*
X348238094Y-239031009D02*
X348190475Y-238935771D01*
X348190475Y-238935771D02*
X348095237Y-238888152D01*
X348095237Y-238888152D02*
X347904761Y-238888152D01*
X347904761Y-238888152D02*
X347809523Y-238935771D01*
X347809523Y-238935771D02*
X347761904Y-239031009D01*
X347761904Y-239031009D02*
X347761904Y-239126247D01*
X347761904Y-239126247D02*
X348238094Y-239221485D01*
X347333332Y-239554819D02*
X347333332Y-238888152D01*
X347333332Y-239078628D02*
X347285713Y-238983390D01*
X347285713Y-238983390D02*
X347238094Y-238935771D01*
X347238094Y-238935771D02*
X347142856Y-238888152D01*
X347142856Y-238888152D02*
X347047618Y-238888152D01*
X346761903Y-238650057D02*
X346714284Y-238602438D01*
X346714284Y-238602438D02*
X346619046Y-238554819D01*
X346619046Y-238554819D02*
X346380951Y-238554819D01*
X346380951Y-238554819D02*
X346285713Y-238602438D01*
X346285713Y-238602438D02*
X346238094Y-238650057D01*
X346238094Y-238650057D02*
X346190475Y-238745295D01*
X346190475Y-238745295D02*
X346190475Y-238840533D01*
X346190475Y-238840533D02*
X346238094Y-238983390D01*
X346238094Y-238983390D02*
X346809522Y-239554819D01*
X346809522Y-239554819D02*
X346190475Y-239554819D01*
X345571427Y-238554819D02*
X345476189Y-238554819D01*
X345476189Y-238554819D02*
X345380951Y-238602438D01*
X345380951Y-238602438D02*
X345333332Y-238650057D01*
X345333332Y-238650057D02*
X345285713Y-238745295D01*
X345285713Y-238745295D02*
X345238094Y-238935771D01*
X345238094Y-238935771D02*
X345238094Y-239173866D01*
X345238094Y-239173866D02*
X345285713Y-239364342D01*
X345285713Y-239364342D02*
X345333332Y-239459580D01*
X345333332Y-239459580D02*
X345380951Y-239507200D01*
X345380951Y-239507200D02*
X345476189Y-239554819D01*
X345476189Y-239554819D02*
X345571427Y-239554819D01*
X345571427Y-239554819D02*
X345666665Y-239507200D01*
X345666665Y-239507200D02*
X345714284Y-239459580D01*
X345714284Y-239459580D02*
X345761903Y-239364342D01*
X345761903Y-239364342D02*
X345809522Y-239173866D01*
X345809522Y-239173866D02*
X345809522Y-238935771D01*
X345809522Y-238935771D02*
X345761903Y-238745295D01*
X345761903Y-238745295D02*
X345714284Y-238650057D01*
X345714284Y-238650057D02*
X345666665Y-238602438D01*
X345666665Y-238602438D02*
X345571427Y-238554819D01*
X225595237Y-232554819D02*
X225595237Y-231554819D01*
X225119047Y-231888152D02*
X225119047Y-232554819D01*
X225119047Y-231983390D02*
X225071428Y-231935771D01*
X225071428Y-231935771D02*
X224976190Y-231888152D01*
X224976190Y-231888152D02*
X224833333Y-231888152D01*
X224833333Y-231888152D02*
X224738095Y-231935771D01*
X224738095Y-231935771D02*
X224690476Y-232031009D01*
X224690476Y-232031009D02*
X224690476Y-232554819D01*
X224214285Y-231888152D02*
X224214285Y-232554819D01*
X224214285Y-231983390D02*
X224166666Y-231935771D01*
X224166666Y-231935771D02*
X224071428Y-231888152D01*
X224071428Y-231888152D02*
X223928571Y-231888152D01*
X223928571Y-231888152D02*
X223833333Y-231935771D01*
X223833333Y-231935771D02*
X223785714Y-232031009D01*
X223785714Y-232031009D02*
X223785714Y-232554819D01*
X222928571Y-232507200D02*
X223023809Y-232554819D01*
X223023809Y-232554819D02*
X223214285Y-232554819D01*
X223214285Y-232554819D02*
X223309523Y-232507200D01*
X223309523Y-232507200D02*
X223357142Y-232411961D01*
X223357142Y-232411961D02*
X223357142Y-232031009D01*
X223357142Y-232031009D02*
X223309523Y-231935771D01*
X223309523Y-231935771D02*
X223214285Y-231888152D01*
X223214285Y-231888152D02*
X223023809Y-231888152D01*
X223023809Y-231888152D02*
X222928571Y-231935771D01*
X222928571Y-231935771D02*
X222880952Y-232031009D01*
X222880952Y-232031009D02*
X222880952Y-232126247D01*
X222880952Y-232126247D02*
X223357142Y-232221485D01*
X222452380Y-232554819D02*
X222452380Y-231888152D01*
X222452380Y-232078628D02*
X222404761Y-231983390D01*
X222404761Y-231983390D02*
X222357142Y-231935771D01*
X222357142Y-231935771D02*
X222261904Y-231888152D01*
X222261904Y-231888152D02*
X222166666Y-231888152D01*
X221642856Y-231554819D02*
X221547618Y-231554819D01*
X221547618Y-231554819D02*
X221452380Y-231602438D01*
X221452380Y-231602438D02*
X221404761Y-231650057D01*
X221404761Y-231650057D02*
X221357142Y-231745295D01*
X221357142Y-231745295D02*
X221309523Y-231935771D01*
X221309523Y-231935771D02*
X221309523Y-232173866D01*
X221309523Y-232173866D02*
X221357142Y-232364342D01*
X221357142Y-232364342D02*
X221404761Y-232459580D01*
X221404761Y-232459580D02*
X221452380Y-232507200D01*
X221452380Y-232507200D02*
X221547618Y-232554819D01*
X221547618Y-232554819D02*
X221642856Y-232554819D01*
X221642856Y-232554819D02*
X221738094Y-232507200D01*
X221738094Y-232507200D02*
X221785713Y-232459580D01*
X221785713Y-232459580D02*
X221833332Y-232364342D01*
X221833332Y-232364342D02*
X221880951Y-232173866D01*
X221880951Y-232173866D02*
X221880951Y-231935771D01*
X221880951Y-231935771D02*
X221833332Y-231745295D01*
X221833332Y-231745295D02*
X221785713Y-231650057D01*
X221785713Y-231650057D02*
X221738094Y-231602438D01*
X221738094Y-231602438D02*
X221642856Y-231554819D01*
X220452380Y-231554819D02*
X220642856Y-231554819D01*
X220642856Y-231554819D02*
X220738094Y-231602438D01*
X220738094Y-231602438D02*
X220785713Y-231650057D01*
X220785713Y-231650057D02*
X220880951Y-231792914D01*
X220880951Y-231792914D02*
X220928570Y-231983390D01*
X220928570Y-231983390D02*
X220928570Y-232364342D01*
X220928570Y-232364342D02*
X220880951Y-232459580D01*
X220880951Y-232459580D02*
X220833332Y-232507200D01*
X220833332Y-232507200D02*
X220738094Y-232554819D01*
X220738094Y-232554819D02*
X220547618Y-232554819D01*
X220547618Y-232554819D02*
X220452380Y-232507200D01*
X220452380Y-232507200D02*
X220404761Y-232459580D01*
X220404761Y-232459580D02*
X220357142Y-232364342D01*
X220357142Y-232364342D02*
X220357142Y-232126247D01*
X220357142Y-232126247D02*
X220404761Y-232031009D01*
X220404761Y-232031009D02*
X220452380Y-231983390D01*
X220452380Y-231983390D02*
X220547618Y-231935771D01*
X220547618Y-231935771D02*
X220738094Y-231935771D01*
X220738094Y-231935771D02*
X220833332Y-231983390D01*
X220833332Y-231983390D02*
X220880951Y-232031009D01*
X220880951Y-232031009D02*
X220928570Y-232126247D01*
X313095237Y-232554819D02*
X313095237Y-231554819D01*
X312619047Y-231888152D02*
X312619047Y-232554819D01*
X312619047Y-231983390D02*
X312571428Y-231935771D01*
X312571428Y-231935771D02*
X312476190Y-231888152D01*
X312476190Y-231888152D02*
X312333333Y-231888152D01*
X312333333Y-231888152D02*
X312238095Y-231935771D01*
X312238095Y-231935771D02*
X312190476Y-232031009D01*
X312190476Y-232031009D02*
X312190476Y-232554819D01*
X311714285Y-231888152D02*
X311714285Y-232554819D01*
X311714285Y-231983390D02*
X311666666Y-231935771D01*
X311666666Y-231935771D02*
X311571428Y-231888152D01*
X311571428Y-231888152D02*
X311428571Y-231888152D01*
X311428571Y-231888152D02*
X311333333Y-231935771D01*
X311333333Y-231935771D02*
X311285714Y-232031009D01*
X311285714Y-232031009D02*
X311285714Y-232554819D01*
X310428571Y-232507200D02*
X310523809Y-232554819D01*
X310523809Y-232554819D02*
X310714285Y-232554819D01*
X310714285Y-232554819D02*
X310809523Y-232507200D01*
X310809523Y-232507200D02*
X310857142Y-232411961D01*
X310857142Y-232411961D02*
X310857142Y-232031009D01*
X310857142Y-232031009D02*
X310809523Y-231935771D01*
X310809523Y-231935771D02*
X310714285Y-231888152D01*
X310714285Y-231888152D02*
X310523809Y-231888152D01*
X310523809Y-231888152D02*
X310428571Y-231935771D01*
X310428571Y-231935771D02*
X310380952Y-232031009D01*
X310380952Y-232031009D02*
X310380952Y-232126247D01*
X310380952Y-232126247D02*
X310857142Y-232221485D01*
X309952380Y-232554819D02*
X309952380Y-231888152D01*
X309952380Y-232078628D02*
X309904761Y-231983390D01*
X309904761Y-231983390D02*
X309857142Y-231935771D01*
X309857142Y-231935771D02*
X309761904Y-231888152D01*
X309761904Y-231888152D02*
X309666666Y-231888152D01*
X308809523Y-232554819D02*
X309380951Y-232554819D01*
X309095237Y-232554819D02*
X309095237Y-231554819D01*
X309095237Y-231554819D02*
X309190475Y-231697676D01*
X309190475Y-231697676D02*
X309285713Y-231792914D01*
X309285713Y-231792914D02*
X309380951Y-231840533D01*
X307904761Y-231554819D02*
X308380951Y-231554819D01*
X308380951Y-231554819D02*
X308428570Y-232031009D01*
X308428570Y-232031009D02*
X308380951Y-231983390D01*
X308380951Y-231983390D02*
X308285713Y-231935771D01*
X308285713Y-231935771D02*
X308047618Y-231935771D01*
X308047618Y-231935771D02*
X307952380Y-231983390D01*
X307952380Y-231983390D02*
X307904761Y-232031009D01*
X307904761Y-232031009D02*
X307857142Y-232126247D01*
X307857142Y-232126247D02*
X307857142Y-232364342D01*
X307857142Y-232364342D02*
X307904761Y-232459580D01*
X307904761Y-232459580D02*
X307952380Y-232507200D01*
X307952380Y-232507200D02*
X308047618Y-232554819D01*
X308047618Y-232554819D02*
X308285713Y-232554819D01*
X308285713Y-232554819D02*
X308380951Y-232507200D01*
X308380951Y-232507200D02*
X308428570Y-232459580D01*
X425595237Y-232554819D02*
X425595237Y-231554819D01*
X425119047Y-231888152D02*
X425119047Y-232554819D01*
X425119047Y-231983390D02*
X425071428Y-231935771D01*
X425071428Y-231935771D02*
X424976190Y-231888152D01*
X424976190Y-231888152D02*
X424833333Y-231888152D01*
X424833333Y-231888152D02*
X424738095Y-231935771D01*
X424738095Y-231935771D02*
X424690476Y-232031009D01*
X424690476Y-232031009D02*
X424690476Y-232554819D01*
X424214285Y-231888152D02*
X424214285Y-232554819D01*
X424214285Y-231983390D02*
X424166666Y-231935771D01*
X424166666Y-231935771D02*
X424071428Y-231888152D01*
X424071428Y-231888152D02*
X423928571Y-231888152D01*
X423928571Y-231888152D02*
X423833333Y-231935771D01*
X423833333Y-231935771D02*
X423785714Y-232031009D01*
X423785714Y-232031009D02*
X423785714Y-232554819D01*
X422928571Y-232507200D02*
X423023809Y-232554819D01*
X423023809Y-232554819D02*
X423214285Y-232554819D01*
X423214285Y-232554819D02*
X423309523Y-232507200D01*
X423309523Y-232507200D02*
X423357142Y-232411961D01*
X423357142Y-232411961D02*
X423357142Y-232031009D01*
X423357142Y-232031009D02*
X423309523Y-231935771D01*
X423309523Y-231935771D02*
X423214285Y-231888152D01*
X423214285Y-231888152D02*
X423023809Y-231888152D01*
X423023809Y-231888152D02*
X422928571Y-231935771D01*
X422928571Y-231935771D02*
X422880952Y-232031009D01*
X422880952Y-232031009D02*
X422880952Y-232126247D01*
X422880952Y-232126247D02*
X423357142Y-232221485D01*
X422452380Y-232554819D02*
X422452380Y-231888152D01*
X422452380Y-232078628D02*
X422404761Y-231983390D01*
X422404761Y-231983390D02*
X422357142Y-231935771D01*
X422357142Y-231935771D02*
X422261904Y-231888152D01*
X422261904Y-231888152D02*
X422166666Y-231888152D01*
X421880951Y-231650057D02*
X421833332Y-231602438D01*
X421833332Y-231602438D02*
X421738094Y-231554819D01*
X421738094Y-231554819D02*
X421499999Y-231554819D01*
X421499999Y-231554819D02*
X421404761Y-231602438D01*
X421404761Y-231602438D02*
X421357142Y-231650057D01*
X421357142Y-231650057D02*
X421309523Y-231745295D01*
X421309523Y-231745295D02*
X421309523Y-231840533D01*
X421309523Y-231840533D02*
X421357142Y-231983390D01*
X421357142Y-231983390D02*
X421928570Y-232554819D01*
X421928570Y-232554819D02*
X421309523Y-232554819D01*
X420452380Y-231554819D02*
X420642856Y-231554819D01*
X420642856Y-231554819D02*
X420738094Y-231602438D01*
X420738094Y-231602438D02*
X420785713Y-231650057D01*
X420785713Y-231650057D02*
X420880951Y-231792914D01*
X420880951Y-231792914D02*
X420928570Y-231983390D01*
X420928570Y-231983390D02*
X420928570Y-232364342D01*
X420928570Y-232364342D02*
X420880951Y-232459580D01*
X420880951Y-232459580D02*
X420833332Y-232507200D01*
X420833332Y-232507200D02*
X420738094Y-232554819D01*
X420738094Y-232554819D02*
X420547618Y-232554819D01*
X420547618Y-232554819D02*
X420452380Y-232507200D01*
X420452380Y-232507200D02*
X420404761Y-232459580D01*
X420404761Y-232459580D02*
X420357142Y-232364342D01*
X420357142Y-232364342D02*
X420357142Y-232126247D01*
X420357142Y-232126247D02*
X420404761Y-232031009D01*
X420404761Y-232031009D02*
X420452380Y-231983390D01*
X420452380Y-231983390D02*
X420547618Y-231935771D01*
X420547618Y-231935771D02*
X420738094Y-231935771D01*
X420738094Y-231935771D02*
X420833332Y-231983390D01*
X420833332Y-231983390D02*
X420880951Y-232031009D01*
X420880951Y-232031009D02*
X420928570Y-232126247D01*
X238095237Y-232554819D02*
X238095237Y-231554819D01*
X237619047Y-231888152D02*
X237619047Y-232554819D01*
X237619047Y-231983390D02*
X237571428Y-231935771D01*
X237571428Y-231935771D02*
X237476190Y-231888152D01*
X237476190Y-231888152D02*
X237333333Y-231888152D01*
X237333333Y-231888152D02*
X237238095Y-231935771D01*
X237238095Y-231935771D02*
X237190476Y-232031009D01*
X237190476Y-232031009D02*
X237190476Y-232554819D01*
X236714285Y-231888152D02*
X236714285Y-232554819D01*
X236714285Y-231983390D02*
X236666666Y-231935771D01*
X236666666Y-231935771D02*
X236571428Y-231888152D01*
X236571428Y-231888152D02*
X236428571Y-231888152D01*
X236428571Y-231888152D02*
X236333333Y-231935771D01*
X236333333Y-231935771D02*
X236285714Y-232031009D01*
X236285714Y-232031009D02*
X236285714Y-232554819D01*
X235428571Y-232507200D02*
X235523809Y-232554819D01*
X235523809Y-232554819D02*
X235714285Y-232554819D01*
X235714285Y-232554819D02*
X235809523Y-232507200D01*
X235809523Y-232507200D02*
X235857142Y-232411961D01*
X235857142Y-232411961D02*
X235857142Y-232031009D01*
X235857142Y-232031009D02*
X235809523Y-231935771D01*
X235809523Y-231935771D02*
X235714285Y-231888152D01*
X235714285Y-231888152D02*
X235523809Y-231888152D01*
X235523809Y-231888152D02*
X235428571Y-231935771D01*
X235428571Y-231935771D02*
X235380952Y-232031009D01*
X235380952Y-232031009D02*
X235380952Y-232126247D01*
X235380952Y-232126247D02*
X235857142Y-232221485D01*
X234952380Y-232554819D02*
X234952380Y-231888152D01*
X234952380Y-232078628D02*
X234904761Y-231983390D01*
X234904761Y-231983390D02*
X234857142Y-231935771D01*
X234857142Y-231935771D02*
X234761904Y-231888152D01*
X234761904Y-231888152D02*
X234666666Y-231888152D01*
X234142856Y-231554819D02*
X234047618Y-231554819D01*
X234047618Y-231554819D02*
X233952380Y-231602438D01*
X233952380Y-231602438D02*
X233904761Y-231650057D01*
X233904761Y-231650057D02*
X233857142Y-231745295D01*
X233857142Y-231745295D02*
X233809523Y-231935771D01*
X233809523Y-231935771D02*
X233809523Y-232173866D01*
X233809523Y-232173866D02*
X233857142Y-232364342D01*
X233857142Y-232364342D02*
X233904761Y-232459580D01*
X233904761Y-232459580D02*
X233952380Y-232507200D01*
X233952380Y-232507200D02*
X234047618Y-232554819D01*
X234047618Y-232554819D02*
X234142856Y-232554819D01*
X234142856Y-232554819D02*
X234238094Y-232507200D01*
X234238094Y-232507200D02*
X234285713Y-232459580D01*
X234285713Y-232459580D02*
X234333332Y-232364342D01*
X234333332Y-232364342D02*
X234380951Y-232173866D01*
X234380951Y-232173866D02*
X234380951Y-231935771D01*
X234380951Y-231935771D02*
X234333332Y-231745295D01*
X234333332Y-231745295D02*
X234285713Y-231650057D01*
X234285713Y-231650057D02*
X234238094Y-231602438D01*
X234238094Y-231602438D02*
X234142856Y-231554819D01*
X233476189Y-231554819D02*
X232809523Y-231554819D01*
X232809523Y-231554819D02*
X233238094Y-232554819D01*
X363095237Y-232554819D02*
X363095237Y-231554819D01*
X362619047Y-231888152D02*
X362619047Y-232554819D01*
X362619047Y-231983390D02*
X362571428Y-231935771D01*
X362571428Y-231935771D02*
X362476190Y-231888152D01*
X362476190Y-231888152D02*
X362333333Y-231888152D01*
X362333333Y-231888152D02*
X362238095Y-231935771D01*
X362238095Y-231935771D02*
X362190476Y-232031009D01*
X362190476Y-232031009D02*
X362190476Y-232554819D01*
X361714285Y-231888152D02*
X361714285Y-232554819D01*
X361714285Y-231983390D02*
X361666666Y-231935771D01*
X361666666Y-231935771D02*
X361571428Y-231888152D01*
X361571428Y-231888152D02*
X361428571Y-231888152D01*
X361428571Y-231888152D02*
X361333333Y-231935771D01*
X361333333Y-231935771D02*
X361285714Y-232031009D01*
X361285714Y-232031009D02*
X361285714Y-232554819D01*
X360428571Y-232507200D02*
X360523809Y-232554819D01*
X360523809Y-232554819D02*
X360714285Y-232554819D01*
X360714285Y-232554819D02*
X360809523Y-232507200D01*
X360809523Y-232507200D02*
X360857142Y-232411961D01*
X360857142Y-232411961D02*
X360857142Y-232031009D01*
X360857142Y-232031009D02*
X360809523Y-231935771D01*
X360809523Y-231935771D02*
X360714285Y-231888152D01*
X360714285Y-231888152D02*
X360523809Y-231888152D01*
X360523809Y-231888152D02*
X360428571Y-231935771D01*
X360428571Y-231935771D02*
X360380952Y-232031009D01*
X360380952Y-232031009D02*
X360380952Y-232126247D01*
X360380952Y-232126247D02*
X360857142Y-232221485D01*
X359952380Y-232554819D02*
X359952380Y-231888152D01*
X359952380Y-232078628D02*
X359904761Y-231983390D01*
X359904761Y-231983390D02*
X359857142Y-231935771D01*
X359857142Y-231935771D02*
X359761904Y-231888152D01*
X359761904Y-231888152D02*
X359666666Y-231888152D01*
X359380951Y-231650057D02*
X359333332Y-231602438D01*
X359333332Y-231602438D02*
X359238094Y-231554819D01*
X359238094Y-231554819D02*
X358999999Y-231554819D01*
X358999999Y-231554819D02*
X358904761Y-231602438D01*
X358904761Y-231602438D02*
X358857142Y-231650057D01*
X358857142Y-231650057D02*
X358809523Y-231745295D01*
X358809523Y-231745295D02*
X358809523Y-231840533D01*
X358809523Y-231840533D02*
X358857142Y-231983390D01*
X358857142Y-231983390D02*
X359428570Y-232554819D01*
X359428570Y-232554819D02*
X358809523Y-232554819D01*
X357857142Y-232554819D02*
X358428570Y-232554819D01*
X358142856Y-232554819D02*
X358142856Y-231554819D01*
X358142856Y-231554819D02*
X358238094Y-231697676D01*
X358238094Y-231697676D02*
X358333332Y-231792914D01*
X358333332Y-231792914D02*
X358428570Y-231840533D01*
X250523809Y-238554819D02*
X250333333Y-238554819D01*
X250333333Y-238554819D02*
X250238095Y-238602438D01*
X250238095Y-238602438D02*
X250142857Y-238697676D01*
X250142857Y-238697676D02*
X250095238Y-238888152D01*
X250095238Y-238888152D02*
X250095238Y-239221485D01*
X250095238Y-239221485D02*
X250142857Y-239411961D01*
X250142857Y-239411961D02*
X250238095Y-239507200D01*
X250238095Y-239507200D02*
X250333333Y-239554819D01*
X250333333Y-239554819D02*
X250523809Y-239554819D01*
X250523809Y-239554819D02*
X250619047Y-239507200D01*
X250619047Y-239507200D02*
X250714285Y-239411961D01*
X250714285Y-239411961D02*
X250761904Y-239221485D01*
X250761904Y-239221485D02*
X250761904Y-238888152D01*
X250761904Y-238888152D02*
X250714285Y-238697676D01*
X250714285Y-238697676D02*
X250619047Y-238602438D01*
X250619047Y-238602438D02*
X250523809Y-238554819D01*
X249238095Y-238888152D02*
X249238095Y-239554819D01*
X249666666Y-238888152D02*
X249666666Y-239411961D01*
X249666666Y-239411961D02*
X249619047Y-239507200D01*
X249619047Y-239507200D02*
X249523809Y-239554819D01*
X249523809Y-239554819D02*
X249380952Y-239554819D01*
X249380952Y-239554819D02*
X249285714Y-239507200D01*
X249285714Y-239507200D02*
X249238095Y-239459580D01*
X248904761Y-238888152D02*
X248523809Y-238888152D01*
X248761904Y-238554819D02*
X248761904Y-239411961D01*
X248761904Y-239411961D02*
X248714285Y-239507200D01*
X248714285Y-239507200D02*
X248619047Y-239554819D01*
X248619047Y-239554819D02*
X248523809Y-239554819D01*
X247809523Y-239507200D02*
X247904761Y-239554819D01*
X247904761Y-239554819D02*
X248095237Y-239554819D01*
X248095237Y-239554819D02*
X248190475Y-239507200D01*
X248190475Y-239507200D02*
X248238094Y-239411961D01*
X248238094Y-239411961D02*
X248238094Y-239031009D01*
X248238094Y-239031009D02*
X248190475Y-238935771D01*
X248190475Y-238935771D02*
X248095237Y-238888152D01*
X248095237Y-238888152D02*
X247904761Y-238888152D01*
X247904761Y-238888152D02*
X247809523Y-238935771D01*
X247809523Y-238935771D02*
X247761904Y-239031009D01*
X247761904Y-239031009D02*
X247761904Y-239126247D01*
X247761904Y-239126247D02*
X248238094Y-239221485D01*
X247333332Y-239554819D02*
X247333332Y-238888152D01*
X247333332Y-239078628D02*
X247285713Y-238983390D01*
X247285713Y-238983390D02*
X247238094Y-238935771D01*
X247238094Y-238935771D02*
X247142856Y-238888152D01*
X247142856Y-238888152D02*
X247047618Y-238888152D01*
X246190475Y-239554819D02*
X246761903Y-239554819D01*
X246476189Y-239554819D02*
X246476189Y-238554819D01*
X246476189Y-238554819D02*
X246571427Y-238697676D01*
X246571427Y-238697676D02*
X246666665Y-238792914D01*
X246666665Y-238792914D02*
X246761903Y-238840533D01*
X245571427Y-238554819D02*
X245476189Y-238554819D01*
X245476189Y-238554819D02*
X245380951Y-238602438D01*
X245380951Y-238602438D02*
X245333332Y-238650057D01*
X245333332Y-238650057D02*
X245285713Y-238745295D01*
X245285713Y-238745295D02*
X245238094Y-238935771D01*
X245238094Y-238935771D02*
X245238094Y-239173866D01*
X245238094Y-239173866D02*
X245285713Y-239364342D01*
X245285713Y-239364342D02*
X245333332Y-239459580D01*
X245333332Y-239459580D02*
X245380951Y-239507200D01*
X245380951Y-239507200D02*
X245476189Y-239554819D01*
X245476189Y-239554819D02*
X245571427Y-239554819D01*
X245571427Y-239554819D02*
X245666665Y-239507200D01*
X245666665Y-239507200D02*
X245714284Y-239459580D01*
X245714284Y-239459580D02*
X245761903Y-239364342D01*
X245761903Y-239364342D02*
X245809522Y-239173866D01*
X245809522Y-239173866D02*
X245809522Y-238935771D01*
X245809522Y-238935771D02*
X245761903Y-238745295D01*
X245761903Y-238745295D02*
X245714284Y-238650057D01*
X245714284Y-238650057D02*
X245666665Y-238602438D01*
X245666665Y-238602438D02*
X245571427Y-238554819D01*
X288095237Y-232554819D02*
X288095237Y-231554819D01*
X287619047Y-231888152D02*
X287619047Y-232554819D01*
X287619047Y-231983390D02*
X287571428Y-231935771D01*
X287571428Y-231935771D02*
X287476190Y-231888152D01*
X287476190Y-231888152D02*
X287333333Y-231888152D01*
X287333333Y-231888152D02*
X287238095Y-231935771D01*
X287238095Y-231935771D02*
X287190476Y-232031009D01*
X287190476Y-232031009D02*
X287190476Y-232554819D01*
X286714285Y-231888152D02*
X286714285Y-232554819D01*
X286714285Y-231983390D02*
X286666666Y-231935771D01*
X286666666Y-231935771D02*
X286571428Y-231888152D01*
X286571428Y-231888152D02*
X286428571Y-231888152D01*
X286428571Y-231888152D02*
X286333333Y-231935771D01*
X286333333Y-231935771D02*
X286285714Y-232031009D01*
X286285714Y-232031009D02*
X286285714Y-232554819D01*
X285428571Y-232507200D02*
X285523809Y-232554819D01*
X285523809Y-232554819D02*
X285714285Y-232554819D01*
X285714285Y-232554819D02*
X285809523Y-232507200D01*
X285809523Y-232507200D02*
X285857142Y-232411961D01*
X285857142Y-232411961D02*
X285857142Y-232031009D01*
X285857142Y-232031009D02*
X285809523Y-231935771D01*
X285809523Y-231935771D02*
X285714285Y-231888152D01*
X285714285Y-231888152D02*
X285523809Y-231888152D01*
X285523809Y-231888152D02*
X285428571Y-231935771D01*
X285428571Y-231935771D02*
X285380952Y-232031009D01*
X285380952Y-232031009D02*
X285380952Y-232126247D01*
X285380952Y-232126247D02*
X285857142Y-232221485D01*
X284952380Y-232554819D02*
X284952380Y-231888152D01*
X284952380Y-232078628D02*
X284904761Y-231983390D01*
X284904761Y-231983390D02*
X284857142Y-231935771D01*
X284857142Y-231935771D02*
X284761904Y-231888152D01*
X284761904Y-231888152D02*
X284666666Y-231888152D01*
X283809523Y-232554819D02*
X284380951Y-232554819D01*
X284095237Y-232554819D02*
X284095237Y-231554819D01*
X284095237Y-231554819D02*
X284190475Y-231697676D01*
X284190475Y-231697676D02*
X284285713Y-231792914D01*
X284285713Y-231792914D02*
X284380951Y-231840533D01*
X283476189Y-231554819D02*
X282857142Y-231554819D01*
X282857142Y-231554819D02*
X283190475Y-231935771D01*
X283190475Y-231935771D02*
X283047618Y-231935771D01*
X283047618Y-231935771D02*
X282952380Y-231983390D01*
X282952380Y-231983390D02*
X282904761Y-232031009D01*
X282904761Y-232031009D02*
X282857142Y-232126247D01*
X282857142Y-232126247D02*
X282857142Y-232364342D01*
X282857142Y-232364342D02*
X282904761Y-232459580D01*
X282904761Y-232459580D02*
X282952380Y-232507200D01*
X282952380Y-232507200D02*
X283047618Y-232554819D01*
X283047618Y-232554819D02*
X283333332Y-232554819D01*
X283333332Y-232554819D02*
X283428570Y-232507200D01*
X283428570Y-232507200D02*
X283476189Y-232459580D01*
X238023809Y-238554819D02*
X237833333Y-238554819D01*
X237833333Y-238554819D02*
X237738095Y-238602438D01*
X237738095Y-238602438D02*
X237642857Y-238697676D01*
X237642857Y-238697676D02*
X237595238Y-238888152D01*
X237595238Y-238888152D02*
X237595238Y-239221485D01*
X237595238Y-239221485D02*
X237642857Y-239411961D01*
X237642857Y-239411961D02*
X237738095Y-239507200D01*
X237738095Y-239507200D02*
X237833333Y-239554819D01*
X237833333Y-239554819D02*
X238023809Y-239554819D01*
X238023809Y-239554819D02*
X238119047Y-239507200D01*
X238119047Y-239507200D02*
X238214285Y-239411961D01*
X238214285Y-239411961D02*
X238261904Y-239221485D01*
X238261904Y-239221485D02*
X238261904Y-238888152D01*
X238261904Y-238888152D02*
X238214285Y-238697676D01*
X238214285Y-238697676D02*
X238119047Y-238602438D01*
X238119047Y-238602438D02*
X238023809Y-238554819D01*
X236738095Y-238888152D02*
X236738095Y-239554819D01*
X237166666Y-238888152D02*
X237166666Y-239411961D01*
X237166666Y-239411961D02*
X237119047Y-239507200D01*
X237119047Y-239507200D02*
X237023809Y-239554819D01*
X237023809Y-239554819D02*
X236880952Y-239554819D01*
X236880952Y-239554819D02*
X236785714Y-239507200D01*
X236785714Y-239507200D02*
X236738095Y-239459580D01*
X236404761Y-238888152D02*
X236023809Y-238888152D01*
X236261904Y-238554819D02*
X236261904Y-239411961D01*
X236261904Y-239411961D02*
X236214285Y-239507200D01*
X236214285Y-239507200D02*
X236119047Y-239554819D01*
X236119047Y-239554819D02*
X236023809Y-239554819D01*
X235309523Y-239507200D02*
X235404761Y-239554819D01*
X235404761Y-239554819D02*
X235595237Y-239554819D01*
X235595237Y-239554819D02*
X235690475Y-239507200D01*
X235690475Y-239507200D02*
X235738094Y-239411961D01*
X235738094Y-239411961D02*
X235738094Y-239031009D01*
X235738094Y-239031009D02*
X235690475Y-238935771D01*
X235690475Y-238935771D02*
X235595237Y-238888152D01*
X235595237Y-238888152D02*
X235404761Y-238888152D01*
X235404761Y-238888152D02*
X235309523Y-238935771D01*
X235309523Y-238935771D02*
X235261904Y-239031009D01*
X235261904Y-239031009D02*
X235261904Y-239126247D01*
X235261904Y-239126247D02*
X235738094Y-239221485D01*
X234833332Y-239554819D02*
X234833332Y-238888152D01*
X234833332Y-239078628D02*
X234785713Y-238983390D01*
X234785713Y-238983390D02*
X234738094Y-238935771D01*
X234738094Y-238935771D02*
X234642856Y-238888152D01*
X234642856Y-238888152D02*
X234547618Y-238888152D01*
X234023808Y-238554819D02*
X233928570Y-238554819D01*
X233928570Y-238554819D02*
X233833332Y-238602438D01*
X233833332Y-238602438D02*
X233785713Y-238650057D01*
X233785713Y-238650057D02*
X233738094Y-238745295D01*
X233738094Y-238745295D02*
X233690475Y-238935771D01*
X233690475Y-238935771D02*
X233690475Y-239173866D01*
X233690475Y-239173866D02*
X233738094Y-239364342D01*
X233738094Y-239364342D02*
X233785713Y-239459580D01*
X233785713Y-239459580D02*
X233833332Y-239507200D01*
X233833332Y-239507200D02*
X233928570Y-239554819D01*
X233928570Y-239554819D02*
X234023808Y-239554819D01*
X234023808Y-239554819D02*
X234119046Y-239507200D01*
X234119046Y-239507200D02*
X234166665Y-239459580D01*
X234166665Y-239459580D02*
X234214284Y-239364342D01*
X234214284Y-239364342D02*
X234261903Y-239173866D01*
X234261903Y-239173866D02*
X234261903Y-238935771D01*
X234261903Y-238935771D02*
X234214284Y-238745295D01*
X234214284Y-238745295D02*
X234166665Y-238650057D01*
X234166665Y-238650057D02*
X234119046Y-238602438D01*
X234119046Y-238602438D02*
X234023808Y-238554819D01*
X233357141Y-238554819D02*
X232690475Y-238554819D01*
X232690475Y-238554819D02*
X233119046Y-239554819D01*
X225523809Y-238554819D02*
X225333333Y-238554819D01*
X225333333Y-238554819D02*
X225238095Y-238602438D01*
X225238095Y-238602438D02*
X225142857Y-238697676D01*
X225142857Y-238697676D02*
X225095238Y-238888152D01*
X225095238Y-238888152D02*
X225095238Y-239221485D01*
X225095238Y-239221485D02*
X225142857Y-239411961D01*
X225142857Y-239411961D02*
X225238095Y-239507200D01*
X225238095Y-239507200D02*
X225333333Y-239554819D01*
X225333333Y-239554819D02*
X225523809Y-239554819D01*
X225523809Y-239554819D02*
X225619047Y-239507200D01*
X225619047Y-239507200D02*
X225714285Y-239411961D01*
X225714285Y-239411961D02*
X225761904Y-239221485D01*
X225761904Y-239221485D02*
X225761904Y-238888152D01*
X225761904Y-238888152D02*
X225714285Y-238697676D01*
X225714285Y-238697676D02*
X225619047Y-238602438D01*
X225619047Y-238602438D02*
X225523809Y-238554819D01*
X224238095Y-238888152D02*
X224238095Y-239554819D01*
X224666666Y-238888152D02*
X224666666Y-239411961D01*
X224666666Y-239411961D02*
X224619047Y-239507200D01*
X224619047Y-239507200D02*
X224523809Y-239554819D01*
X224523809Y-239554819D02*
X224380952Y-239554819D01*
X224380952Y-239554819D02*
X224285714Y-239507200D01*
X224285714Y-239507200D02*
X224238095Y-239459580D01*
X223904761Y-238888152D02*
X223523809Y-238888152D01*
X223761904Y-238554819D02*
X223761904Y-239411961D01*
X223761904Y-239411961D02*
X223714285Y-239507200D01*
X223714285Y-239507200D02*
X223619047Y-239554819D01*
X223619047Y-239554819D02*
X223523809Y-239554819D01*
X222809523Y-239507200D02*
X222904761Y-239554819D01*
X222904761Y-239554819D02*
X223095237Y-239554819D01*
X223095237Y-239554819D02*
X223190475Y-239507200D01*
X223190475Y-239507200D02*
X223238094Y-239411961D01*
X223238094Y-239411961D02*
X223238094Y-239031009D01*
X223238094Y-239031009D02*
X223190475Y-238935771D01*
X223190475Y-238935771D02*
X223095237Y-238888152D01*
X223095237Y-238888152D02*
X222904761Y-238888152D01*
X222904761Y-238888152D02*
X222809523Y-238935771D01*
X222809523Y-238935771D02*
X222761904Y-239031009D01*
X222761904Y-239031009D02*
X222761904Y-239126247D01*
X222761904Y-239126247D02*
X223238094Y-239221485D01*
X222333332Y-239554819D02*
X222333332Y-238888152D01*
X222333332Y-239078628D02*
X222285713Y-238983390D01*
X222285713Y-238983390D02*
X222238094Y-238935771D01*
X222238094Y-238935771D02*
X222142856Y-238888152D01*
X222142856Y-238888152D02*
X222047618Y-238888152D01*
X221523808Y-238554819D02*
X221428570Y-238554819D01*
X221428570Y-238554819D02*
X221333332Y-238602438D01*
X221333332Y-238602438D02*
X221285713Y-238650057D01*
X221285713Y-238650057D02*
X221238094Y-238745295D01*
X221238094Y-238745295D02*
X221190475Y-238935771D01*
X221190475Y-238935771D02*
X221190475Y-239173866D01*
X221190475Y-239173866D02*
X221238094Y-239364342D01*
X221238094Y-239364342D02*
X221285713Y-239459580D01*
X221285713Y-239459580D02*
X221333332Y-239507200D01*
X221333332Y-239507200D02*
X221428570Y-239554819D01*
X221428570Y-239554819D02*
X221523808Y-239554819D01*
X221523808Y-239554819D02*
X221619046Y-239507200D01*
X221619046Y-239507200D02*
X221666665Y-239459580D01*
X221666665Y-239459580D02*
X221714284Y-239364342D01*
X221714284Y-239364342D02*
X221761903Y-239173866D01*
X221761903Y-239173866D02*
X221761903Y-238935771D01*
X221761903Y-238935771D02*
X221714284Y-238745295D01*
X221714284Y-238745295D02*
X221666665Y-238650057D01*
X221666665Y-238650057D02*
X221619046Y-238602438D01*
X221619046Y-238602438D02*
X221523808Y-238554819D01*
X220333332Y-238554819D02*
X220523808Y-238554819D01*
X220523808Y-238554819D02*
X220619046Y-238602438D01*
X220619046Y-238602438D02*
X220666665Y-238650057D01*
X220666665Y-238650057D02*
X220761903Y-238792914D01*
X220761903Y-238792914D02*
X220809522Y-238983390D01*
X220809522Y-238983390D02*
X220809522Y-239364342D01*
X220809522Y-239364342D02*
X220761903Y-239459580D01*
X220761903Y-239459580D02*
X220714284Y-239507200D01*
X220714284Y-239507200D02*
X220619046Y-239554819D01*
X220619046Y-239554819D02*
X220428570Y-239554819D01*
X220428570Y-239554819D02*
X220333332Y-239507200D01*
X220333332Y-239507200D02*
X220285713Y-239459580D01*
X220285713Y-239459580D02*
X220238094Y-239364342D01*
X220238094Y-239364342D02*
X220238094Y-239126247D01*
X220238094Y-239126247D02*
X220285713Y-239031009D01*
X220285713Y-239031009D02*
X220333332Y-238983390D01*
X220333332Y-238983390D02*
X220428570Y-238935771D01*
X220428570Y-238935771D02*
X220619046Y-238935771D01*
X220619046Y-238935771D02*
X220714284Y-238983390D01*
X220714284Y-238983390D02*
X220761903Y-239031009D01*
X220761903Y-239031009D02*
X220809522Y-239126247D01*
X325595237Y-232554819D02*
X325595237Y-231554819D01*
X325119047Y-231888152D02*
X325119047Y-232554819D01*
X325119047Y-231983390D02*
X325071428Y-231935771D01*
X325071428Y-231935771D02*
X324976190Y-231888152D01*
X324976190Y-231888152D02*
X324833333Y-231888152D01*
X324833333Y-231888152D02*
X324738095Y-231935771D01*
X324738095Y-231935771D02*
X324690476Y-232031009D01*
X324690476Y-232031009D02*
X324690476Y-232554819D01*
X324214285Y-231888152D02*
X324214285Y-232554819D01*
X324214285Y-231983390D02*
X324166666Y-231935771D01*
X324166666Y-231935771D02*
X324071428Y-231888152D01*
X324071428Y-231888152D02*
X323928571Y-231888152D01*
X323928571Y-231888152D02*
X323833333Y-231935771D01*
X323833333Y-231935771D02*
X323785714Y-232031009D01*
X323785714Y-232031009D02*
X323785714Y-232554819D01*
X322928571Y-232507200D02*
X323023809Y-232554819D01*
X323023809Y-232554819D02*
X323214285Y-232554819D01*
X323214285Y-232554819D02*
X323309523Y-232507200D01*
X323309523Y-232507200D02*
X323357142Y-232411961D01*
X323357142Y-232411961D02*
X323357142Y-232031009D01*
X323357142Y-232031009D02*
X323309523Y-231935771D01*
X323309523Y-231935771D02*
X323214285Y-231888152D01*
X323214285Y-231888152D02*
X323023809Y-231888152D01*
X323023809Y-231888152D02*
X322928571Y-231935771D01*
X322928571Y-231935771D02*
X322880952Y-232031009D01*
X322880952Y-232031009D02*
X322880952Y-232126247D01*
X322880952Y-232126247D02*
X323357142Y-232221485D01*
X322452380Y-232554819D02*
X322452380Y-231888152D01*
X322452380Y-232078628D02*
X322404761Y-231983390D01*
X322404761Y-231983390D02*
X322357142Y-231935771D01*
X322357142Y-231935771D02*
X322261904Y-231888152D01*
X322261904Y-231888152D02*
X322166666Y-231888152D01*
X321309523Y-232554819D02*
X321880951Y-232554819D01*
X321595237Y-232554819D02*
X321595237Y-231554819D01*
X321595237Y-231554819D02*
X321690475Y-231697676D01*
X321690475Y-231697676D02*
X321785713Y-231792914D01*
X321785713Y-231792914D02*
X321880951Y-231840533D01*
X320452380Y-231554819D02*
X320642856Y-231554819D01*
X320642856Y-231554819D02*
X320738094Y-231602438D01*
X320738094Y-231602438D02*
X320785713Y-231650057D01*
X320785713Y-231650057D02*
X320880951Y-231792914D01*
X320880951Y-231792914D02*
X320928570Y-231983390D01*
X320928570Y-231983390D02*
X320928570Y-232364342D01*
X320928570Y-232364342D02*
X320880951Y-232459580D01*
X320880951Y-232459580D02*
X320833332Y-232507200D01*
X320833332Y-232507200D02*
X320738094Y-232554819D01*
X320738094Y-232554819D02*
X320547618Y-232554819D01*
X320547618Y-232554819D02*
X320452380Y-232507200D01*
X320452380Y-232507200D02*
X320404761Y-232459580D01*
X320404761Y-232459580D02*
X320357142Y-232364342D01*
X320357142Y-232364342D02*
X320357142Y-232126247D01*
X320357142Y-232126247D02*
X320404761Y-232031009D01*
X320404761Y-232031009D02*
X320452380Y-231983390D01*
X320452380Y-231983390D02*
X320547618Y-231935771D01*
X320547618Y-231935771D02*
X320738094Y-231935771D01*
X320738094Y-231935771D02*
X320833332Y-231983390D01*
X320833332Y-231983390D02*
X320880951Y-232031009D01*
X320880951Y-232031009D02*
X320928570Y-232126247D01*
X438023809Y-238554819D02*
X437833333Y-238554819D01*
X437833333Y-238554819D02*
X437738095Y-238602438D01*
X437738095Y-238602438D02*
X437642857Y-238697676D01*
X437642857Y-238697676D02*
X437595238Y-238888152D01*
X437595238Y-238888152D02*
X437595238Y-239221485D01*
X437595238Y-239221485D02*
X437642857Y-239411961D01*
X437642857Y-239411961D02*
X437738095Y-239507200D01*
X437738095Y-239507200D02*
X437833333Y-239554819D01*
X437833333Y-239554819D02*
X438023809Y-239554819D01*
X438023809Y-239554819D02*
X438119047Y-239507200D01*
X438119047Y-239507200D02*
X438214285Y-239411961D01*
X438214285Y-239411961D02*
X438261904Y-239221485D01*
X438261904Y-239221485D02*
X438261904Y-238888152D01*
X438261904Y-238888152D02*
X438214285Y-238697676D01*
X438214285Y-238697676D02*
X438119047Y-238602438D01*
X438119047Y-238602438D02*
X438023809Y-238554819D01*
X436738095Y-238888152D02*
X436738095Y-239554819D01*
X437166666Y-238888152D02*
X437166666Y-239411961D01*
X437166666Y-239411961D02*
X437119047Y-239507200D01*
X437119047Y-239507200D02*
X437023809Y-239554819D01*
X437023809Y-239554819D02*
X436880952Y-239554819D01*
X436880952Y-239554819D02*
X436785714Y-239507200D01*
X436785714Y-239507200D02*
X436738095Y-239459580D01*
X436404761Y-238888152D02*
X436023809Y-238888152D01*
X436261904Y-238554819D02*
X436261904Y-239411961D01*
X436261904Y-239411961D02*
X436214285Y-239507200D01*
X436214285Y-239507200D02*
X436119047Y-239554819D01*
X436119047Y-239554819D02*
X436023809Y-239554819D01*
X435309523Y-239507200D02*
X435404761Y-239554819D01*
X435404761Y-239554819D02*
X435595237Y-239554819D01*
X435595237Y-239554819D02*
X435690475Y-239507200D01*
X435690475Y-239507200D02*
X435738094Y-239411961D01*
X435738094Y-239411961D02*
X435738094Y-239031009D01*
X435738094Y-239031009D02*
X435690475Y-238935771D01*
X435690475Y-238935771D02*
X435595237Y-238888152D01*
X435595237Y-238888152D02*
X435404761Y-238888152D01*
X435404761Y-238888152D02*
X435309523Y-238935771D01*
X435309523Y-238935771D02*
X435261904Y-239031009D01*
X435261904Y-239031009D02*
X435261904Y-239126247D01*
X435261904Y-239126247D02*
X435738094Y-239221485D01*
X434833332Y-239554819D02*
X434833332Y-238888152D01*
X434833332Y-239078628D02*
X434785713Y-238983390D01*
X434785713Y-238983390D02*
X434738094Y-238935771D01*
X434738094Y-238935771D02*
X434642856Y-238888152D01*
X434642856Y-238888152D02*
X434547618Y-238888152D01*
X434261903Y-238650057D02*
X434214284Y-238602438D01*
X434214284Y-238602438D02*
X434119046Y-238554819D01*
X434119046Y-238554819D02*
X433880951Y-238554819D01*
X433880951Y-238554819D02*
X433785713Y-238602438D01*
X433785713Y-238602438D02*
X433738094Y-238650057D01*
X433738094Y-238650057D02*
X433690475Y-238745295D01*
X433690475Y-238745295D02*
X433690475Y-238840533D01*
X433690475Y-238840533D02*
X433738094Y-238983390D01*
X433738094Y-238983390D02*
X434309522Y-239554819D01*
X434309522Y-239554819D02*
X433690475Y-239554819D01*
X433357141Y-238554819D02*
X432690475Y-238554819D01*
X432690475Y-238554819D02*
X433119046Y-239554819D01*
%TO.C,Outer26*%
D12*
X421820000Y-240110000D02*
X422150000Y-239780000D01*
X422150000Y-239780000D02*
X425730000Y-239780000D01*
X424300000Y-243220000D02*
X421700000Y-243220000D01*
%TO.C,Outer17*%
X334320000Y-240110000D02*
X334650000Y-239780000D01*
X334650000Y-239780000D02*
X338230000Y-239780000D01*
X336800000Y-243220000D02*
X334200000Y-243220000D01*
%TO.C,Outer12*%
X271820000Y-240110000D02*
X272150000Y-239780000D01*
X272150000Y-239780000D02*
X275730000Y-239780000D01*
X274300000Y-243220000D02*
X271700000Y-243220000D01*
%TO.C,Inner22*%
X371820000Y-233110000D02*
X372150000Y-232780000D01*
X372150000Y-232780000D02*
X375730000Y-232780000D01*
X374300000Y-236220000D02*
X371700000Y-236220000D01*
%TO.C,Inner04*%
X196820000Y-233110000D02*
X197150000Y-232780000D01*
X197150000Y-232780000D02*
X200730000Y-232780000D01*
X199300000Y-236220000D02*
X196700000Y-236220000D01*
%TO.C,Inner12*%
X271820000Y-233110000D02*
X272150000Y-232780000D01*
X272150000Y-232780000D02*
X275730000Y-232780000D01*
X274300000Y-236220000D02*
X271700000Y-236220000D01*
%TO.C,Inner27*%
X434320000Y-233110000D02*
X434650000Y-232780000D01*
X434650000Y-232780000D02*
X438230000Y-232780000D01*
X436800000Y-236220000D02*
X434200000Y-236220000D01*
%TO.C,Outer00*%
X146820000Y-240110000D02*
X147150000Y-239780000D01*
X147150000Y-239780000D02*
X150730000Y-239780000D01*
X149300000Y-243220000D02*
X146700000Y-243220000D01*
%TO.C,Outer04*%
X196820000Y-240110000D02*
X197150000Y-239780000D01*
X197150000Y-239780000D02*
X200730000Y-239780000D01*
X199300000Y-243220000D02*
X196700000Y-243220000D01*
%TO.C,Inner03*%
X184320000Y-233110000D02*
X184650000Y-232780000D01*
X184650000Y-232780000D02*
X188230000Y-232780000D01*
X186800000Y-236220000D02*
X184200000Y-236220000D01*
%TO.C,Outer02*%
X171820000Y-240110000D02*
X172150000Y-239780000D01*
X172150000Y-239780000D02*
X175730000Y-239780000D01*
X174300000Y-243220000D02*
X171700000Y-243220000D01*
%TO.C,Inner01*%
X159320000Y-233110000D02*
X159650000Y-232780000D01*
X159650000Y-232780000D02*
X163230000Y-232780000D01*
X161800000Y-236220000D02*
X159200000Y-236220000D01*
%TO.C,Outer23*%
X384320000Y-240110000D02*
X384650000Y-239780000D01*
X384650000Y-239780000D02*
X388230000Y-239780000D01*
X386800000Y-243220000D02*
X384200000Y-243220000D01*
%TO.C,Outer25*%
X409320000Y-240110000D02*
X409650000Y-239780000D01*
X409650000Y-239780000D02*
X413230000Y-239780000D01*
X411800000Y-243220000D02*
X409200000Y-243220000D01*
%TO.C,Inner24*%
X396820000Y-233110000D02*
X397150000Y-232780000D01*
X397150000Y-232780000D02*
X400730000Y-232780000D01*
X399300000Y-236220000D02*
X396700000Y-236220000D01*
%TO.C,Inner10*%
X246820000Y-233110000D02*
X247150000Y-232780000D01*
X247150000Y-232780000D02*
X250730000Y-232780000D01*
X249300000Y-236220000D02*
X246700000Y-236220000D01*
%TO.C,Outer13*%
X284320000Y-240110000D02*
X284650000Y-239780000D01*
X284650000Y-239780000D02*
X288230000Y-239780000D01*
X286800000Y-243220000D02*
X284200000Y-243220000D01*
%TO.C,Outer05*%
X209320000Y-240110000D02*
X209650000Y-239780000D01*
X209650000Y-239780000D02*
X213230000Y-239780000D01*
X211800000Y-243220000D02*
X209200000Y-243220000D01*
%TO.C,Inner11*%
X259320000Y-233110000D02*
X259650000Y-232780000D01*
X259650000Y-232780000D02*
X263230000Y-232780000D01*
X261800000Y-236220000D02*
X259200000Y-236220000D01*
%TO.C,Inner02*%
X171820000Y-233110000D02*
X172150000Y-232780000D01*
X172150000Y-232780000D02*
X175730000Y-232780000D01*
X174300000Y-236220000D02*
X171700000Y-236220000D01*
%TO.C,Outer24*%
X396820000Y-240110000D02*
X397150000Y-239780000D01*
X397150000Y-239780000D02*
X400730000Y-239780000D01*
X399300000Y-243220000D02*
X396700000Y-243220000D01*
%TO.C,Outer03*%
X184320000Y-240110000D02*
X184650000Y-239780000D01*
X184650000Y-239780000D02*
X188230000Y-239780000D01*
X186800000Y-243220000D02*
X184200000Y-243220000D01*
%TO.C,Outer22*%
X371820000Y-240110000D02*
X372150000Y-239780000D01*
X372150000Y-239780000D02*
X375730000Y-239780000D01*
X374300000Y-243220000D02*
X371700000Y-243220000D01*
%TO.C,Inner00*%
X146820000Y-233110000D02*
X147150000Y-232780000D01*
X147150000Y-232780000D02*
X150730000Y-232780000D01*
X149300000Y-236220000D02*
X146700000Y-236220000D01*
%TO.C,Inner25*%
X409320000Y-233110000D02*
X409650000Y-232780000D01*
X409650000Y-232780000D02*
X413230000Y-232780000D01*
X411800000Y-236220000D02*
X409200000Y-236220000D01*
%TO.C,Inner23*%
X384320000Y-233110000D02*
X384650000Y-232780000D01*
X384650000Y-232780000D02*
X388230000Y-232780000D01*
X386800000Y-236220000D02*
X384200000Y-236220000D01*
%TO.C,Outer16*%
X321820000Y-240110000D02*
X322150000Y-239780000D01*
X322150000Y-239780000D02*
X325730000Y-239780000D01*
X324300000Y-243220000D02*
X321700000Y-243220000D01*
%TO.C,Inner05*%
X209320000Y-233110000D02*
X209650000Y-232780000D01*
X209650000Y-232780000D02*
X213230000Y-232780000D01*
X211800000Y-236220000D02*
X209200000Y-236220000D01*
%TO.C,Outer21*%
X359320000Y-240110000D02*
X359650000Y-239780000D01*
X359650000Y-239780000D02*
X363230000Y-239780000D01*
X361800000Y-243220000D02*
X359200000Y-243220000D01*
%TO.C,Inner17*%
X334320000Y-233110000D02*
X334650000Y-232780000D01*
X334650000Y-232780000D02*
X338230000Y-232780000D01*
X336800000Y-236220000D02*
X334200000Y-236220000D01*
%TO.C,Outer11*%
X259320000Y-240110000D02*
X259650000Y-239780000D01*
X259650000Y-239780000D02*
X263230000Y-239780000D01*
X261800000Y-243220000D02*
X259200000Y-243220000D01*
%TO.C,Outer01*%
X159320000Y-240110000D02*
X159650000Y-239780000D01*
X159650000Y-239780000D02*
X163230000Y-239780000D01*
X161800000Y-243220000D02*
X159200000Y-243220000D01*
%TO.C,Outer14*%
X296820000Y-240110000D02*
X297150000Y-239780000D01*
X297150000Y-239780000D02*
X300730000Y-239780000D01*
X299300000Y-243220000D02*
X296700000Y-243220000D01*
%TO.C,Outer15*%
X309320000Y-240110000D02*
X309650000Y-239780000D01*
X309650000Y-239780000D02*
X313230000Y-239780000D01*
X311800000Y-243220000D02*
X309200000Y-243220000D01*
%TO.C,Inner14*%
X296820000Y-233110000D02*
X297150000Y-232780000D01*
X297150000Y-232780000D02*
X300730000Y-232780000D01*
X299300000Y-236220000D02*
X296700000Y-236220000D01*
%TO.C,Inner20*%
X346820000Y-233110000D02*
X347150000Y-232780000D01*
X347150000Y-232780000D02*
X350730000Y-232780000D01*
X349300000Y-236220000D02*
X346700000Y-236220000D01*
%TO.C,Outer20*%
X346820000Y-240110000D02*
X347150000Y-239780000D01*
X347150000Y-239780000D02*
X350730000Y-239780000D01*
X349300000Y-243220000D02*
X346700000Y-243220000D01*
%TO.C,Inner06*%
X221820000Y-233110000D02*
X222150000Y-232780000D01*
X222150000Y-232780000D02*
X225730000Y-232780000D01*
X224300000Y-236220000D02*
X221700000Y-236220000D01*
%TO.C,Inner15*%
X309320000Y-233110000D02*
X309650000Y-232780000D01*
X309650000Y-232780000D02*
X313230000Y-232780000D01*
X311800000Y-236220000D02*
X309200000Y-236220000D01*
%TO.C,Inner26*%
X421820000Y-233110000D02*
X422150000Y-232780000D01*
X422150000Y-232780000D02*
X425730000Y-232780000D01*
X424300000Y-236220000D02*
X421700000Y-236220000D01*
%TO.C,Inner07*%
X234320000Y-233110000D02*
X234650000Y-232780000D01*
X234650000Y-232780000D02*
X238230000Y-232780000D01*
X236800000Y-236220000D02*
X234200000Y-236220000D01*
%TO.C,Inner21*%
X359320000Y-233110000D02*
X359650000Y-232780000D01*
X359650000Y-232780000D02*
X363230000Y-232780000D01*
X361800000Y-236220000D02*
X359200000Y-236220000D01*
%TO.C,Outer10*%
X246820000Y-240110000D02*
X247150000Y-239780000D01*
X247150000Y-239780000D02*
X250730000Y-239780000D01*
X249300000Y-243220000D02*
X246700000Y-243220000D01*
%TO.C,Inner13*%
X284320000Y-233110000D02*
X284650000Y-232780000D01*
X284650000Y-232780000D02*
X288230000Y-232780000D01*
X286800000Y-236220000D02*
X284200000Y-236220000D01*
%TO.C,Outer07*%
X234320000Y-240110000D02*
X234650000Y-239780000D01*
X234650000Y-239780000D02*
X238230000Y-239780000D01*
X236800000Y-243220000D02*
X234200000Y-243220000D01*
%TO.C,Outer06*%
X221820000Y-240110000D02*
X222150000Y-239780000D01*
X222150000Y-239780000D02*
X225730000Y-239780000D01*
X224300000Y-243220000D02*
X221700000Y-243220000D01*
%TO.C,Inner16*%
X321820000Y-233110000D02*
X322150000Y-232780000D01*
X322150000Y-232780000D02*
X325730000Y-232780000D01*
X324300000Y-236220000D02*
X321700000Y-236220000D01*
%TO.C,Outer27*%
X434320000Y-240110000D02*
X434650000Y-239780000D01*
X434650000Y-239780000D02*
X438230000Y-239780000D01*
X436800000Y-243220000D02*
X434200000Y-243220000D01*
%TD*%
M02*
