%TF.GenerationSoftware,KiCad,Pcbnew,10.0.3-10.0.3~ubuntu24.04.1*%
%TF.CreationDate,2026-06-16T10:47:17+02:00*%
%TF.ProjectId,easy-bee-counter-2026,65617379-2d62-4656-952d-636f756e7465,rev?*%
%TF.SameCoordinates,Original*%
%TF.FileFunction,Legend,Top*%
%TF.FilePolarity,Positive*%
%FSLAX46Y46*%
G04 Gerber Fmt 4.6, Leading zero omitted, Abs format (unit mm)*
G04 Created by KiCad (PCBNEW 10.0.3-10.0.3~ubuntu24.04.1) date 2026-06-16 10:47:17*
%MOMM*%
%LPD*%
G01*
G04 APERTURE LIST*
%ADD10C,0.100000*%
%ADD11C,0.150000*%
%ADD12C,0.120000*%
%ADD13C,0.200000*%
%ADD14C,0.127000*%
G04 APERTURE END LIST*
D10*
X103280074Y-216566480D02*
X104208646Y-216566480D01*
X104208646Y-216566480D02*
X103708646Y-217137909D01*
X103708646Y-217137909D02*
X103922931Y-217137909D01*
X103922931Y-217137909D02*
X104065789Y-217209337D01*
X104065789Y-217209337D02*
X104137217Y-217280766D01*
X104137217Y-217280766D02*
X104208646Y-217423623D01*
X104208646Y-217423623D02*
X104208646Y-217780766D01*
X104208646Y-217780766D02*
X104137217Y-217923623D01*
X104137217Y-217923623D02*
X104065789Y-217995052D01*
X104065789Y-217995052D02*
X103922931Y-218066480D01*
X103922931Y-218066480D02*
X103494360Y-218066480D01*
X103494360Y-218066480D02*
X103351503Y-217995052D01*
X103351503Y-217995052D02*
X103280074Y-217923623D01*
X104851502Y-217923623D02*
X104922931Y-217995052D01*
X104922931Y-217995052D02*
X104851502Y-218066480D01*
X104851502Y-218066480D02*
X104780074Y-217995052D01*
X104780074Y-217995052D02*
X104851502Y-217923623D01*
X104851502Y-217923623D02*
X104851502Y-218066480D01*
X105422931Y-216566480D02*
X106351503Y-216566480D01*
X106351503Y-216566480D02*
X105851503Y-217137909D01*
X105851503Y-217137909D02*
X106065788Y-217137909D01*
X106065788Y-217137909D02*
X106208646Y-217209337D01*
X106208646Y-217209337D02*
X106280074Y-217280766D01*
X106280074Y-217280766D02*
X106351503Y-217423623D01*
X106351503Y-217423623D02*
X106351503Y-217780766D01*
X106351503Y-217780766D02*
X106280074Y-217923623D01*
X106280074Y-217923623D02*
X106208646Y-217995052D01*
X106208646Y-217995052D02*
X106065788Y-218066480D01*
X106065788Y-218066480D02*
X105637217Y-218066480D01*
X105637217Y-218066480D02*
X105494360Y-217995052D01*
X105494360Y-217995052D02*
X105422931Y-217923623D01*
X106780074Y-216566480D02*
X107280074Y-218066480D01*
X107280074Y-218066480D02*
X107780074Y-216566480D01*
X104208646Y-219052825D02*
X104065789Y-218981396D01*
X104065789Y-218981396D02*
X103851503Y-218981396D01*
X103851503Y-218981396D02*
X103637217Y-219052825D01*
X103637217Y-219052825D02*
X103494360Y-219195682D01*
X103494360Y-219195682D02*
X103422931Y-219338539D01*
X103422931Y-219338539D02*
X103351503Y-219624253D01*
X103351503Y-219624253D02*
X103351503Y-219838539D01*
X103351503Y-219838539D02*
X103422931Y-220124253D01*
X103422931Y-220124253D02*
X103494360Y-220267110D01*
X103494360Y-220267110D02*
X103637217Y-220409968D01*
X103637217Y-220409968D02*
X103851503Y-220481396D01*
X103851503Y-220481396D02*
X103994360Y-220481396D01*
X103994360Y-220481396D02*
X104208646Y-220409968D01*
X104208646Y-220409968D02*
X104280074Y-220338539D01*
X104280074Y-220338539D02*
X104280074Y-219838539D01*
X104280074Y-219838539D02*
X103994360Y-219838539D01*
X104922931Y-220481396D02*
X104922931Y-218981396D01*
X104922931Y-218981396D02*
X105780074Y-220481396D01*
X105780074Y-220481396D02*
X105780074Y-218981396D01*
X106494360Y-220481396D02*
X106494360Y-218981396D01*
X106494360Y-218981396D02*
X106851503Y-218981396D01*
X106851503Y-218981396D02*
X107065789Y-219052825D01*
X107065789Y-219052825D02*
X107208646Y-219195682D01*
X107208646Y-219195682D02*
X107280075Y-219338539D01*
X107280075Y-219338539D02*
X107351503Y-219624253D01*
X107351503Y-219624253D02*
X107351503Y-219838539D01*
X107351503Y-219838539D02*
X107280075Y-220124253D01*
X107280075Y-220124253D02*
X107208646Y-220267110D01*
X107208646Y-220267110D02*
X107065789Y-220409968D01*
X107065789Y-220409968D02*
X106851503Y-220481396D01*
X106851503Y-220481396D02*
X106494360Y-220481396D01*
X103351503Y-222824884D02*
X103565789Y-222896312D01*
X103565789Y-222896312D02*
X103922931Y-222896312D01*
X103922931Y-222896312D02*
X104065789Y-222824884D01*
X104065789Y-222824884D02*
X104137217Y-222753455D01*
X104137217Y-222753455D02*
X104208646Y-222610598D01*
X104208646Y-222610598D02*
X104208646Y-222467741D01*
X104208646Y-222467741D02*
X104137217Y-222324884D01*
X104137217Y-222324884D02*
X104065789Y-222253455D01*
X104065789Y-222253455D02*
X103922931Y-222182026D01*
X103922931Y-222182026D02*
X103637217Y-222110598D01*
X103637217Y-222110598D02*
X103494360Y-222039169D01*
X103494360Y-222039169D02*
X103422931Y-221967741D01*
X103422931Y-221967741D02*
X103351503Y-221824884D01*
X103351503Y-221824884D02*
X103351503Y-221682026D01*
X103351503Y-221682026D02*
X103422931Y-221539169D01*
X103422931Y-221539169D02*
X103494360Y-221467741D01*
X103494360Y-221467741D02*
X103637217Y-221396312D01*
X103637217Y-221396312D02*
X103994360Y-221396312D01*
X103994360Y-221396312D02*
X104208646Y-221467741D01*
X104851502Y-222896312D02*
X104851502Y-221396312D01*
X104851502Y-221396312D02*
X105208645Y-221396312D01*
X105208645Y-221396312D02*
X105422931Y-221467741D01*
X105422931Y-221467741D02*
X105565788Y-221610598D01*
X105565788Y-221610598D02*
X105637217Y-221753455D01*
X105637217Y-221753455D02*
X105708645Y-222039169D01*
X105708645Y-222039169D02*
X105708645Y-222253455D01*
X105708645Y-222253455D02*
X105637217Y-222539169D01*
X105637217Y-222539169D02*
X105565788Y-222682026D01*
X105565788Y-222682026D02*
X105422931Y-222824884D01*
X105422931Y-222824884D02*
X105208645Y-222896312D01*
X105208645Y-222896312D02*
X104851502Y-222896312D01*
X106280074Y-222467741D02*
X106994360Y-222467741D01*
X106137217Y-222896312D02*
X106637217Y-221396312D01*
X106637217Y-221396312D02*
X107137217Y-222896312D01*
X103351503Y-225239800D02*
X103565789Y-225311228D01*
X103565789Y-225311228D02*
X103922931Y-225311228D01*
X103922931Y-225311228D02*
X104065789Y-225239800D01*
X104065789Y-225239800D02*
X104137217Y-225168371D01*
X104137217Y-225168371D02*
X104208646Y-225025514D01*
X104208646Y-225025514D02*
X104208646Y-224882657D01*
X104208646Y-224882657D02*
X104137217Y-224739800D01*
X104137217Y-224739800D02*
X104065789Y-224668371D01*
X104065789Y-224668371D02*
X103922931Y-224596942D01*
X103922931Y-224596942D02*
X103637217Y-224525514D01*
X103637217Y-224525514D02*
X103494360Y-224454085D01*
X103494360Y-224454085D02*
X103422931Y-224382657D01*
X103422931Y-224382657D02*
X103351503Y-224239800D01*
X103351503Y-224239800D02*
X103351503Y-224096942D01*
X103351503Y-224096942D02*
X103422931Y-223954085D01*
X103422931Y-223954085D02*
X103494360Y-223882657D01*
X103494360Y-223882657D02*
X103637217Y-223811228D01*
X103637217Y-223811228D02*
X103994360Y-223811228D01*
X103994360Y-223811228D02*
X104208646Y-223882657D01*
X105708645Y-225168371D02*
X105637217Y-225239800D01*
X105637217Y-225239800D02*
X105422931Y-225311228D01*
X105422931Y-225311228D02*
X105280074Y-225311228D01*
X105280074Y-225311228D02*
X105065788Y-225239800D01*
X105065788Y-225239800D02*
X104922931Y-225096942D01*
X104922931Y-225096942D02*
X104851502Y-224954085D01*
X104851502Y-224954085D02*
X104780074Y-224668371D01*
X104780074Y-224668371D02*
X104780074Y-224454085D01*
X104780074Y-224454085D02*
X104851502Y-224168371D01*
X104851502Y-224168371D02*
X104922931Y-224025514D01*
X104922931Y-224025514D02*
X105065788Y-223882657D01*
X105065788Y-223882657D02*
X105280074Y-223811228D01*
X105280074Y-223811228D02*
X105422931Y-223811228D01*
X105422931Y-223811228D02*
X105637217Y-223882657D01*
X105637217Y-223882657D02*
X105708645Y-223954085D01*
X107065788Y-225311228D02*
X106351502Y-225311228D01*
X106351502Y-225311228D02*
X106351502Y-223811228D01*
D11*
X410442319Y-220451904D02*
X411251842Y-220451904D01*
X411251842Y-220451904D02*
X411347080Y-220404285D01*
X411347080Y-220404285D02*
X411394700Y-220356666D01*
X411394700Y-220356666D02*
X411442319Y-220261428D01*
X411442319Y-220261428D02*
X411442319Y-220070952D01*
X411442319Y-220070952D02*
X411394700Y-219975714D01*
X411394700Y-219975714D02*
X411347080Y-219928095D01*
X411347080Y-219928095D02*
X411251842Y-219880476D01*
X411251842Y-219880476D02*
X410442319Y-219880476D01*
X410775652Y-218975714D02*
X411442319Y-218975714D01*
X410394700Y-219213809D02*
X411108985Y-219451904D01*
X411108985Y-219451904D02*
X411108985Y-218832857D01*
X310680219Y-221071904D02*
X311489742Y-221071904D01*
X311489742Y-221071904D02*
X311584980Y-221024285D01*
X311584980Y-221024285D02*
X311632600Y-220976666D01*
X311632600Y-220976666D02*
X311680219Y-220881428D01*
X311680219Y-220881428D02*
X311680219Y-220690952D01*
X311680219Y-220690952D02*
X311632600Y-220595714D01*
X311632600Y-220595714D02*
X311584980Y-220548095D01*
X311584980Y-220548095D02*
X311489742Y-220500476D01*
X311489742Y-220500476D02*
X310680219Y-220500476D01*
X310680219Y-220119523D02*
X310680219Y-219500476D01*
X310680219Y-219500476D02*
X311061171Y-219833809D01*
X311061171Y-219833809D02*
X311061171Y-219690952D01*
X311061171Y-219690952D02*
X311108790Y-219595714D01*
X311108790Y-219595714D02*
X311156409Y-219548095D01*
X311156409Y-219548095D02*
X311251647Y-219500476D01*
X311251647Y-219500476D02*
X311489742Y-219500476D01*
X311489742Y-219500476D02*
X311584980Y-219548095D01*
X311584980Y-219548095D02*
X311632600Y-219595714D01*
X311632600Y-219595714D02*
X311680219Y-219690952D01*
X311680219Y-219690952D02*
X311680219Y-219976666D01*
X311680219Y-219976666D02*
X311632600Y-220071904D01*
X311632600Y-220071904D02*
X311584980Y-220119523D01*
X106954819Y-237261904D02*
X107764342Y-237261904D01*
X107764342Y-237261904D02*
X107859580Y-237214285D01*
X107859580Y-237214285D02*
X107907200Y-237166666D01*
X107907200Y-237166666D02*
X107954819Y-237071428D01*
X107954819Y-237071428D02*
X107954819Y-236880952D01*
X107954819Y-236880952D02*
X107907200Y-236785714D01*
X107907200Y-236785714D02*
X107859580Y-236738095D01*
X107859580Y-236738095D02*
X107764342Y-236690476D01*
X107764342Y-236690476D02*
X106954819Y-236690476D01*
X106954819Y-235738095D02*
X106954819Y-236214285D01*
X106954819Y-236214285D02*
X107431009Y-236261904D01*
X107431009Y-236261904D02*
X107383390Y-236214285D01*
X107383390Y-236214285D02*
X107335771Y-236119047D01*
X107335771Y-236119047D02*
X107335771Y-235880952D01*
X107335771Y-235880952D02*
X107383390Y-235785714D01*
X107383390Y-235785714D02*
X107431009Y-235738095D01*
X107431009Y-235738095D02*
X107526247Y-235690476D01*
X107526247Y-235690476D02*
X107764342Y-235690476D01*
X107764342Y-235690476D02*
X107859580Y-235738095D01*
X107859580Y-235738095D02*
X107907200Y-235785714D01*
X107907200Y-235785714D02*
X107954819Y-235880952D01*
X107954819Y-235880952D02*
X107954819Y-236119047D01*
X107954819Y-236119047D02*
X107907200Y-236214285D01*
X107907200Y-236214285D02*
X107859580Y-236261904D01*
X127061905Y-230754819D02*
X127061905Y-229754819D01*
X127061905Y-229754819D02*
X127442857Y-229754819D01*
X127442857Y-229754819D02*
X127538095Y-229802438D01*
X127538095Y-229802438D02*
X127585714Y-229850057D01*
X127585714Y-229850057D02*
X127633333Y-229945295D01*
X127633333Y-229945295D02*
X127633333Y-230088152D01*
X127633333Y-230088152D02*
X127585714Y-230183390D01*
X127585714Y-230183390D02*
X127538095Y-230231009D01*
X127538095Y-230231009D02*
X127442857Y-230278628D01*
X127442857Y-230278628D02*
X127061905Y-230278628D01*
X128061905Y-230754819D02*
X128061905Y-229754819D01*
X128061905Y-229754819D02*
X128300000Y-229754819D01*
X128300000Y-229754819D02*
X128442857Y-229802438D01*
X128442857Y-229802438D02*
X128538095Y-229897676D01*
X128538095Y-229897676D02*
X128585714Y-229992914D01*
X128585714Y-229992914D02*
X128633333Y-230183390D01*
X128633333Y-230183390D02*
X128633333Y-230326247D01*
X128633333Y-230326247D02*
X128585714Y-230516723D01*
X128585714Y-230516723D02*
X128538095Y-230611961D01*
X128538095Y-230611961D02*
X128442857Y-230707200D01*
X128442857Y-230707200D02*
X128300000Y-230754819D01*
X128300000Y-230754819D02*
X128061905Y-230754819D01*
X129014286Y-229850057D02*
X129061905Y-229802438D01*
X129061905Y-229802438D02*
X129157143Y-229754819D01*
X129157143Y-229754819D02*
X129395238Y-229754819D01*
X129395238Y-229754819D02*
X129490476Y-229802438D01*
X129490476Y-229802438D02*
X129538095Y-229850057D01*
X129538095Y-229850057D02*
X129585714Y-229945295D01*
X129585714Y-229945295D02*
X129585714Y-230040533D01*
X129585714Y-230040533D02*
X129538095Y-230183390D01*
X129538095Y-230183390D02*
X128966667Y-230754819D01*
X128966667Y-230754819D02*
X129585714Y-230754819D01*
X128133333Y-222854819D02*
X127800000Y-222378628D01*
X127561905Y-222854819D02*
X127561905Y-221854819D01*
X127561905Y-221854819D02*
X127942857Y-221854819D01*
X127942857Y-221854819D02*
X128038095Y-221902438D01*
X128038095Y-221902438D02*
X128085714Y-221950057D01*
X128085714Y-221950057D02*
X128133333Y-222045295D01*
X128133333Y-222045295D02*
X128133333Y-222188152D01*
X128133333Y-222188152D02*
X128085714Y-222283390D01*
X128085714Y-222283390D02*
X128038095Y-222331009D01*
X128038095Y-222331009D02*
X127942857Y-222378628D01*
X127942857Y-222378628D02*
X127561905Y-222378628D01*
X128466667Y-221854819D02*
X129133333Y-221854819D01*
X129133333Y-221854819D02*
X128704762Y-222854819D01*
X128133333Y-233654819D02*
X127800000Y-233178628D01*
X127561905Y-233654819D02*
X127561905Y-232654819D01*
X127561905Y-232654819D02*
X127942857Y-232654819D01*
X127942857Y-232654819D02*
X128038095Y-232702438D01*
X128038095Y-232702438D02*
X128085714Y-232750057D01*
X128085714Y-232750057D02*
X128133333Y-232845295D01*
X128133333Y-232845295D02*
X128133333Y-232988152D01*
X128133333Y-232988152D02*
X128085714Y-233083390D01*
X128085714Y-233083390D02*
X128038095Y-233131009D01*
X128038095Y-233131009D02*
X127942857Y-233178628D01*
X127942857Y-233178628D02*
X127561905Y-233178628D01*
X128704762Y-233083390D02*
X128609524Y-233035771D01*
X128609524Y-233035771D02*
X128561905Y-232988152D01*
X128561905Y-232988152D02*
X128514286Y-232892914D01*
X128514286Y-232892914D02*
X128514286Y-232845295D01*
X128514286Y-232845295D02*
X128561905Y-232750057D01*
X128561905Y-232750057D02*
X128609524Y-232702438D01*
X128609524Y-232702438D02*
X128704762Y-232654819D01*
X128704762Y-232654819D02*
X128895238Y-232654819D01*
X128895238Y-232654819D02*
X128990476Y-232702438D01*
X128990476Y-232702438D02*
X129038095Y-232750057D01*
X129038095Y-232750057D02*
X129085714Y-232845295D01*
X129085714Y-232845295D02*
X129085714Y-232892914D01*
X129085714Y-232892914D02*
X129038095Y-232988152D01*
X129038095Y-232988152D02*
X128990476Y-233035771D01*
X128990476Y-233035771D02*
X128895238Y-233083390D01*
X128895238Y-233083390D02*
X128704762Y-233083390D01*
X128704762Y-233083390D02*
X128609524Y-233131009D01*
X128609524Y-233131009D02*
X128561905Y-233178628D01*
X128561905Y-233178628D02*
X128514286Y-233273866D01*
X128514286Y-233273866D02*
X128514286Y-233464342D01*
X128514286Y-233464342D02*
X128561905Y-233559580D01*
X128561905Y-233559580D02*
X128609524Y-233607200D01*
X128609524Y-233607200D02*
X128704762Y-233654819D01*
X128704762Y-233654819D02*
X128895238Y-233654819D01*
X128895238Y-233654819D02*
X128990476Y-233607200D01*
X128990476Y-233607200D02*
X129038095Y-233559580D01*
X129038095Y-233559580D02*
X129085714Y-233464342D01*
X129085714Y-233464342D02*
X129085714Y-233273866D01*
X129085714Y-233273866D02*
X129038095Y-233178628D01*
X129038095Y-233178628D02*
X128990476Y-233131009D01*
X128990476Y-233131009D02*
X128895238Y-233083390D01*
X128133333Y-211754819D02*
X127800000Y-211278628D01*
X127561905Y-211754819D02*
X127561905Y-210754819D01*
X127561905Y-210754819D02*
X127942857Y-210754819D01*
X127942857Y-210754819D02*
X128038095Y-210802438D01*
X128038095Y-210802438D02*
X128085714Y-210850057D01*
X128085714Y-210850057D02*
X128133333Y-210945295D01*
X128133333Y-210945295D02*
X128133333Y-211088152D01*
X128133333Y-211088152D02*
X128085714Y-211183390D01*
X128085714Y-211183390D02*
X128038095Y-211231009D01*
X128038095Y-211231009D02*
X127942857Y-211278628D01*
X127942857Y-211278628D02*
X127561905Y-211278628D01*
X128990476Y-210754819D02*
X128800000Y-210754819D01*
X128800000Y-210754819D02*
X128704762Y-210802438D01*
X128704762Y-210802438D02*
X128657143Y-210850057D01*
X128657143Y-210850057D02*
X128561905Y-210992914D01*
X128561905Y-210992914D02*
X128514286Y-211183390D01*
X128514286Y-211183390D02*
X128514286Y-211564342D01*
X128514286Y-211564342D02*
X128561905Y-211659580D01*
X128561905Y-211659580D02*
X128609524Y-211707200D01*
X128609524Y-211707200D02*
X128704762Y-211754819D01*
X128704762Y-211754819D02*
X128895238Y-211754819D01*
X128895238Y-211754819D02*
X128990476Y-211707200D01*
X128990476Y-211707200D02*
X129038095Y-211659580D01*
X129038095Y-211659580D02*
X129085714Y-211564342D01*
X129085714Y-211564342D02*
X129085714Y-211326247D01*
X129085714Y-211326247D02*
X129038095Y-211231009D01*
X129038095Y-211231009D02*
X128990476Y-211183390D01*
X128990476Y-211183390D02*
X128895238Y-211135771D01*
X128895238Y-211135771D02*
X128704762Y-211135771D01*
X128704762Y-211135771D02*
X128609524Y-211183390D01*
X128609524Y-211183390D02*
X128561905Y-211231009D01*
X128561905Y-211231009D02*
X128514286Y-211326247D01*
X127161905Y-219854819D02*
X127161905Y-218854819D01*
X127161905Y-218854819D02*
X127542857Y-218854819D01*
X127542857Y-218854819D02*
X127638095Y-218902438D01*
X127638095Y-218902438D02*
X127685714Y-218950057D01*
X127685714Y-218950057D02*
X127733333Y-219045295D01*
X127733333Y-219045295D02*
X127733333Y-219188152D01*
X127733333Y-219188152D02*
X127685714Y-219283390D01*
X127685714Y-219283390D02*
X127638095Y-219331009D01*
X127638095Y-219331009D02*
X127542857Y-219378628D01*
X127542857Y-219378628D02*
X127161905Y-219378628D01*
X128161905Y-219854819D02*
X128161905Y-218854819D01*
X128161905Y-218854819D02*
X128400000Y-218854819D01*
X128400000Y-218854819D02*
X128542857Y-218902438D01*
X128542857Y-218902438D02*
X128638095Y-218997676D01*
X128638095Y-218997676D02*
X128685714Y-219092914D01*
X128685714Y-219092914D02*
X128733333Y-219283390D01*
X128733333Y-219283390D02*
X128733333Y-219426247D01*
X128733333Y-219426247D02*
X128685714Y-219616723D01*
X128685714Y-219616723D02*
X128638095Y-219711961D01*
X128638095Y-219711961D02*
X128542857Y-219807200D01*
X128542857Y-219807200D02*
X128400000Y-219854819D01*
X128400000Y-219854819D02*
X128161905Y-219854819D01*
X129685714Y-219854819D02*
X129114286Y-219854819D01*
X129400000Y-219854819D02*
X129400000Y-218854819D01*
X129400000Y-218854819D02*
X129304762Y-218997676D01*
X129304762Y-218997676D02*
X129209524Y-219092914D01*
X129209524Y-219092914D02*
X129114286Y-219140533D01*
X126561905Y-241854819D02*
X126561905Y-240854819D01*
X126561905Y-240854819D02*
X126942857Y-240854819D01*
X126942857Y-240854819D02*
X127038095Y-240902438D01*
X127038095Y-240902438D02*
X127085714Y-240950057D01*
X127085714Y-240950057D02*
X127133333Y-241045295D01*
X127133333Y-241045295D02*
X127133333Y-241188152D01*
X127133333Y-241188152D02*
X127085714Y-241283390D01*
X127085714Y-241283390D02*
X127038095Y-241331009D01*
X127038095Y-241331009D02*
X126942857Y-241378628D01*
X126942857Y-241378628D02*
X126561905Y-241378628D01*
X127561905Y-241854819D02*
X127561905Y-240854819D01*
X127561905Y-240854819D02*
X127800000Y-240854819D01*
X127800000Y-240854819D02*
X127942857Y-240902438D01*
X127942857Y-240902438D02*
X128038095Y-240997676D01*
X128038095Y-240997676D02*
X128085714Y-241092914D01*
X128085714Y-241092914D02*
X128133333Y-241283390D01*
X128133333Y-241283390D02*
X128133333Y-241426247D01*
X128133333Y-241426247D02*
X128085714Y-241616723D01*
X128085714Y-241616723D02*
X128038095Y-241711961D01*
X128038095Y-241711961D02*
X127942857Y-241807200D01*
X127942857Y-241807200D02*
X127800000Y-241854819D01*
X127800000Y-241854819D02*
X127561905Y-241854819D01*
X128466667Y-240854819D02*
X129085714Y-240854819D01*
X129085714Y-240854819D02*
X128752381Y-241235771D01*
X128752381Y-241235771D02*
X128895238Y-241235771D01*
X128895238Y-241235771D02*
X128990476Y-241283390D01*
X128990476Y-241283390D02*
X129038095Y-241331009D01*
X129038095Y-241331009D02*
X129085714Y-241426247D01*
X129085714Y-241426247D02*
X129085714Y-241664342D01*
X129085714Y-241664342D02*
X129038095Y-241759580D01*
X129038095Y-241759580D02*
X128990476Y-241807200D01*
X128990476Y-241807200D02*
X128895238Y-241854819D01*
X128895238Y-241854819D02*
X128609524Y-241854819D01*
X128609524Y-241854819D02*
X128514286Y-241807200D01*
X128514286Y-241807200D02*
X128466667Y-241759580D01*
X134650057Y-215395238D02*
X134602438Y-215490476D01*
X134602438Y-215490476D02*
X134507200Y-215585714D01*
X134507200Y-215585714D02*
X134364342Y-215728571D01*
X134364342Y-215728571D02*
X134316723Y-215823809D01*
X134316723Y-215823809D02*
X134316723Y-215919047D01*
X134554819Y-215871428D02*
X134507200Y-215966666D01*
X134507200Y-215966666D02*
X134411961Y-216061904D01*
X134411961Y-216061904D02*
X134221485Y-216109523D01*
X134221485Y-216109523D02*
X133888152Y-216109523D01*
X133888152Y-216109523D02*
X133697676Y-216061904D01*
X133697676Y-216061904D02*
X133602438Y-215966666D01*
X133602438Y-215966666D02*
X133554819Y-215871428D01*
X133554819Y-215871428D02*
X133554819Y-215680952D01*
X133554819Y-215680952D02*
X133602438Y-215585714D01*
X133602438Y-215585714D02*
X133697676Y-215490476D01*
X133697676Y-215490476D02*
X133888152Y-215442857D01*
X133888152Y-215442857D02*
X134221485Y-215442857D01*
X134221485Y-215442857D02*
X134411961Y-215490476D01*
X134411961Y-215490476D02*
X134507200Y-215585714D01*
X134507200Y-215585714D02*
X134554819Y-215680952D01*
X134554819Y-215680952D02*
X134554819Y-215871428D01*
X134554819Y-214490476D02*
X134554819Y-215061904D01*
X134554819Y-214776190D02*
X133554819Y-214776190D01*
X133554819Y-214776190D02*
X133697676Y-214871428D01*
X133697676Y-214871428D02*
X133792914Y-214966666D01*
X133792914Y-214966666D02*
X133840533Y-215061904D01*
X134650057Y-237395238D02*
X134602438Y-237490476D01*
X134602438Y-237490476D02*
X134507200Y-237585714D01*
X134507200Y-237585714D02*
X134364342Y-237728571D01*
X134364342Y-237728571D02*
X134316723Y-237823809D01*
X134316723Y-237823809D02*
X134316723Y-237919047D01*
X134554819Y-237871428D02*
X134507200Y-237966666D01*
X134507200Y-237966666D02*
X134411961Y-238061904D01*
X134411961Y-238061904D02*
X134221485Y-238109523D01*
X134221485Y-238109523D02*
X133888152Y-238109523D01*
X133888152Y-238109523D02*
X133697676Y-238061904D01*
X133697676Y-238061904D02*
X133602438Y-237966666D01*
X133602438Y-237966666D02*
X133554819Y-237871428D01*
X133554819Y-237871428D02*
X133554819Y-237680952D01*
X133554819Y-237680952D02*
X133602438Y-237585714D01*
X133602438Y-237585714D02*
X133697676Y-237490476D01*
X133697676Y-237490476D02*
X133888152Y-237442857D01*
X133888152Y-237442857D02*
X134221485Y-237442857D01*
X134221485Y-237442857D02*
X134411961Y-237490476D01*
X134411961Y-237490476D02*
X134507200Y-237585714D01*
X134507200Y-237585714D02*
X134554819Y-237680952D01*
X134554819Y-237680952D02*
X134554819Y-237871428D01*
X133554819Y-237109523D02*
X133554819Y-236490476D01*
X133554819Y-236490476D02*
X133935771Y-236823809D01*
X133935771Y-236823809D02*
X133935771Y-236680952D01*
X133935771Y-236680952D02*
X133983390Y-236585714D01*
X133983390Y-236585714D02*
X134031009Y-236538095D01*
X134031009Y-236538095D02*
X134126247Y-236490476D01*
X134126247Y-236490476D02*
X134364342Y-236490476D01*
X134364342Y-236490476D02*
X134459580Y-236538095D01*
X134459580Y-236538095D02*
X134507200Y-236585714D01*
X134507200Y-236585714D02*
X134554819Y-236680952D01*
X134554819Y-236680952D02*
X134554819Y-236966666D01*
X134554819Y-236966666D02*
X134507200Y-237061904D01*
X134507200Y-237061904D02*
X134459580Y-237109523D01*
X134650057Y-226395238D02*
X134602438Y-226490476D01*
X134602438Y-226490476D02*
X134507200Y-226585714D01*
X134507200Y-226585714D02*
X134364342Y-226728571D01*
X134364342Y-226728571D02*
X134316723Y-226823809D01*
X134316723Y-226823809D02*
X134316723Y-226919047D01*
X134554819Y-226871428D02*
X134507200Y-226966666D01*
X134507200Y-226966666D02*
X134411961Y-227061904D01*
X134411961Y-227061904D02*
X134221485Y-227109523D01*
X134221485Y-227109523D02*
X133888152Y-227109523D01*
X133888152Y-227109523D02*
X133697676Y-227061904D01*
X133697676Y-227061904D02*
X133602438Y-226966666D01*
X133602438Y-226966666D02*
X133554819Y-226871428D01*
X133554819Y-226871428D02*
X133554819Y-226680952D01*
X133554819Y-226680952D02*
X133602438Y-226585714D01*
X133602438Y-226585714D02*
X133697676Y-226490476D01*
X133697676Y-226490476D02*
X133888152Y-226442857D01*
X133888152Y-226442857D02*
X134221485Y-226442857D01*
X134221485Y-226442857D02*
X134411961Y-226490476D01*
X134411961Y-226490476D02*
X134507200Y-226585714D01*
X134507200Y-226585714D02*
X134554819Y-226680952D01*
X134554819Y-226680952D02*
X134554819Y-226871428D01*
X133650057Y-226061904D02*
X133602438Y-226014285D01*
X133602438Y-226014285D02*
X133554819Y-225919047D01*
X133554819Y-225919047D02*
X133554819Y-225680952D01*
X133554819Y-225680952D02*
X133602438Y-225585714D01*
X133602438Y-225585714D02*
X133650057Y-225538095D01*
X133650057Y-225538095D02*
X133745295Y-225490476D01*
X133745295Y-225490476D02*
X133840533Y-225490476D01*
X133840533Y-225490476D02*
X133983390Y-225538095D01*
X133983390Y-225538095D02*
X134554819Y-226109523D01*
X134554819Y-226109523D02*
X134554819Y-225490476D01*
X229219523Y-212404819D02*
X228886190Y-211928628D01*
X228648095Y-212404819D02*
X228648095Y-211404819D01*
X228648095Y-211404819D02*
X229029047Y-211404819D01*
X229029047Y-211404819D02*
X229124285Y-211452438D01*
X229124285Y-211452438D02*
X229171904Y-211500057D01*
X229171904Y-211500057D02*
X229219523Y-211595295D01*
X229219523Y-211595295D02*
X229219523Y-211738152D01*
X229219523Y-211738152D02*
X229171904Y-211833390D01*
X229171904Y-211833390D02*
X229124285Y-211881009D01*
X229124285Y-211881009D02*
X229029047Y-211928628D01*
X229029047Y-211928628D02*
X228648095Y-211928628D01*
X229648095Y-212404819D02*
X229648095Y-211404819D01*
X229648095Y-211404819D02*
X230219523Y-212404819D01*
X230219523Y-212404819D02*
X230219523Y-211404819D01*
X230600476Y-211404819D02*
X231219523Y-211404819D01*
X231219523Y-211404819D02*
X230886190Y-211785771D01*
X230886190Y-211785771D02*
X231029047Y-211785771D01*
X231029047Y-211785771D02*
X231124285Y-211833390D01*
X231124285Y-211833390D02*
X231171904Y-211881009D01*
X231171904Y-211881009D02*
X231219523Y-211976247D01*
X231219523Y-211976247D02*
X231219523Y-212214342D01*
X231219523Y-212214342D02*
X231171904Y-212309580D01*
X231171904Y-212309580D02*
X231124285Y-212357200D01*
X231124285Y-212357200D02*
X231029047Y-212404819D01*
X231029047Y-212404819D02*
X230743333Y-212404819D01*
X230743333Y-212404819D02*
X230648095Y-212357200D01*
X230648095Y-212357200D02*
X230600476Y-212309580D01*
X210644819Y-220951904D02*
X211454342Y-220951904D01*
X211454342Y-220951904D02*
X211549580Y-220904285D01*
X211549580Y-220904285D02*
X211597200Y-220856666D01*
X211597200Y-220856666D02*
X211644819Y-220761428D01*
X211644819Y-220761428D02*
X211644819Y-220570952D01*
X211644819Y-220570952D02*
X211597200Y-220475714D01*
X211597200Y-220475714D02*
X211549580Y-220428095D01*
X211549580Y-220428095D02*
X211454342Y-220380476D01*
X211454342Y-220380476D02*
X210644819Y-220380476D01*
X210740057Y-219951904D02*
X210692438Y-219904285D01*
X210692438Y-219904285D02*
X210644819Y-219809047D01*
X210644819Y-219809047D02*
X210644819Y-219570952D01*
X210644819Y-219570952D02*
X210692438Y-219475714D01*
X210692438Y-219475714D02*
X210740057Y-219428095D01*
X210740057Y-219428095D02*
X210835295Y-219380476D01*
X210835295Y-219380476D02*
X210930533Y-219380476D01*
X210930533Y-219380476D02*
X211073390Y-219428095D01*
X211073390Y-219428095D02*
X211644819Y-219999523D01*
X211644819Y-219999523D02*
X211644819Y-219380476D01*
X162633333Y-216409580D02*
X162585714Y-216457200D01*
X162585714Y-216457200D02*
X162442857Y-216504819D01*
X162442857Y-216504819D02*
X162347619Y-216504819D01*
X162347619Y-216504819D02*
X162204762Y-216457200D01*
X162204762Y-216457200D02*
X162109524Y-216361961D01*
X162109524Y-216361961D02*
X162061905Y-216266723D01*
X162061905Y-216266723D02*
X162014286Y-216076247D01*
X162014286Y-216076247D02*
X162014286Y-215933390D01*
X162014286Y-215933390D02*
X162061905Y-215742914D01*
X162061905Y-215742914D02*
X162109524Y-215647676D01*
X162109524Y-215647676D02*
X162204762Y-215552438D01*
X162204762Y-215552438D02*
X162347619Y-215504819D01*
X162347619Y-215504819D02*
X162442857Y-215504819D01*
X162442857Y-215504819D02*
X162585714Y-215552438D01*
X162585714Y-215552438D02*
X162633333Y-215600057D01*
X163585714Y-216504819D02*
X163014286Y-216504819D01*
X163300000Y-216504819D02*
X163300000Y-215504819D01*
X163300000Y-215504819D02*
X163204762Y-215647676D01*
X163204762Y-215647676D02*
X163109524Y-215742914D01*
X163109524Y-215742914D02*
X163014286Y-215790533D01*
X112333333Y-226454819D02*
X112000000Y-225978628D01*
X111761905Y-226454819D02*
X111761905Y-225454819D01*
X111761905Y-225454819D02*
X112142857Y-225454819D01*
X112142857Y-225454819D02*
X112238095Y-225502438D01*
X112238095Y-225502438D02*
X112285714Y-225550057D01*
X112285714Y-225550057D02*
X112333333Y-225645295D01*
X112333333Y-225645295D02*
X112333333Y-225788152D01*
X112333333Y-225788152D02*
X112285714Y-225883390D01*
X112285714Y-225883390D02*
X112238095Y-225931009D01*
X112238095Y-225931009D02*
X112142857Y-225978628D01*
X112142857Y-225978628D02*
X111761905Y-225978628D01*
X113190476Y-225788152D02*
X113190476Y-226454819D01*
X112952381Y-225407200D02*
X112714286Y-226121485D01*
X112714286Y-226121485D02*
X113333333Y-226121485D01*
X363705733Y-215709580D02*
X363658114Y-215757200D01*
X363658114Y-215757200D02*
X363515257Y-215804819D01*
X363515257Y-215804819D02*
X363420019Y-215804819D01*
X363420019Y-215804819D02*
X363277162Y-215757200D01*
X363277162Y-215757200D02*
X363181924Y-215661961D01*
X363181924Y-215661961D02*
X363134305Y-215566723D01*
X363134305Y-215566723D02*
X363086686Y-215376247D01*
X363086686Y-215376247D02*
X363086686Y-215233390D01*
X363086686Y-215233390D02*
X363134305Y-215042914D01*
X363134305Y-215042914D02*
X363181924Y-214947676D01*
X363181924Y-214947676D02*
X363277162Y-214852438D01*
X363277162Y-214852438D02*
X363420019Y-214804819D01*
X363420019Y-214804819D02*
X363515257Y-214804819D01*
X363515257Y-214804819D02*
X363658114Y-214852438D01*
X363658114Y-214852438D02*
X363705733Y-214900057D01*
X364039067Y-214804819D02*
X364658114Y-214804819D01*
X364658114Y-214804819D02*
X364324781Y-215185771D01*
X364324781Y-215185771D02*
X364467638Y-215185771D01*
X364467638Y-215185771D02*
X364562876Y-215233390D01*
X364562876Y-215233390D02*
X364610495Y-215281009D01*
X364610495Y-215281009D02*
X364658114Y-215376247D01*
X364658114Y-215376247D02*
X364658114Y-215614342D01*
X364658114Y-215614342D02*
X364610495Y-215709580D01*
X364610495Y-215709580D02*
X364562876Y-215757200D01*
X364562876Y-215757200D02*
X364467638Y-215804819D01*
X364467638Y-215804819D02*
X364181924Y-215804819D01*
X364181924Y-215804819D02*
X364086686Y-215757200D01*
X364086686Y-215757200D02*
X364039067Y-215709580D01*
X425726252Y-212904819D02*
X425392919Y-212428628D01*
X425154824Y-212904819D02*
X425154824Y-211904819D01*
X425154824Y-211904819D02*
X425535776Y-211904819D01*
X425535776Y-211904819D02*
X425631014Y-211952438D01*
X425631014Y-211952438D02*
X425678633Y-212000057D01*
X425678633Y-212000057D02*
X425726252Y-212095295D01*
X425726252Y-212095295D02*
X425726252Y-212238152D01*
X425726252Y-212238152D02*
X425678633Y-212333390D01*
X425678633Y-212333390D02*
X425631014Y-212381009D01*
X425631014Y-212381009D02*
X425535776Y-212428628D01*
X425535776Y-212428628D02*
X425154824Y-212428628D01*
X426154824Y-212904819D02*
X426154824Y-211904819D01*
X426154824Y-211904819D02*
X426726252Y-212904819D01*
X426726252Y-212904819D02*
X426726252Y-211904819D01*
X427250062Y-212904819D02*
X427440538Y-212904819D01*
X427440538Y-212904819D02*
X427535776Y-212857200D01*
X427535776Y-212857200D02*
X427583395Y-212809580D01*
X427583395Y-212809580D02*
X427678633Y-212666723D01*
X427678633Y-212666723D02*
X427726252Y-212476247D01*
X427726252Y-212476247D02*
X427726252Y-212095295D01*
X427726252Y-212095295D02*
X427678633Y-212000057D01*
X427678633Y-212000057D02*
X427631014Y-211952438D01*
X427631014Y-211952438D02*
X427535776Y-211904819D01*
X427535776Y-211904819D02*
X427345300Y-211904819D01*
X427345300Y-211904819D02*
X427250062Y-211952438D01*
X427250062Y-211952438D02*
X427202443Y-212000057D01*
X427202443Y-212000057D02*
X427154824Y-212095295D01*
X427154824Y-212095295D02*
X427154824Y-212333390D01*
X427154824Y-212333390D02*
X427202443Y-212428628D01*
X427202443Y-212428628D02*
X427250062Y-212476247D01*
X427250062Y-212476247D02*
X427345300Y-212523866D01*
X427345300Y-212523866D02*
X427535776Y-212523866D01*
X427535776Y-212523866D02*
X427631014Y-212476247D01*
X427631014Y-212476247D02*
X427678633Y-212428628D01*
X427678633Y-212428628D02*
X427726252Y-212333390D01*
X428154824Y-212523866D02*
X428916729Y-212523866D01*
X429916728Y-212904819D02*
X429345300Y-212904819D01*
X429631014Y-212904819D02*
X429631014Y-211904819D01*
X429631014Y-211904819D02*
X429535776Y-212047676D01*
X429535776Y-212047676D02*
X429440538Y-212142914D01*
X429440538Y-212142914D02*
X429345300Y-212190533D01*
X430535776Y-211904819D02*
X430631014Y-211904819D01*
X430631014Y-211904819D02*
X430726252Y-211952438D01*
X430726252Y-211952438D02*
X430773871Y-212000057D01*
X430773871Y-212000057D02*
X430821490Y-212095295D01*
X430821490Y-212095295D02*
X430869109Y-212285771D01*
X430869109Y-212285771D02*
X430869109Y-212523866D01*
X430869109Y-212523866D02*
X430821490Y-212714342D01*
X430821490Y-212714342D02*
X430773871Y-212809580D01*
X430773871Y-212809580D02*
X430726252Y-212857200D01*
X430726252Y-212857200D02*
X430631014Y-212904819D01*
X430631014Y-212904819D02*
X430535776Y-212904819D01*
X430535776Y-212904819D02*
X430440538Y-212857200D01*
X430440538Y-212857200D02*
X430392919Y-212809580D01*
X430392919Y-212809580D02*
X430345300Y-212714342D01*
X430345300Y-212714342D02*
X430297681Y-212523866D01*
X430297681Y-212523866D02*
X430297681Y-212285771D01*
X430297681Y-212285771D02*
X430345300Y-212095295D01*
X430345300Y-212095295D02*
X430392919Y-212000057D01*
X430392919Y-212000057D02*
X430440538Y-211952438D01*
X430440538Y-211952438D02*
X430535776Y-211904819D01*
X431488157Y-211904819D02*
X431583395Y-211904819D01*
X431583395Y-211904819D02*
X431678633Y-211952438D01*
X431678633Y-211952438D02*
X431726252Y-212000057D01*
X431726252Y-212000057D02*
X431773871Y-212095295D01*
X431773871Y-212095295D02*
X431821490Y-212285771D01*
X431821490Y-212285771D02*
X431821490Y-212523866D01*
X431821490Y-212523866D02*
X431773871Y-212714342D01*
X431773871Y-212714342D02*
X431726252Y-212809580D01*
X431726252Y-212809580D02*
X431678633Y-212857200D01*
X431678633Y-212857200D02*
X431583395Y-212904819D01*
X431583395Y-212904819D02*
X431488157Y-212904819D01*
X431488157Y-212904819D02*
X431392919Y-212857200D01*
X431392919Y-212857200D02*
X431345300Y-212809580D01*
X431345300Y-212809580D02*
X431297681Y-212714342D01*
X431297681Y-212714342D02*
X431250062Y-212523866D01*
X431250062Y-212523866D02*
X431250062Y-212285771D01*
X431250062Y-212285771D02*
X431297681Y-212095295D01*
X431297681Y-212095295D02*
X431345300Y-212000057D01*
X431345300Y-212000057D02*
X431392919Y-211952438D01*
X431392919Y-211952438D02*
X431488157Y-211904819D01*
X432250062Y-212904819D02*
X432250062Y-211904819D01*
X432345300Y-212523866D02*
X432631014Y-212904819D01*
X432631014Y-212238152D02*
X432250062Y-212619104D01*
X433583395Y-212904819D02*
X433011967Y-212904819D01*
X433297681Y-212904819D02*
X433297681Y-211904819D01*
X433297681Y-211904819D02*
X433202443Y-212047676D01*
X433202443Y-212047676D02*
X433107205Y-212142914D01*
X433107205Y-212142914D02*
X433011967Y-212190533D01*
X190518095Y-212404819D02*
X190184762Y-211928628D01*
X189946667Y-212404819D02*
X189946667Y-211404819D01*
X189946667Y-211404819D02*
X190327619Y-211404819D01*
X190327619Y-211404819D02*
X190422857Y-211452438D01*
X190422857Y-211452438D02*
X190470476Y-211500057D01*
X190470476Y-211500057D02*
X190518095Y-211595295D01*
X190518095Y-211595295D02*
X190518095Y-211738152D01*
X190518095Y-211738152D02*
X190470476Y-211833390D01*
X190470476Y-211833390D02*
X190422857Y-211881009D01*
X190422857Y-211881009D02*
X190327619Y-211928628D01*
X190327619Y-211928628D02*
X189946667Y-211928628D01*
X190946667Y-212404819D02*
X190946667Y-211404819D01*
X190946667Y-211404819D02*
X191518095Y-212404819D01*
X191518095Y-212404819D02*
X191518095Y-211404819D01*
X191946667Y-211500057D02*
X191994286Y-211452438D01*
X191994286Y-211452438D02*
X192089524Y-211404819D01*
X192089524Y-211404819D02*
X192327619Y-211404819D01*
X192327619Y-211404819D02*
X192422857Y-211452438D01*
X192422857Y-211452438D02*
X192470476Y-211500057D01*
X192470476Y-211500057D02*
X192518095Y-211595295D01*
X192518095Y-211595295D02*
X192518095Y-211690533D01*
X192518095Y-211690533D02*
X192470476Y-211833390D01*
X192470476Y-211833390D02*
X191899048Y-212404819D01*
X191899048Y-212404819D02*
X192518095Y-212404819D01*
X192946667Y-212023866D02*
X193708572Y-212023866D01*
X194137143Y-211500057D02*
X194184762Y-211452438D01*
X194184762Y-211452438D02*
X194280000Y-211404819D01*
X194280000Y-211404819D02*
X194518095Y-211404819D01*
X194518095Y-211404819D02*
X194613333Y-211452438D01*
X194613333Y-211452438D02*
X194660952Y-211500057D01*
X194660952Y-211500057D02*
X194708571Y-211595295D01*
X194708571Y-211595295D02*
X194708571Y-211690533D01*
X194708571Y-211690533D02*
X194660952Y-211833390D01*
X194660952Y-211833390D02*
X194089524Y-212404819D01*
X194089524Y-212404819D02*
X194708571Y-212404819D01*
X195089524Y-211500057D02*
X195137143Y-211452438D01*
X195137143Y-211452438D02*
X195232381Y-211404819D01*
X195232381Y-211404819D02*
X195470476Y-211404819D01*
X195470476Y-211404819D02*
X195565714Y-211452438D01*
X195565714Y-211452438D02*
X195613333Y-211500057D01*
X195613333Y-211500057D02*
X195660952Y-211595295D01*
X195660952Y-211595295D02*
X195660952Y-211690533D01*
X195660952Y-211690533D02*
X195613333Y-211833390D01*
X195613333Y-211833390D02*
X195041905Y-212404819D01*
X195041905Y-212404819D02*
X195660952Y-212404819D01*
X162933333Y-224754819D02*
X162600000Y-224278628D01*
X162361905Y-224754819D02*
X162361905Y-223754819D01*
X162361905Y-223754819D02*
X162742857Y-223754819D01*
X162742857Y-223754819D02*
X162838095Y-223802438D01*
X162838095Y-223802438D02*
X162885714Y-223850057D01*
X162885714Y-223850057D02*
X162933333Y-223945295D01*
X162933333Y-223945295D02*
X162933333Y-224088152D01*
X162933333Y-224088152D02*
X162885714Y-224183390D01*
X162885714Y-224183390D02*
X162838095Y-224231009D01*
X162838095Y-224231009D02*
X162742857Y-224278628D01*
X162742857Y-224278628D02*
X162361905Y-224278628D01*
X163885714Y-224754819D02*
X163314286Y-224754819D01*
X163600000Y-224754819D02*
X163600000Y-223754819D01*
X163600000Y-223754819D02*
X163504762Y-223897676D01*
X163504762Y-223897676D02*
X163409524Y-223992914D01*
X163409524Y-223992914D02*
X163314286Y-224040533D01*
X101454819Y-216833333D02*
X102169104Y-216833333D01*
X102169104Y-216833333D02*
X102311961Y-216880952D01*
X102311961Y-216880952D02*
X102407200Y-216976190D01*
X102407200Y-216976190D02*
X102454819Y-217119047D01*
X102454819Y-217119047D02*
X102454819Y-217214285D01*
X102454819Y-215833333D02*
X102454819Y-216404761D01*
X102454819Y-216119047D02*
X101454819Y-216119047D01*
X101454819Y-216119047D02*
X101597676Y-216214285D01*
X101597676Y-216214285D02*
X101692914Y-216309523D01*
X101692914Y-216309523D02*
X101740533Y-216404761D01*
X262933333Y-224854819D02*
X262600000Y-224378628D01*
X262361905Y-224854819D02*
X262361905Y-223854819D01*
X262361905Y-223854819D02*
X262742857Y-223854819D01*
X262742857Y-223854819D02*
X262838095Y-223902438D01*
X262838095Y-223902438D02*
X262885714Y-223950057D01*
X262885714Y-223950057D02*
X262933333Y-224045295D01*
X262933333Y-224045295D02*
X262933333Y-224188152D01*
X262933333Y-224188152D02*
X262885714Y-224283390D01*
X262885714Y-224283390D02*
X262838095Y-224331009D01*
X262838095Y-224331009D02*
X262742857Y-224378628D01*
X262742857Y-224378628D02*
X262361905Y-224378628D01*
X263314286Y-223950057D02*
X263361905Y-223902438D01*
X263361905Y-223902438D02*
X263457143Y-223854819D01*
X263457143Y-223854819D02*
X263695238Y-223854819D01*
X263695238Y-223854819D02*
X263790476Y-223902438D01*
X263790476Y-223902438D02*
X263838095Y-223950057D01*
X263838095Y-223950057D02*
X263885714Y-224045295D01*
X263885714Y-224045295D02*
X263885714Y-224140533D01*
X263885714Y-224140533D02*
X263838095Y-224283390D01*
X263838095Y-224283390D02*
X263266667Y-224854819D01*
X263266667Y-224854819D02*
X263885714Y-224854819D01*
X154880952Y-212404819D02*
X154547619Y-211928628D01*
X154309524Y-212404819D02*
X154309524Y-211404819D01*
X154309524Y-211404819D02*
X154690476Y-211404819D01*
X154690476Y-211404819D02*
X154785714Y-211452438D01*
X154785714Y-211452438D02*
X154833333Y-211500057D01*
X154833333Y-211500057D02*
X154880952Y-211595295D01*
X154880952Y-211595295D02*
X154880952Y-211738152D01*
X154880952Y-211738152D02*
X154833333Y-211833390D01*
X154833333Y-211833390D02*
X154785714Y-211881009D01*
X154785714Y-211881009D02*
X154690476Y-211928628D01*
X154690476Y-211928628D02*
X154309524Y-211928628D01*
X155309524Y-212404819D02*
X155309524Y-211404819D01*
X155309524Y-211404819D02*
X155880952Y-212404819D01*
X155880952Y-212404819D02*
X155880952Y-211404819D01*
X156880952Y-212404819D02*
X156309524Y-212404819D01*
X156595238Y-212404819D02*
X156595238Y-211404819D01*
X156595238Y-211404819D02*
X156500000Y-211547676D01*
X156500000Y-211547676D02*
X156404762Y-211642914D01*
X156404762Y-211642914D02*
X156309524Y-211690533D01*
X157309524Y-212023866D02*
X158071429Y-212023866D01*
X159071428Y-212404819D02*
X158500000Y-212404819D01*
X158785714Y-212404819D02*
X158785714Y-211404819D01*
X158785714Y-211404819D02*
X158690476Y-211547676D01*
X158690476Y-211547676D02*
X158595238Y-211642914D01*
X158595238Y-211642914D02*
X158500000Y-211690533D01*
X159690476Y-211404819D02*
X159785714Y-211404819D01*
X159785714Y-211404819D02*
X159880952Y-211452438D01*
X159880952Y-211452438D02*
X159928571Y-211500057D01*
X159928571Y-211500057D02*
X159976190Y-211595295D01*
X159976190Y-211595295D02*
X160023809Y-211785771D01*
X160023809Y-211785771D02*
X160023809Y-212023866D01*
X160023809Y-212023866D02*
X159976190Y-212214342D01*
X159976190Y-212214342D02*
X159928571Y-212309580D01*
X159928571Y-212309580D02*
X159880952Y-212357200D01*
X159880952Y-212357200D02*
X159785714Y-212404819D01*
X159785714Y-212404819D02*
X159690476Y-212404819D01*
X159690476Y-212404819D02*
X159595238Y-212357200D01*
X159595238Y-212357200D02*
X159547619Y-212309580D01*
X159547619Y-212309580D02*
X159500000Y-212214342D01*
X159500000Y-212214342D02*
X159452381Y-212023866D01*
X159452381Y-212023866D02*
X159452381Y-211785771D01*
X159452381Y-211785771D02*
X159500000Y-211595295D01*
X159500000Y-211595295D02*
X159547619Y-211500057D01*
X159547619Y-211500057D02*
X159595238Y-211452438D01*
X159595238Y-211452438D02*
X159690476Y-211404819D01*
X160642857Y-211404819D02*
X160738095Y-211404819D01*
X160738095Y-211404819D02*
X160833333Y-211452438D01*
X160833333Y-211452438D02*
X160880952Y-211500057D01*
X160880952Y-211500057D02*
X160928571Y-211595295D01*
X160928571Y-211595295D02*
X160976190Y-211785771D01*
X160976190Y-211785771D02*
X160976190Y-212023866D01*
X160976190Y-212023866D02*
X160928571Y-212214342D01*
X160928571Y-212214342D02*
X160880952Y-212309580D01*
X160880952Y-212309580D02*
X160833333Y-212357200D01*
X160833333Y-212357200D02*
X160738095Y-212404819D01*
X160738095Y-212404819D02*
X160642857Y-212404819D01*
X160642857Y-212404819D02*
X160547619Y-212357200D01*
X160547619Y-212357200D02*
X160500000Y-212309580D01*
X160500000Y-212309580D02*
X160452381Y-212214342D01*
X160452381Y-212214342D02*
X160404762Y-212023866D01*
X160404762Y-212023866D02*
X160404762Y-211785771D01*
X160404762Y-211785771D02*
X160452381Y-211595295D01*
X160452381Y-211595295D02*
X160500000Y-211500057D01*
X160500000Y-211500057D02*
X160547619Y-211452438D01*
X160547619Y-211452438D02*
X160642857Y-211404819D01*
X161404762Y-212404819D02*
X161404762Y-211404819D01*
X161500000Y-212023866D02*
X161785714Y-212404819D01*
X161785714Y-211738152D02*
X161404762Y-212119104D01*
X162738095Y-212404819D02*
X162166667Y-212404819D01*
X162452381Y-212404819D02*
X162452381Y-211404819D01*
X162452381Y-211404819D02*
X162357143Y-211547676D01*
X162357143Y-211547676D02*
X162261905Y-211642914D01*
X162261905Y-211642914D02*
X162166667Y-211690533D01*
X325880952Y-212404819D02*
X325547619Y-211928628D01*
X325309524Y-212404819D02*
X325309524Y-211404819D01*
X325309524Y-211404819D02*
X325690476Y-211404819D01*
X325690476Y-211404819D02*
X325785714Y-211452438D01*
X325785714Y-211452438D02*
X325833333Y-211500057D01*
X325833333Y-211500057D02*
X325880952Y-211595295D01*
X325880952Y-211595295D02*
X325880952Y-211738152D01*
X325880952Y-211738152D02*
X325833333Y-211833390D01*
X325833333Y-211833390D02*
X325785714Y-211881009D01*
X325785714Y-211881009D02*
X325690476Y-211928628D01*
X325690476Y-211928628D02*
X325309524Y-211928628D01*
X326309524Y-212404819D02*
X326309524Y-211404819D01*
X326309524Y-211404819D02*
X326880952Y-212404819D01*
X326880952Y-212404819D02*
X326880952Y-211404819D01*
X327785714Y-211404819D02*
X327595238Y-211404819D01*
X327595238Y-211404819D02*
X327500000Y-211452438D01*
X327500000Y-211452438D02*
X327452381Y-211500057D01*
X327452381Y-211500057D02*
X327357143Y-211642914D01*
X327357143Y-211642914D02*
X327309524Y-211833390D01*
X327309524Y-211833390D02*
X327309524Y-212214342D01*
X327309524Y-212214342D02*
X327357143Y-212309580D01*
X327357143Y-212309580D02*
X327404762Y-212357200D01*
X327404762Y-212357200D02*
X327500000Y-212404819D01*
X327500000Y-212404819D02*
X327690476Y-212404819D01*
X327690476Y-212404819D02*
X327785714Y-212357200D01*
X327785714Y-212357200D02*
X327833333Y-212309580D01*
X327833333Y-212309580D02*
X327880952Y-212214342D01*
X327880952Y-212214342D02*
X327880952Y-211976247D01*
X327880952Y-211976247D02*
X327833333Y-211881009D01*
X327833333Y-211881009D02*
X327785714Y-211833390D01*
X327785714Y-211833390D02*
X327690476Y-211785771D01*
X327690476Y-211785771D02*
X327500000Y-211785771D01*
X327500000Y-211785771D02*
X327404762Y-211833390D01*
X327404762Y-211833390D02*
X327357143Y-211881009D01*
X327357143Y-211881009D02*
X327309524Y-211976247D01*
X328309524Y-212023866D02*
X329071429Y-212023866D01*
X330071428Y-212404819D02*
X329500000Y-212404819D01*
X329785714Y-212404819D02*
X329785714Y-211404819D01*
X329785714Y-211404819D02*
X329690476Y-211547676D01*
X329690476Y-211547676D02*
X329595238Y-211642914D01*
X329595238Y-211642914D02*
X329500000Y-211690533D01*
X330690476Y-211404819D02*
X330785714Y-211404819D01*
X330785714Y-211404819D02*
X330880952Y-211452438D01*
X330880952Y-211452438D02*
X330928571Y-211500057D01*
X330928571Y-211500057D02*
X330976190Y-211595295D01*
X330976190Y-211595295D02*
X331023809Y-211785771D01*
X331023809Y-211785771D02*
X331023809Y-212023866D01*
X331023809Y-212023866D02*
X330976190Y-212214342D01*
X330976190Y-212214342D02*
X330928571Y-212309580D01*
X330928571Y-212309580D02*
X330880952Y-212357200D01*
X330880952Y-212357200D02*
X330785714Y-212404819D01*
X330785714Y-212404819D02*
X330690476Y-212404819D01*
X330690476Y-212404819D02*
X330595238Y-212357200D01*
X330595238Y-212357200D02*
X330547619Y-212309580D01*
X330547619Y-212309580D02*
X330500000Y-212214342D01*
X330500000Y-212214342D02*
X330452381Y-212023866D01*
X330452381Y-212023866D02*
X330452381Y-211785771D01*
X330452381Y-211785771D02*
X330500000Y-211595295D01*
X330500000Y-211595295D02*
X330547619Y-211500057D01*
X330547619Y-211500057D02*
X330595238Y-211452438D01*
X330595238Y-211452438D02*
X330690476Y-211404819D01*
X331642857Y-211404819D02*
X331738095Y-211404819D01*
X331738095Y-211404819D02*
X331833333Y-211452438D01*
X331833333Y-211452438D02*
X331880952Y-211500057D01*
X331880952Y-211500057D02*
X331928571Y-211595295D01*
X331928571Y-211595295D02*
X331976190Y-211785771D01*
X331976190Y-211785771D02*
X331976190Y-212023866D01*
X331976190Y-212023866D02*
X331928571Y-212214342D01*
X331928571Y-212214342D02*
X331880952Y-212309580D01*
X331880952Y-212309580D02*
X331833333Y-212357200D01*
X331833333Y-212357200D02*
X331738095Y-212404819D01*
X331738095Y-212404819D02*
X331642857Y-212404819D01*
X331642857Y-212404819D02*
X331547619Y-212357200D01*
X331547619Y-212357200D02*
X331500000Y-212309580D01*
X331500000Y-212309580D02*
X331452381Y-212214342D01*
X331452381Y-212214342D02*
X331404762Y-212023866D01*
X331404762Y-212023866D02*
X331404762Y-211785771D01*
X331404762Y-211785771D02*
X331452381Y-211595295D01*
X331452381Y-211595295D02*
X331500000Y-211500057D01*
X331500000Y-211500057D02*
X331547619Y-211452438D01*
X331547619Y-211452438D02*
X331642857Y-211404819D01*
X332404762Y-212404819D02*
X332404762Y-211404819D01*
X332500000Y-212023866D02*
X332785714Y-212404819D01*
X332785714Y-211738152D02*
X332404762Y-212119104D01*
X333738095Y-212404819D02*
X333166667Y-212404819D01*
X333452381Y-212404819D02*
X333452381Y-211404819D01*
X333452381Y-211404819D02*
X333357143Y-211547676D01*
X333357143Y-211547676D02*
X333261905Y-211642914D01*
X333261905Y-211642914D02*
X333166667Y-211690533D01*
X353380952Y-212404819D02*
X353047619Y-211928628D01*
X352809524Y-212404819D02*
X352809524Y-211404819D01*
X352809524Y-211404819D02*
X353190476Y-211404819D01*
X353190476Y-211404819D02*
X353285714Y-211452438D01*
X353285714Y-211452438D02*
X353333333Y-211500057D01*
X353333333Y-211500057D02*
X353380952Y-211595295D01*
X353380952Y-211595295D02*
X353380952Y-211738152D01*
X353380952Y-211738152D02*
X353333333Y-211833390D01*
X353333333Y-211833390D02*
X353285714Y-211881009D01*
X353285714Y-211881009D02*
X353190476Y-211928628D01*
X353190476Y-211928628D02*
X352809524Y-211928628D01*
X353809524Y-212404819D02*
X353809524Y-211404819D01*
X353809524Y-211404819D02*
X354380952Y-212404819D01*
X354380952Y-212404819D02*
X354380952Y-211404819D01*
X355000000Y-211833390D02*
X354904762Y-211785771D01*
X354904762Y-211785771D02*
X354857143Y-211738152D01*
X354857143Y-211738152D02*
X354809524Y-211642914D01*
X354809524Y-211642914D02*
X354809524Y-211595295D01*
X354809524Y-211595295D02*
X354857143Y-211500057D01*
X354857143Y-211500057D02*
X354904762Y-211452438D01*
X354904762Y-211452438D02*
X355000000Y-211404819D01*
X355000000Y-211404819D02*
X355190476Y-211404819D01*
X355190476Y-211404819D02*
X355285714Y-211452438D01*
X355285714Y-211452438D02*
X355333333Y-211500057D01*
X355333333Y-211500057D02*
X355380952Y-211595295D01*
X355380952Y-211595295D02*
X355380952Y-211642914D01*
X355380952Y-211642914D02*
X355333333Y-211738152D01*
X355333333Y-211738152D02*
X355285714Y-211785771D01*
X355285714Y-211785771D02*
X355190476Y-211833390D01*
X355190476Y-211833390D02*
X355000000Y-211833390D01*
X355000000Y-211833390D02*
X354904762Y-211881009D01*
X354904762Y-211881009D02*
X354857143Y-211928628D01*
X354857143Y-211928628D02*
X354809524Y-212023866D01*
X354809524Y-212023866D02*
X354809524Y-212214342D01*
X354809524Y-212214342D02*
X354857143Y-212309580D01*
X354857143Y-212309580D02*
X354904762Y-212357200D01*
X354904762Y-212357200D02*
X355000000Y-212404819D01*
X355000000Y-212404819D02*
X355190476Y-212404819D01*
X355190476Y-212404819D02*
X355285714Y-212357200D01*
X355285714Y-212357200D02*
X355333333Y-212309580D01*
X355333333Y-212309580D02*
X355380952Y-212214342D01*
X355380952Y-212214342D02*
X355380952Y-212023866D01*
X355380952Y-212023866D02*
X355333333Y-211928628D01*
X355333333Y-211928628D02*
X355285714Y-211881009D01*
X355285714Y-211881009D02*
X355190476Y-211833390D01*
X355809524Y-212023866D02*
X356571429Y-212023866D01*
X357571428Y-212404819D02*
X357000000Y-212404819D01*
X357285714Y-212404819D02*
X357285714Y-211404819D01*
X357285714Y-211404819D02*
X357190476Y-211547676D01*
X357190476Y-211547676D02*
X357095238Y-211642914D01*
X357095238Y-211642914D02*
X357000000Y-211690533D01*
X358190476Y-211404819D02*
X358285714Y-211404819D01*
X358285714Y-211404819D02*
X358380952Y-211452438D01*
X358380952Y-211452438D02*
X358428571Y-211500057D01*
X358428571Y-211500057D02*
X358476190Y-211595295D01*
X358476190Y-211595295D02*
X358523809Y-211785771D01*
X358523809Y-211785771D02*
X358523809Y-212023866D01*
X358523809Y-212023866D02*
X358476190Y-212214342D01*
X358476190Y-212214342D02*
X358428571Y-212309580D01*
X358428571Y-212309580D02*
X358380952Y-212357200D01*
X358380952Y-212357200D02*
X358285714Y-212404819D01*
X358285714Y-212404819D02*
X358190476Y-212404819D01*
X358190476Y-212404819D02*
X358095238Y-212357200D01*
X358095238Y-212357200D02*
X358047619Y-212309580D01*
X358047619Y-212309580D02*
X358000000Y-212214342D01*
X358000000Y-212214342D02*
X357952381Y-212023866D01*
X357952381Y-212023866D02*
X357952381Y-211785771D01*
X357952381Y-211785771D02*
X358000000Y-211595295D01*
X358000000Y-211595295D02*
X358047619Y-211500057D01*
X358047619Y-211500057D02*
X358095238Y-211452438D01*
X358095238Y-211452438D02*
X358190476Y-211404819D01*
X359142857Y-211404819D02*
X359238095Y-211404819D01*
X359238095Y-211404819D02*
X359333333Y-211452438D01*
X359333333Y-211452438D02*
X359380952Y-211500057D01*
X359380952Y-211500057D02*
X359428571Y-211595295D01*
X359428571Y-211595295D02*
X359476190Y-211785771D01*
X359476190Y-211785771D02*
X359476190Y-212023866D01*
X359476190Y-212023866D02*
X359428571Y-212214342D01*
X359428571Y-212214342D02*
X359380952Y-212309580D01*
X359380952Y-212309580D02*
X359333333Y-212357200D01*
X359333333Y-212357200D02*
X359238095Y-212404819D01*
X359238095Y-212404819D02*
X359142857Y-212404819D01*
X359142857Y-212404819D02*
X359047619Y-212357200D01*
X359047619Y-212357200D02*
X359000000Y-212309580D01*
X359000000Y-212309580D02*
X358952381Y-212214342D01*
X358952381Y-212214342D02*
X358904762Y-212023866D01*
X358904762Y-212023866D02*
X358904762Y-211785771D01*
X358904762Y-211785771D02*
X358952381Y-211595295D01*
X358952381Y-211595295D02*
X359000000Y-211500057D01*
X359000000Y-211500057D02*
X359047619Y-211452438D01*
X359047619Y-211452438D02*
X359142857Y-211404819D01*
X359904762Y-212404819D02*
X359904762Y-211404819D01*
X360000000Y-212023866D02*
X360285714Y-212404819D01*
X360285714Y-211738152D02*
X359904762Y-212119104D01*
X361238095Y-212404819D02*
X360666667Y-212404819D01*
X360952381Y-212404819D02*
X360952381Y-211404819D01*
X360952381Y-211404819D02*
X360857143Y-211547676D01*
X360857143Y-211547676D02*
X360761905Y-211642914D01*
X360761905Y-211642914D02*
X360666667Y-211690533D01*
X253880952Y-211904819D02*
X253547619Y-211428628D01*
X253309524Y-211904819D02*
X253309524Y-210904819D01*
X253309524Y-210904819D02*
X253690476Y-210904819D01*
X253690476Y-210904819D02*
X253785714Y-210952438D01*
X253785714Y-210952438D02*
X253833333Y-211000057D01*
X253833333Y-211000057D02*
X253880952Y-211095295D01*
X253880952Y-211095295D02*
X253880952Y-211238152D01*
X253880952Y-211238152D02*
X253833333Y-211333390D01*
X253833333Y-211333390D02*
X253785714Y-211381009D01*
X253785714Y-211381009D02*
X253690476Y-211428628D01*
X253690476Y-211428628D02*
X253309524Y-211428628D01*
X254309524Y-211904819D02*
X254309524Y-210904819D01*
X254309524Y-210904819D02*
X254880952Y-211904819D01*
X254880952Y-211904819D02*
X254880952Y-210904819D01*
X255833333Y-210904819D02*
X255357143Y-210904819D01*
X255357143Y-210904819D02*
X255309524Y-211381009D01*
X255309524Y-211381009D02*
X255357143Y-211333390D01*
X255357143Y-211333390D02*
X255452381Y-211285771D01*
X255452381Y-211285771D02*
X255690476Y-211285771D01*
X255690476Y-211285771D02*
X255785714Y-211333390D01*
X255785714Y-211333390D02*
X255833333Y-211381009D01*
X255833333Y-211381009D02*
X255880952Y-211476247D01*
X255880952Y-211476247D02*
X255880952Y-211714342D01*
X255880952Y-211714342D02*
X255833333Y-211809580D01*
X255833333Y-211809580D02*
X255785714Y-211857200D01*
X255785714Y-211857200D02*
X255690476Y-211904819D01*
X255690476Y-211904819D02*
X255452381Y-211904819D01*
X255452381Y-211904819D02*
X255357143Y-211857200D01*
X255357143Y-211857200D02*
X255309524Y-211809580D01*
X256309524Y-211523866D02*
X257071429Y-211523866D01*
X258071428Y-211904819D02*
X257500000Y-211904819D01*
X257785714Y-211904819D02*
X257785714Y-210904819D01*
X257785714Y-210904819D02*
X257690476Y-211047676D01*
X257690476Y-211047676D02*
X257595238Y-211142914D01*
X257595238Y-211142914D02*
X257500000Y-211190533D01*
X258690476Y-210904819D02*
X258785714Y-210904819D01*
X258785714Y-210904819D02*
X258880952Y-210952438D01*
X258880952Y-210952438D02*
X258928571Y-211000057D01*
X258928571Y-211000057D02*
X258976190Y-211095295D01*
X258976190Y-211095295D02*
X259023809Y-211285771D01*
X259023809Y-211285771D02*
X259023809Y-211523866D01*
X259023809Y-211523866D02*
X258976190Y-211714342D01*
X258976190Y-211714342D02*
X258928571Y-211809580D01*
X258928571Y-211809580D02*
X258880952Y-211857200D01*
X258880952Y-211857200D02*
X258785714Y-211904819D01*
X258785714Y-211904819D02*
X258690476Y-211904819D01*
X258690476Y-211904819D02*
X258595238Y-211857200D01*
X258595238Y-211857200D02*
X258547619Y-211809580D01*
X258547619Y-211809580D02*
X258500000Y-211714342D01*
X258500000Y-211714342D02*
X258452381Y-211523866D01*
X258452381Y-211523866D02*
X258452381Y-211285771D01*
X258452381Y-211285771D02*
X258500000Y-211095295D01*
X258500000Y-211095295D02*
X258547619Y-211000057D01*
X258547619Y-211000057D02*
X258595238Y-210952438D01*
X258595238Y-210952438D02*
X258690476Y-210904819D01*
X259642857Y-210904819D02*
X259738095Y-210904819D01*
X259738095Y-210904819D02*
X259833333Y-210952438D01*
X259833333Y-210952438D02*
X259880952Y-211000057D01*
X259880952Y-211000057D02*
X259928571Y-211095295D01*
X259928571Y-211095295D02*
X259976190Y-211285771D01*
X259976190Y-211285771D02*
X259976190Y-211523866D01*
X259976190Y-211523866D02*
X259928571Y-211714342D01*
X259928571Y-211714342D02*
X259880952Y-211809580D01*
X259880952Y-211809580D02*
X259833333Y-211857200D01*
X259833333Y-211857200D02*
X259738095Y-211904819D01*
X259738095Y-211904819D02*
X259642857Y-211904819D01*
X259642857Y-211904819D02*
X259547619Y-211857200D01*
X259547619Y-211857200D02*
X259500000Y-211809580D01*
X259500000Y-211809580D02*
X259452381Y-211714342D01*
X259452381Y-211714342D02*
X259404762Y-211523866D01*
X259404762Y-211523866D02*
X259404762Y-211285771D01*
X259404762Y-211285771D02*
X259452381Y-211095295D01*
X259452381Y-211095295D02*
X259500000Y-211000057D01*
X259500000Y-211000057D02*
X259547619Y-210952438D01*
X259547619Y-210952438D02*
X259642857Y-210904819D01*
X260404762Y-211904819D02*
X260404762Y-210904819D01*
X260500000Y-211523866D02*
X260785714Y-211904819D01*
X260785714Y-211238152D02*
X260404762Y-211619104D01*
X261738095Y-211904819D02*
X261166667Y-211904819D01*
X261452381Y-211904819D02*
X261452381Y-210904819D01*
X261452381Y-210904819D02*
X261357143Y-211047676D01*
X261357143Y-211047676D02*
X261261905Y-211142914D01*
X261261905Y-211142914D02*
X261166667Y-211190533D01*
X391155595Y-212404819D02*
X390822262Y-211928628D01*
X390584167Y-212404819D02*
X390584167Y-211404819D01*
X390584167Y-211404819D02*
X390965119Y-211404819D01*
X390965119Y-211404819D02*
X391060357Y-211452438D01*
X391060357Y-211452438D02*
X391107976Y-211500057D01*
X391107976Y-211500057D02*
X391155595Y-211595295D01*
X391155595Y-211595295D02*
X391155595Y-211738152D01*
X391155595Y-211738152D02*
X391107976Y-211833390D01*
X391107976Y-211833390D02*
X391060357Y-211881009D01*
X391060357Y-211881009D02*
X390965119Y-211928628D01*
X390965119Y-211928628D02*
X390584167Y-211928628D01*
X391584167Y-212404819D02*
X391584167Y-211404819D01*
X391584167Y-211404819D02*
X392155595Y-212404819D01*
X392155595Y-212404819D02*
X392155595Y-211404819D01*
X392536548Y-211404819D02*
X393203214Y-211404819D01*
X393203214Y-211404819D02*
X392774643Y-212404819D01*
X393584167Y-212023866D02*
X394346072Y-212023866D01*
X394774643Y-211500057D02*
X394822262Y-211452438D01*
X394822262Y-211452438D02*
X394917500Y-211404819D01*
X394917500Y-211404819D02*
X395155595Y-211404819D01*
X395155595Y-211404819D02*
X395250833Y-211452438D01*
X395250833Y-211452438D02*
X395298452Y-211500057D01*
X395298452Y-211500057D02*
X395346071Y-211595295D01*
X395346071Y-211595295D02*
X395346071Y-211690533D01*
X395346071Y-211690533D02*
X395298452Y-211833390D01*
X395298452Y-211833390D02*
X394727024Y-212404819D01*
X394727024Y-212404819D02*
X395346071Y-212404819D01*
X395727024Y-211500057D02*
X395774643Y-211452438D01*
X395774643Y-211452438D02*
X395869881Y-211404819D01*
X395869881Y-211404819D02*
X396107976Y-211404819D01*
X396107976Y-211404819D02*
X396203214Y-211452438D01*
X396203214Y-211452438D02*
X396250833Y-211500057D01*
X396250833Y-211500057D02*
X396298452Y-211595295D01*
X396298452Y-211595295D02*
X396298452Y-211690533D01*
X396298452Y-211690533D02*
X396250833Y-211833390D01*
X396250833Y-211833390D02*
X395679405Y-212404819D01*
X395679405Y-212404819D02*
X396298452Y-212404819D01*
X364633333Y-224254819D02*
X364300000Y-223778628D01*
X364061905Y-224254819D02*
X364061905Y-223254819D01*
X364061905Y-223254819D02*
X364442857Y-223254819D01*
X364442857Y-223254819D02*
X364538095Y-223302438D01*
X364538095Y-223302438D02*
X364585714Y-223350057D01*
X364585714Y-223350057D02*
X364633333Y-223445295D01*
X364633333Y-223445295D02*
X364633333Y-223588152D01*
X364633333Y-223588152D02*
X364585714Y-223683390D01*
X364585714Y-223683390D02*
X364538095Y-223731009D01*
X364538095Y-223731009D02*
X364442857Y-223778628D01*
X364442857Y-223778628D02*
X364061905Y-223778628D01*
X364966667Y-223254819D02*
X365585714Y-223254819D01*
X365585714Y-223254819D02*
X365252381Y-223635771D01*
X365252381Y-223635771D02*
X365395238Y-223635771D01*
X365395238Y-223635771D02*
X365490476Y-223683390D01*
X365490476Y-223683390D02*
X365538095Y-223731009D01*
X365538095Y-223731009D02*
X365585714Y-223826247D01*
X365585714Y-223826247D02*
X365585714Y-224064342D01*
X365585714Y-224064342D02*
X365538095Y-224159580D01*
X365538095Y-224159580D02*
X365490476Y-224207200D01*
X365490476Y-224207200D02*
X365395238Y-224254819D01*
X365395238Y-224254819D02*
X365109524Y-224254819D01*
X365109524Y-224254819D02*
X365014286Y-224207200D01*
X365014286Y-224207200D02*
X364966667Y-224159580D01*
X261813333Y-216529580D02*
X261765714Y-216577200D01*
X261765714Y-216577200D02*
X261622857Y-216624819D01*
X261622857Y-216624819D02*
X261527619Y-216624819D01*
X261527619Y-216624819D02*
X261384762Y-216577200D01*
X261384762Y-216577200D02*
X261289524Y-216481961D01*
X261289524Y-216481961D02*
X261241905Y-216386723D01*
X261241905Y-216386723D02*
X261194286Y-216196247D01*
X261194286Y-216196247D02*
X261194286Y-216053390D01*
X261194286Y-216053390D02*
X261241905Y-215862914D01*
X261241905Y-215862914D02*
X261289524Y-215767676D01*
X261289524Y-215767676D02*
X261384762Y-215672438D01*
X261384762Y-215672438D02*
X261527619Y-215624819D01*
X261527619Y-215624819D02*
X261622857Y-215624819D01*
X261622857Y-215624819D02*
X261765714Y-215672438D01*
X261765714Y-215672438D02*
X261813333Y-215720057D01*
X262194286Y-215720057D02*
X262241905Y-215672438D01*
X262241905Y-215672438D02*
X262337143Y-215624819D01*
X262337143Y-215624819D02*
X262575238Y-215624819D01*
X262575238Y-215624819D02*
X262670476Y-215672438D01*
X262670476Y-215672438D02*
X262718095Y-215720057D01*
X262718095Y-215720057D02*
X262765714Y-215815295D01*
X262765714Y-215815295D02*
X262765714Y-215910533D01*
X262765714Y-215910533D02*
X262718095Y-216053390D01*
X262718095Y-216053390D02*
X262146667Y-216624819D01*
X262146667Y-216624819D02*
X262765714Y-216624819D01*
X290738095Y-212404819D02*
X290404762Y-211928628D01*
X290166667Y-212404819D02*
X290166667Y-211404819D01*
X290166667Y-211404819D02*
X290547619Y-211404819D01*
X290547619Y-211404819D02*
X290642857Y-211452438D01*
X290642857Y-211452438D02*
X290690476Y-211500057D01*
X290690476Y-211500057D02*
X290738095Y-211595295D01*
X290738095Y-211595295D02*
X290738095Y-211738152D01*
X290738095Y-211738152D02*
X290690476Y-211833390D01*
X290690476Y-211833390D02*
X290642857Y-211881009D01*
X290642857Y-211881009D02*
X290547619Y-211928628D01*
X290547619Y-211928628D02*
X290166667Y-211928628D01*
X291166667Y-212404819D02*
X291166667Y-211404819D01*
X291166667Y-211404819D02*
X291738095Y-212404819D01*
X291738095Y-212404819D02*
X291738095Y-211404819D01*
X292642857Y-211738152D02*
X292642857Y-212404819D01*
X292404762Y-211357200D02*
X292166667Y-212071485D01*
X292166667Y-212071485D02*
X292785714Y-212071485D01*
X293166667Y-212023866D02*
X293928572Y-212023866D01*
X294357143Y-211500057D02*
X294404762Y-211452438D01*
X294404762Y-211452438D02*
X294500000Y-211404819D01*
X294500000Y-211404819D02*
X294738095Y-211404819D01*
X294738095Y-211404819D02*
X294833333Y-211452438D01*
X294833333Y-211452438D02*
X294880952Y-211500057D01*
X294880952Y-211500057D02*
X294928571Y-211595295D01*
X294928571Y-211595295D02*
X294928571Y-211690533D01*
X294928571Y-211690533D02*
X294880952Y-211833390D01*
X294880952Y-211833390D02*
X294309524Y-212404819D01*
X294309524Y-212404819D02*
X294928571Y-212404819D01*
X295309524Y-211500057D02*
X295357143Y-211452438D01*
X295357143Y-211452438D02*
X295452381Y-211404819D01*
X295452381Y-211404819D02*
X295690476Y-211404819D01*
X295690476Y-211404819D02*
X295785714Y-211452438D01*
X295785714Y-211452438D02*
X295833333Y-211500057D01*
X295833333Y-211500057D02*
X295880952Y-211595295D01*
X295880952Y-211595295D02*
X295880952Y-211690533D01*
X295880952Y-211690533D02*
X295833333Y-211833390D01*
X295833333Y-211833390D02*
X295261905Y-212404819D01*
X295261905Y-212404819D02*
X295880952Y-212404819D01*
X112023333Y-217584819D02*
X111690000Y-217108628D01*
X111451905Y-217584819D02*
X111451905Y-216584819D01*
X111451905Y-216584819D02*
X111832857Y-216584819D01*
X111832857Y-216584819D02*
X111928095Y-216632438D01*
X111928095Y-216632438D02*
X111975714Y-216680057D01*
X111975714Y-216680057D02*
X112023333Y-216775295D01*
X112023333Y-216775295D02*
X112023333Y-216918152D01*
X112023333Y-216918152D02*
X111975714Y-217013390D01*
X111975714Y-217013390D02*
X111928095Y-217061009D01*
X111928095Y-217061009D02*
X111832857Y-217108628D01*
X111832857Y-217108628D02*
X111451905Y-217108628D01*
X112928095Y-216584819D02*
X112451905Y-216584819D01*
X112451905Y-216584819D02*
X112404286Y-217061009D01*
X112404286Y-217061009D02*
X112451905Y-217013390D01*
X112451905Y-217013390D02*
X112547143Y-216965771D01*
X112547143Y-216965771D02*
X112785238Y-216965771D01*
X112785238Y-216965771D02*
X112880476Y-217013390D01*
X112880476Y-217013390D02*
X112928095Y-217061009D01*
X112928095Y-217061009D02*
X112975714Y-217156247D01*
X112975714Y-217156247D02*
X112975714Y-217394342D01*
X112975714Y-217394342D02*
X112928095Y-217489580D01*
X112928095Y-217489580D02*
X112880476Y-217537200D01*
X112880476Y-217537200D02*
X112785238Y-217584819D01*
X112785238Y-217584819D02*
X112547143Y-217584819D01*
X112547143Y-217584819D02*
X112451905Y-217537200D01*
X112451905Y-217537200D02*
X112404286Y-217489580D01*
%TO.C,U4*%
D12*
X374307500Y-217040000D02*
X374307500Y-222340000D01*
X374307500Y-222340000D02*
X409987500Y-222340000D01*
X409987500Y-217040000D02*
X374307500Y-217040000D01*
X409987500Y-218690000D02*
X409987500Y-217040000D01*
X409987500Y-222340000D02*
X409987500Y-220690000D01*
X409987500Y-220690000D02*
G75*
G02*
X409987500Y-218690000I0J1000000D01*
G01*
%TO.C,U3*%
X310225400Y-221310000D02*
G75*
G02*
X310225400Y-219310000I0J1000000D01*
G01*
X310225400Y-222960000D02*
X310225400Y-221310000D01*
X310225400Y-219310000D02*
X310225400Y-217660000D01*
X310225400Y-217660000D02*
X274545400Y-217660000D01*
X274545400Y-222960000D02*
X310225400Y-222960000D01*
X274545400Y-217660000D02*
X274545400Y-222960000D01*
%TO.C,U5*%
D13*
X97856816Y-244185316D02*
G75*
G02*
X97656816Y-244185316I-100000J0D01*
G01*
X97656816Y-244185316D02*
G75*
G02*
X97856816Y-244185316I100000J0D01*
G01*
D14*
X96777500Y-227610000D02*
X117732500Y-227610000D01*
X96777500Y-245390000D02*
X96777500Y-227610000D01*
X117732500Y-227610000D02*
X117732500Y-245390000D01*
X117732500Y-245390000D02*
X96777500Y-245390000D01*
%TO.C,PD2*%
D12*
X131460000Y-229476700D02*
X131460000Y-229146700D01*
X131460000Y-226736700D02*
X131460000Y-227066700D01*
X124920000Y-229476700D02*
X131460000Y-229476700D01*
X124920000Y-229146700D02*
X124920000Y-229476700D01*
X124920000Y-227066700D02*
X124920000Y-226736700D01*
X124920000Y-226736700D02*
X131460000Y-226736700D01*
%TO.C,R7*%
X124920000Y-223136700D02*
X124920000Y-223466700D01*
X124920000Y-225876700D02*
X124920000Y-225546700D01*
X131460000Y-223136700D02*
X124920000Y-223136700D01*
X131460000Y-223466700D02*
X131460000Y-223136700D01*
X131460000Y-225546700D02*
X131460000Y-225876700D01*
X131460000Y-225876700D02*
X124920000Y-225876700D01*
%TO.C,R8*%
X124840000Y-234036700D02*
X124840000Y-234366700D01*
X124840000Y-236776700D02*
X124840000Y-236446700D01*
X131380000Y-234036700D02*
X124840000Y-234036700D01*
X131380000Y-234366700D02*
X131380000Y-234036700D01*
X131380000Y-236446700D02*
X131380000Y-236776700D01*
X131380000Y-236776700D02*
X124840000Y-236776700D01*
%TO.C,R6*%
X124940000Y-212136700D02*
X124940000Y-212466700D01*
X124940000Y-214876700D02*
X124940000Y-214546700D01*
X131480000Y-212136700D02*
X124940000Y-212136700D01*
X131480000Y-212466700D02*
X131480000Y-212136700D01*
X131480000Y-214546700D02*
X131480000Y-214876700D01*
X131480000Y-214876700D02*
X124940000Y-214876700D01*
%TO.C,PD1*%
X131460000Y-218476700D02*
X131460000Y-218146700D01*
X131460000Y-215736700D02*
X131460000Y-216066700D01*
X124920000Y-218476700D02*
X131460000Y-218476700D01*
X124920000Y-218146700D02*
X124920000Y-218476700D01*
X124920000Y-216066700D02*
X124920000Y-215736700D01*
X124920000Y-215736700D02*
X131460000Y-215736700D01*
%TO.C,PD3*%
X131460000Y-240476700D02*
X131460000Y-240146700D01*
X131460000Y-237736700D02*
X131460000Y-238066700D01*
X124920000Y-240476700D02*
X131460000Y-240476700D01*
X124920000Y-240146700D02*
X124920000Y-240476700D01*
X124920000Y-238066700D02*
X124920000Y-237736700D01*
X124920000Y-237736700D02*
X131460000Y-237736700D01*
%TO.C,Q1*%
X139560000Y-220410000D02*
X134940000Y-220410000D01*
X139560000Y-210190000D02*
X139560000Y-220410000D01*
X136320000Y-220410000D02*
X136320000Y-210190000D01*
X134940000Y-220410000D02*
X134940000Y-210190000D01*
X134940000Y-217150000D02*
X136320000Y-217150000D01*
X134940000Y-213450000D02*
X136320000Y-213450000D01*
X134940000Y-210190000D02*
X139560000Y-210190000D01*
%TO.C,Q3*%
X134940000Y-242410000D02*
X134940000Y-232190000D01*
X136320000Y-242410000D02*
X136320000Y-232190000D01*
X139560000Y-242410000D02*
X134940000Y-242410000D01*
X134940000Y-239150000D02*
X136320000Y-239150000D01*
X134940000Y-235450000D02*
X136320000Y-235450000D01*
X134940000Y-232190000D02*
X139560000Y-232190000D01*
X139560000Y-232190000D02*
X139560000Y-242410000D01*
%TO.C,Q2*%
X139560000Y-231410000D02*
X134940000Y-231410000D01*
X139560000Y-221190000D02*
X139560000Y-231410000D01*
X136320000Y-231410000D02*
X136320000Y-221190000D01*
X134940000Y-231410000D02*
X134940000Y-221190000D01*
X134940000Y-228150000D02*
X136320000Y-228150000D01*
X134940000Y-224450000D02*
X136320000Y-224450000D01*
X134940000Y-221190000D02*
X139560000Y-221190000D01*
%TO.C,RN3*%
X217130000Y-208140000D02*
X240150000Y-208140000D01*
X240150000Y-210760000D01*
X217130000Y-210760000D01*
X217130000Y-208140000D01*
X219750000Y-208140000D02*
X219750000Y-210760000D01*
%TO.C,U2*%
X174510000Y-217540000D02*
X174510000Y-222840000D01*
X174510000Y-222840000D02*
X210190000Y-222840000D01*
X210190000Y-217540000D02*
X174510000Y-217540000D01*
X210190000Y-219190000D02*
X210190000Y-217540000D01*
X210190000Y-222840000D02*
X210190000Y-221190000D01*
X210190000Y-221190000D02*
G75*
G02*
X210190000Y-219190000I0J1000000D01*
G01*
%TO.C,C1*%
X160180000Y-217180000D02*
X165420000Y-217180000D01*
X160180000Y-217517000D02*
X160180000Y-217180000D01*
X160180000Y-219920000D02*
X160180000Y-219583000D01*
X165420000Y-217180000D02*
X165420000Y-217517000D01*
X165420000Y-219583000D02*
X165420000Y-219920000D01*
X165420000Y-219920000D02*
X160180000Y-219920000D01*
%TO.C,R4*%
X108920000Y-222130000D02*
X115460000Y-222130000D01*
X108920000Y-222460000D02*
X108920000Y-222130000D01*
X108920000Y-224540000D02*
X108920000Y-224870000D01*
X108920000Y-224870000D02*
X115460000Y-224870000D01*
X115460000Y-222130000D02*
X115460000Y-222460000D01*
X115460000Y-224870000D02*
X115460000Y-224540000D01*
%TO.C,C3*%
X361252400Y-216480000D02*
X366492400Y-216480000D01*
X361252400Y-216817000D02*
X361252400Y-216480000D01*
X361252400Y-219220000D02*
X361252400Y-218883000D01*
X366492400Y-216480000D02*
X366492400Y-216817000D01*
X366492400Y-218883000D02*
X366492400Y-219220000D01*
X366492400Y-219220000D02*
X361252400Y-219220000D01*
%TO.C,RN9-100k1*%
X419185300Y-208140000D02*
X419185300Y-210760000D01*
X416565300Y-208140000D02*
X439585300Y-208140000D01*
X439585300Y-210760000D01*
X416565300Y-210760000D01*
X416565300Y-208140000D01*
%TO.C,RN2-22*%
X183230000Y-208140000D02*
X183230000Y-210760000D01*
X180610000Y-208140000D02*
X203630000Y-208140000D01*
X203630000Y-210760000D01*
X180610000Y-210760000D01*
X180610000Y-208140000D01*
%TO.C,R1*%
X160840000Y-220580000D02*
X167380000Y-220580000D01*
X160840000Y-220910000D02*
X160840000Y-220580000D01*
X160840000Y-222990000D02*
X160840000Y-223320000D01*
X160840000Y-223320000D02*
X167380000Y-223320000D01*
X167380000Y-220580000D02*
X167380000Y-220910000D01*
X167380000Y-223320000D02*
X167380000Y-222990000D01*
%TO.C,J1*%
X96262500Y-215550000D02*
X103002500Y-215550000D01*
X96262500Y-216890000D02*
X96262500Y-215550000D01*
X96262500Y-226450000D02*
X96262500Y-217490000D01*
X97182500Y-215550000D02*
X97182500Y-226450000D01*
X98182500Y-215550000D02*
X98182500Y-226450000D01*
X101282500Y-215550000D02*
X101282500Y-226450000D01*
X103002500Y-215550000D02*
X103002500Y-226450000D01*
X103002500Y-226450000D02*
X96262500Y-226450000D01*
X96262500Y-217190000D02*
X95652500Y-217630000D01*
X95652500Y-216750000D01*
X96262500Y-217190000D01*
G36*
X96262500Y-217190000D02*
G01*
X95652500Y-217630000D01*
X95652500Y-216750000D01*
X96262500Y-217190000D01*
G37*
%TO.C,R2*%
X260020000Y-220700000D02*
X266560000Y-220700000D01*
X260020000Y-221030000D02*
X260020000Y-220700000D01*
X260020000Y-223110000D02*
X260020000Y-223440000D01*
X260020000Y-223440000D02*
X266560000Y-223440000D01*
X266560000Y-220700000D02*
X266560000Y-221030000D01*
X266560000Y-223440000D02*
X266560000Y-223110000D01*
%TO.C,RN1-100k1*%
X148470000Y-208140000D02*
X148470000Y-210760000D01*
X145850000Y-208140000D02*
X168870000Y-208140000D01*
X168870000Y-210760000D01*
X145850000Y-210760000D01*
X145850000Y-208140000D01*
%TO.C,RN6-100k1*%
X319423300Y-208140000D02*
X319423300Y-210760000D01*
X316803300Y-208140000D02*
X339823300Y-208140000D01*
X339823300Y-210760000D01*
X316803300Y-210760000D01*
X316803300Y-208140000D01*
%TO.C,RN8-100k1*%
X347329600Y-208140000D02*
X347329600Y-210760000D01*
X344709600Y-208140000D02*
X367729600Y-208140000D01*
X367729600Y-210760000D01*
X344709600Y-210760000D01*
X344709600Y-208140000D01*
%TO.C,RN5-100k1*%
X247567600Y-208140000D02*
X247567600Y-210760000D01*
X244947600Y-208140000D02*
X267967600Y-208140000D01*
X267967600Y-210760000D01*
X244947600Y-210760000D01*
X244947600Y-208140000D01*
%TO.C,RN7-22*%
X383257500Y-208140000D02*
X383257500Y-210760000D01*
X380637500Y-208140000D02*
X403657500Y-208140000D01*
X403657500Y-210760000D01*
X380637500Y-210760000D01*
X380637500Y-208140000D01*
%TO.C,R3*%
X361912400Y-220280000D02*
X368452400Y-220280000D01*
X361912400Y-220610000D02*
X361912400Y-220280000D01*
X361912400Y-222690000D02*
X361912400Y-223020000D01*
X361912400Y-223020000D02*
X368452400Y-223020000D01*
X368452400Y-220280000D02*
X368452400Y-220610000D01*
X368452400Y-223020000D02*
X368452400Y-222690000D01*
%TO.C,C2*%
X259360000Y-217300000D02*
X264600000Y-217300000D01*
X259360000Y-217637000D02*
X259360000Y-217300000D01*
X259360000Y-220040000D02*
X259360000Y-219703000D01*
X264600000Y-217300000D02*
X264600000Y-217637000D01*
X264600000Y-219703000D02*
X264600000Y-220040000D01*
X264600000Y-220040000D02*
X259360000Y-220040000D01*
%TO.C,RN4-22*%
X283495400Y-208140000D02*
X283495400Y-210760000D01*
X280875400Y-208140000D02*
X303895400Y-208140000D01*
X303895400Y-210760000D01*
X280875400Y-210760000D01*
X280875400Y-208140000D01*
%TO.C,R5*%
X108920000Y-218130000D02*
X115460000Y-218130000D01*
X108920000Y-218460000D02*
X108920000Y-218130000D01*
X108920000Y-220540000D02*
X108920000Y-220870000D01*
X108920000Y-220870000D02*
X115460000Y-220870000D01*
X115460000Y-218130000D02*
X115460000Y-218460000D01*
X115460000Y-220870000D02*
X115460000Y-220540000D01*
%TD*%
M02*
