M48
; DRILL file KiCad 10.0.3-10.0.3~ubuntu24.04.1 date 2026-06-16T10:47:20
; FORMAT={-:-/ absolute / metric / decimal}
; #@! TF.CreationDate,2026-06-16T10:47:20+02:00
; #@! TF.GenerationSoftware,Kicad,Pcbnew,10.0.3-10.0.3~ubuntu24.04.1
; #@! TF.FileFunction,Plated,1,2,PTH
FMAT,2
METRIC
; #@! TA.AperFunction,Plated,PTH,ViaDrill
T1C0.300
; #@! TA.AperFunction,Plated,PTH,ViaDrill
T2C0.600
; #@! TA.AperFunction,Plated,PTH,ComponentDrill
T3C0.700
; #@! TA.AperFunction,Plated,PTH,ComponentDrill
T4C0.800
; #@! TA.AperFunction,Plated,PTH,ComponentDrill
T5C0.850
; #@! TA.AperFunction,Plated,PTH,ComponentDrill
T6C1.100
; #@! TA.AperFunction,Plated,PTH,ComponentDrill
T7C1.200
%
G90
G05
T1
X97.2Y-208.0
X97.6Y-213.8
X108.7Y-211.6
X108.9Y-214.5
X117.4Y-215.1
X118.5Y-212.7
X118.6Y-226.8
X120.0Y-232.0
X120.2Y-236.8
X120.2Y-244.2
X120.7Y-219.1
X133.3Y-231.5
X133.8Y-213.1
X133.9Y-219.3
X140.4Y-209.6
X141.9Y-212.5
X142.4Y-216.0
X142.7Y-230.1
X142.9Y-224.2
X144.1Y-244.6
X144.113Y-212.225
X144.113Y-213.109
X144.3Y-236.8
X145.025Y-212.667
X146.3Y-207.2
X149.26Y-220.38
X150.113Y-207.33
X153.212Y-230.634
X155.2Y-232.9
X155.2Y-243.8
X160.934Y-212.105
X162.04Y-215.949
X165.036Y-224.565
X165.1Y-241.9
X165.526Y-211.047
X165.866Y-223.762
X167.0Y-220.879
X168.2Y-234.2
X169.531Y-230.325
X169.8Y-237.7
X172.9Y-230.3
X173.991Y-238.293
X174.1Y-226.5
X176.8Y-228.3
X178.2Y-240.4
X178.5Y-233.4
X178.8Y-237.5
X181.1Y-226.8
X181.77Y-214.818
X181.8Y-236.9
X182.6Y-244.6
X185.1Y-229.7
X185.757Y-234.332
X189.141Y-211.047
X190.9Y-242.3
X190.908Y-225.4
X195.3Y-237.6
X195.5Y-244.2
X195.976Y-213.941
X196.773Y-218.056
X197.018Y-208.074
X197.021Y-212.84
X197.5Y-230.9
X197.832Y-207.332
X199.3Y-228.5
X200.62Y-225.4
X201.997Y-212.172
X205.7Y-226.6
X206.819Y-221.692
X207.649Y-222.494
X210.4Y-237.4
X212.0Y-209.3
X212.6Y-216.7
X212.722Y-218.054
X216.2Y-242.9
X216.7Y-230.3
X217.5Y-242.4
X220.2Y-237.7
X226.546Y-218.053
X226.738Y-210.874
X227.709Y-218.822
X228.4Y-233.8
X228.8Y-222.8
X229.7Y-240.3
X230.695Y-224.564
X230.695Y-236.05
X231.713Y-215.392
X233.0Y-228.5
X233.777Y-212.42
X235.138Y-242.006
X235.923Y-241.006
X240.4Y-208.2
X241.0Y-216.7
X242.9Y-242.0
X243.2Y-235.0
X244.1Y-220.2
X245.1Y-228.0
X247.689Y-233.049
X249.002Y-221.374
X251.319Y-216.152
X253.775Y-227.435
X254.571Y-233.178
X255.367Y-218.821
X256.5Y-244.1
X257.413Y-218.821
X257.415Y-221.664
X258.4Y-238.5
X258.6Y-237.0
X260.1Y-224.6
X260.54Y-227.437
X260.649Y-241.117
X260.9Y-225.2
X263.8Y-228.7
X264.1Y-229.2
X264.2Y-239.5
X264.381Y-210.946
X264.4Y-235.8
X265.5Y-232.2
X266.7Y-218.6
X267.101Y-226.668
X267.8Y-217.7
X268.1Y-233.5
X268.8Y-239.6
X269.0Y-235.8
X269.385Y-220.836
X269.6Y-225.9
X269.9Y-228.8
X271.6Y-219.2
X271.7Y-223.8
X272.7Y-244.1
X273.2Y-229.0
X273.3Y-217.3
X274.698Y-215.282
X276.231Y-232.623
X277.6Y-226.3
X277.8Y-228.8
X277.9Y-218.2
X278.1Y-239.3
X278.6Y-234.8
X280.1Y-228.9
X281.2Y-243.3
X282.0Y-238.3
X282.7Y-226.1
X283.4Y-222.3
X285.0Y-218.2
X288.392Y-221.344
X289.0Y-237.5
X290.509Y-219.174
X290.713Y-230.635
X292.2Y-230.3
X292.3Y-244.6
X292.416Y-212.276
X293.0Y-236.2
X293.6Y-227.4
X293.656Y-208.611
X295.493Y-232.396
X295.744Y-211.12
X298.532Y-234.582
X299.021Y-220.329
X300.465Y-220.101
X302.4Y-237.4
X303.2Y-229.7
X304.2Y-241.7
X307.2Y-238.2
X308.292Y-211.431
X311.642Y-216.369
X313.552Y-232.517
X314.196Y-234.678
X314.6Y-245.1
X315.362Y-223.34
X316.8Y-231.0
X317.0Y-237.1
X317.1Y-225.8
X317.4Y-241.2
X318.329Y-219.848
X319.4Y-238.1
X323.214Y-224.564
X323.7Y-237.6
X324.2Y-236.8
X326.4Y-230.3
X326.6Y-218.8
X327.6Y-244.3
X329.0Y-234.3
X330.0Y-224.7
X330.5Y-216.8
X331.6Y-219.2
X334.1Y-230.7
X334.374Y-210.345
X335.559Y-224.564
X335.9Y-236.9
X336.247Y-212.119
X336.9Y-244.9
X337.158Y-238.763
X337.6Y-220.1
X339.8Y-236.3
X341.121Y-237.739
X342.1Y-230.7
X342.8Y-243.3
X344.2Y-220.2
X345.0Y-237.5
X347.744Y-233.653
X352.6Y-234.1
X352.7Y-244.3
X355.8Y-235.3
X356.6Y-238.2
X358.098Y-213.078
X358.098Y-227.435
X359.44Y-213.927
X360.373Y-234.185
X362.1Y-232.019
X362.301Y-236.718
X362.952Y-232.398
X363.096Y-231.489
X365.3Y-241.1
X365.73Y-211.216
X367.982Y-236.067
X368.3Y-216.1
X368.4Y-217.1
X369.973Y-217.248
X370.2Y-244.2
X370.5Y-236.9
X370.571Y-224.205
X371.2Y-230.2
X372.948Y-222.24
X374.238Y-223.568
X376.3Y-229.0
X376.8Y-225.9
X377.7Y-238.5
X379.448Y-222.806
X380.108Y-221.666
X380.3Y-234.6
X380.9Y-241.5
X381.1Y-219.9
X381.7Y-245.0
X382.372Y-210.846
X383.1Y-219.2
X384.7Y-238.7
X384.9Y-235.0
X385.163Y-233.595
X385.3Y-241.8
X386.6Y-221.5
X386.69Y-216.857
X386.899Y-232.458
X391.5Y-243.7
X392.545Y-212.677
X393.996Y-214.27
X395.8Y-237.4
X398.1Y-245.1
X400.304Y-214.122
X403.1Y-228.0
X403.601Y-219.328
X404.2Y-236.8
X404.9Y-241.7
X405.5Y-232.8
X406.027Y-218.299
X406.78Y-214.177
X407.9Y-237.4
X408.5Y-244.4
X410.416Y-220.602
X412.749Y-222.46
X415.405Y-235.962
X416.134Y-234.47
X416.4Y-239.8
X417.73Y-236.394
X418.527Y-212.887
X418.812Y-220.925
X418.9Y-238.1
X419.56Y-222.46
X422.7Y-240.6
X422.7Y-244.2
X427.5Y-237.8
X427.8Y-234.0
X428.051Y-210.879
X430.4Y-245.1
X430.9Y-234.4
X430.9Y-241.3
X435.0Y-241.6
X435.999Y-220.924
X437.591Y-221.692
X439.8Y-244.8
X439.952Y-213.2
T2
X145.381Y-221.501
X385.0Y-237.4
T3
X146.0Y-233.6
X146.0Y-235.4
X146.0Y-240.6
X146.0Y-242.4
X150.0Y-233.6
X150.0Y-235.4
X150.0Y-240.6
X150.0Y-242.4
X158.5Y-233.6
X158.5Y-235.4
X158.5Y-240.6
X158.5Y-242.4
X162.5Y-233.6
X162.5Y-235.4
X162.5Y-240.6
X162.5Y-242.4
X171.0Y-233.6
X171.0Y-235.4
X171.0Y-240.6
X171.0Y-242.4
X175.0Y-233.6
X175.0Y-235.4
X175.0Y-240.6
X175.0Y-242.4
X183.5Y-233.6
X183.5Y-235.4
X183.5Y-240.6
X183.5Y-242.4
X187.5Y-233.6
X187.5Y-235.4
X187.5Y-240.6
X187.5Y-242.4
X196.0Y-233.6
X196.0Y-235.4
X196.0Y-240.6
X196.0Y-242.4
X200.0Y-233.6
X200.0Y-235.4
X200.0Y-240.6
X200.0Y-242.4
X208.5Y-233.6
X208.5Y-235.4
X208.5Y-240.6
X208.5Y-242.4
X212.5Y-233.6
X212.5Y-235.4
X212.5Y-240.6
X212.5Y-242.4
X221.0Y-233.6
X221.0Y-235.4
X221.0Y-240.6
X221.0Y-242.4
X225.0Y-233.6
X225.0Y-235.4
X225.0Y-240.6
X225.0Y-242.4
X233.5Y-233.6
X233.5Y-235.4
X233.5Y-240.6
X233.5Y-242.4
X237.5Y-233.6
X237.5Y-235.4
X237.5Y-240.6
X237.5Y-242.4
X246.0Y-233.6
X246.0Y-235.4
X246.0Y-240.6
X246.0Y-242.4
X250.0Y-233.6
X250.0Y-235.4
X250.0Y-240.6
X250.0Y-242.4
X258.5Y-233.6
X258.5Y-235.4
X258.5Y-240.6
X258.5Y-242.4
X262.5Y-233.6
X262.5Y-235.4
X262.5Y-240.6
X262.5Y-242.4
X271.0Y-233.6
X271.0Y-235.4
X271.0Y-240.6
X271.0Y-242.4
X275.0Y-233.6
X275.0Y-235.4
X275.0Y-240.6
X275.0Y-242.4
X283.5Y-233.6
X283.5Y-235.4
X283.5Y-240.6
X283.5Y-242.4
X287.5Y-233.6
X287.5Y-235.4
X287.5Y-240.6
X287.5Y-242.4
X296.0Y-233.6
X296.0Y-235.4
X296.0Y-240.6
X296.0Y-242.4
X300.0Y-233.6
X300.0Y-235.4
X300.0Y-240.6
X300.0Y-242.4
X308.5Y-233.6
X308.5Y-235.4
X308.5Y-240.6
X308.5Y-242.4
X312.5Y-233.6
X312.5Y-235.4
X312.5Y-240.6
X312.5Y-242.4
X321.0Y-233.6
X321.0Y-235.4
X321.0Y-240.6
X321.0Y-242.4
X325.0Y-233.6
X325.0Y-235.4
X325.0Y-240.6
X325.0Y-242.4
X333.5Y-233.6
X333.5Y-235.4
X333.5Y-240.6
X333.5Y-242.4
X337.5Y-233.6
X337.5Y-235.4
X337.5Y-240.6
X337.5Y-242.4
X346.0Y-233.6
X346.0Y-235.4
X346.0Y-240.6
X346.0Y-242.4
X350.0Y-233.6
X350.0Y-235.4
X350.0Y-240.6
X350.0Y-242.4
X358.5Y-233.6
X358.5Y-235.4
X358.5Y-240.6
X358.5Y-242.4
X362.5Y-233.6
X362.5Y-235.4
X362.5Y-240.6
X362.5Y-242.4
X371.0Y-233.6
X371.0Y-235.4
X371.0Y-240.6
X371.0Y-242.4
X375.0Y-233.6
X375.0Y-235.4
X375.0Y-240.6
X375.0Y-242.4
X383.5Y-233.6
X383.5Y-235.4
X383.5Y-240.6
X383.5Y-242.4
X387.5Y-233.6
X387.5Y-235.4
X387.5Y-240.6
X387.5Y-242.4
X396.0Y-233.6
X396.0Y-235.4
X396.0Y-240.6
X396.0Y-242.4
X400.0Y-233.6
X400.0Y-235.4
X400.0Y-240.6
X400.0Y-242.4
X408.5Y-233.6
X408.5Y-235.4
X408.5Y-240.6
X408.5Y-242.4
X412.5Y-233.6
X412.5Y-235.4
X412.5Y-240.6
X412.5Y-242.4
X421.0Y-233.6
X421.0Y-235.4
X421.0Y-240.6
X421.0Y-242.4
X425.0Y-233.6
X425.0Y-235.4
X425.0Y-240.6
X425.0Y-242.4
X433.5Y-233.6
X433.5Y-235.4
X433.5Y-240.6
X433.5Y-242.4
X437.5Y-233.6
X437.5Y-235.4
X437.5Y-240.6
X437.5Y-242.4
T4
X108.38Y-219.5
X108.38Y-223.5
X116.0Y-219.5
X116.0Y-223.5
X124.3Y-235.407
X124.38Y-217.107
X124.38Y-224.507
X124.38Y-228.107
X124.38Y-239.107
X124.4Y-213.507
X131.92Y-235.407
X132.0Y-217.107
X132.0Y-224.507
X132.0Y-228.107
X132.0Y-239.107
X132.02Y-213.507
X147.2Y-209.45
X149.74Y-209.45
X152.28Y-209.45
X154.82Y-209.45
X157.36Y-209.45
X159.9Y-209.45
X160.3Y-218.55
X160.3Y-221.95
X162.44Y-209.45
X164.98Y-209.45
X165.3Y-218.55
X167.52Y-209.45
X167.92Y-221.95
X175.84Y-216.38
X175.84Y-224.0
X178.38Y-216.38
X178.38Y-224.0
X180.92Y-216.38
X180.92Y-224.0
X181.96Y-209.45
X183.46Y-216.38
X183.46Y-224.0
X184.5Y-209.45
X186.0Y-216.38
X186.0Y-224.0
X187.04Y-209.45
X188.54Y-216.38
X188.54Y-224.0
X189.58Y-209.45
X191.08Y-216.38
X191.08Y-224.0
X192.12Y-209.45
X193.62Y-216.38
X193.62Y-224.0
X194.66Y-209.45
X196.16Y-216.38
X196.16Y-224.0
X197.2Y-209.45
X198.7Y-216.38
X198.7Y-224.0
X199.74Y-209.45
X201.24Y-216.38
X201.24Y-224.0
X202.28Y-209.45
X203.78Y-216.38
X203.78Y-224.0
X206.32Y-216.38
X206.32Y-224.0
X208.86Y-216.38
X208.86Y-224.0
X218.48Y-209.45
X221.02Y-209.45
X223.56Y-209.45
X226.1Y-209.45
X228.64Y-209.45
X231.18Y-209.45
X233.72Y-209.45
X236.26Y-209.45
X238.8Y-209.45
X246.298Y-209.45
X248.838Y-209.45
X251.378Y-209.45
X253.918Y-209.45
X256.458Y-209.45
X258.998Y-209.45
X259.48Y-218.67
X259.48Y-222.07
X261.538Y-209.45
X264.078Y-209.45
X264.48Y-218.67
X266.618Y-209.45
X267.1Y-222.07
X275.875Y-216.5
X275.875Y-224.12
X278.415Y-216.5
X278.415Y-224.12
X280.955Y-216.5
X280.955Y-224.12
X282.225Y-209.45
X283.495Y-216.5
X283.495Y-224.12
X284.765Y-209.45
X286.035Y-216.5
X286.035Y-224.12
X287.305Y-209.45
X288.575Y-216.5
X288.575Y-224.12
X289.845Y-209.45
X291.115Y-216.5
X291.115Y-224.12
X292.385Y-209.45
X293.655Y-216.5
X293.655Y-224.12
X294.925Y-209.45
X296.195Y-216.5
X296.195Y-224.12
X297.465Y-209.45
X298.735Y-216.5
X298.735Y-224.12
X300.005Y-209.45
X301.275Y-216.5
X301.275Y-224.12
X302.545Y-209.45
X303.815Y-216.5
X303.815Y-224.12
X306.355Y-216.5
X306.355Y-224.12
X308.895Y-216.5
X308.895Y-224.12
X318.153Y-209.45
X320.693Y-209.45
X323.233Y-209.45
X325.773Y-209.45
X328.313Y-209.45
X330.853Y-209.45
X333.393Y-209.45
X335.933Y-209.45
X338.473Y-209.45
X346.06Y-209.45
X348.6Y-209.45
X351.14Y-209.45
X353.68Y-209.45
X356.22Y-209.45
X358.76Y-209.45
X361.3Y-209.45
X361.372Y-217.85
X361.372Y-221.65
X363.84Y-209.45
X366.372Y-217.85
X366.38Y-209.45
X368.992Y-221.65
X375.637Y-215.88
X375.637Y-223.5
X378.178Y-215.88
X378.178Y-223.5
X380.717Y-215.88
X380.717Y-223.5
X381.987Y-209.45
X383.257Y-215.88
X383.257Y-223.5
X384.527Y-209.45
X385.797Y-215.88
X385.797Y-223.5
X387.067Y-209.45
X388.337Y-215.88
X388.337Y-223.5
X389.607Y-209.45
X390.877Y-215.88
X390.877Y-223.5
X392.147Y-209.45
X393.417Y-215.88
X393.417Y-223.5
X394.688Y-209.45
X395.957Y-215.88
X395.957Y-223.5
X397.227Y-209.45
X398.498Y-215.88
X398.498Y-223.5
X399.767Y-209.45
X401.037Y-215.88
X401.037Y-223.5
X402.308Y-209.45
X403.577Y-215.88
X403.577Y-223.5
X406.118Y-215.88
X406.118Y-223.5
X408.657Y-215.88
X408.657Y-223.5
X417.915Y-209.45
X420.455Y-209.45
X422.995Y-209.45
X425.535Y-209.45
X428.075Y-209.45
X430.615Y-209.45
X433.155Y-209.45
X435.695Y-209.45
X438.235Y-209.45
T5
X99.698Y-228.88
X99.698Y-244.12
X102.239Y-228.88
X102.239Y-244.12
X104.778Y-228.88
X104.778Y-244.12
X107.319Y-228.88
X107.319Y-244.12
X109.858Y-228.88
X109.858Y-244.12
X112.398Y-228.88
X112.398Y-244.12
X114.938Y-228.88
X114.938Y-244.12
T6
X138.2Y-212.76
X138.2Y-215.3
X138.2Y-217.84
X138.2Y-223.76
X138.2Y-226.3
X138.2Y-228.84
X138.2Y-234.76
X138.2Y-237.3
X138.2Y-239.84
T7
X99.782Y-217.19
X99.782Y-219.73
X99.782Y-222.27
X99.782Y-224.81
M30
